{"glyphs":{"0":{"ha":926,"x_min":0,"x_max":771,"o":"m 231 0 q 176 22 199 0 q 154 77 154 45 q 176 132 154 109 q 231 154 199 154 q 286 132 263 154 q 309 77 309 109 q 286 22 309 45 q 231 0 263 0 m 385 0 q 331 22 353 0 q 309 77 309 45 q 331 132 309 109 q 385 154 353 154 q 440 132 418 154 q 463 77 463 109 q 440 22 463 45 q 385 0 417 0 m 540 0 q 486 22 508 0 q 463 77 463 45 q 486 132 463 109 q 540 154 508 154 q 594 132 572 154 q 617 77 617 109 q 594 22 617 45 q 540 0 572 0 m 77 154 q 22 176 45 154 q 0 231 0 199 q 22 286 0 263 q 77 309 45 309 q 132 286 109 309 q 154 231 154 263 q 132 176 154 199 q 77 154 109 154 m 694 154 q 640 176 662 154 q 617 231 617 199 q 640 286 617 263 q 694 309 662 309 q 749 286 726 309 q 771 231 771 263 q 749 176 771 199 q 694 154 726 154 m 77 309 q 22 331 45 309 q 0 385 0 353 q 22 440 0 418 q 77 463 45 463 q 132 440 109 463 q 154 385 154 417 q 132 331 154 353 q 77 309 109 309 m 694 309 q 640 331 662 309 q 617 385 617 353 q 640 440 617 418 q 694 463 662 463 q 749 440 726 463 q 771 385 771 417 q 749 331 771 353 q 694 309 726 309 m 77 463 q 22 486 45 463 q 0 540 0 508 q 22 594 0 572 q 77 617 45 617 q 132 594 109 617 q 154 540 154 572 q 132 486 154 508 q 77 463 109 463 m 694 463 q 640 486 662 463 q 617 540 617 508 q 640 594 617 572 q 694 617 662 617 q 749 594 726 617 q 771 540 771 572 q 749 486 771 508 q 694 463 726 463 m 77 617 q 22 640 45 617 q 0 694 0 662 q 22 749 0 726 q 77 771 45 771 q 132 749 109 771 q 154 694 154 726 q 132 640 154 662 q 77 617 109 617 m 694 617 q 640 640 662 617 q 617 694 617 662 q 640 749 617 726 q 694 771 662 771 q 749 749 726 771 q 771 694 771 726 q 749 640 771 662 q 694 617 726 617 m 77 771 q 22 794 45 771 q 0 848 0 817 q 22 903 0 880 q 77 926 45 926 q 132 903 109 926 q 154 848 154 880 q 132 794 154 817 q 77 771 109 771 m 694 771 q 640 794 662 771 q 617 848 617 817 q 640 903 617 880 q 694 926 662 926 q 749 903 726 926 q 771 848 771 880 q 749 794 771 817 q 694 771 726 771 m 231 926 q 176 948 199 926 q 154 1003 154 971 q 176 1057 154 1035 q 231 1080 199 1080 q 286 1057 263 1080 q 309 1003 309 1035 q 286 948 309 970 q 231 926 263 926 m 385 926 q 331 948 353 926 q 309 1003 309 971 q 331 1057 309 1035 q 385 1080 353 1080 q 440 1057 418 1080 q 463 1003 463 1035 q 440 948 463 970 q 385 926 417 926 m 540 926 q 486 948 508 926 q 463 1003 463 971 q 486 1057 463 1035 q 540 1080 508 1080 q 594 1057 572 1080 q 617 1003 617 1035 q 594 948 617 970 q 540 926 572 926 z "},"1":{"ha":617,"x_min":0,"x_max":463,"o":"m 77 0 q 22 22 45 0 q 0 77 0 45 q 22 132 0 109 q 77 154 45 154 q 132 132 109 154 q 154 77 154 109 q 132 22 154 45 q 77 0 109 0 m 231 0 q 176 22 199 0 q 154 77 154 45 q 176 132 154 109 q 231 154 199 154 q 286 132 263 154 q 309 77 309 109 q 286 22 309 45 q 231 0 263 0 m 385 0 q 331 22 353 0 q 309 77 309 45 q 331 132 309 109 q 385 154 353 154 q 440 132 418 154 q 463 77 463 109 q 440 22 463 45 q 385 0 417 0 m 231 154 q 176 176 199 154 q 154 231 154 199 q 176 286 154 263 q 231 309 199 309 q 286 286 263 309 q 309 231 309 263 q 286 176 309 199 q 231 154 263 154 m 231 309 q 176 331 199 309 q 154 385 154 353 q 176 440 154 418 q 231 463 199 463 q 286 440 263 463 q 309 385 309 417 q 286 331 309 353 q 231 309 263 309 m 231 463 q 176 486 199 463 q 154 540 154 508 q 176 594 154 572 q 231 617 199 617 q 286 594 263 617 q 309 540 309 572 q 286 486 309 508 q 231 463 263 463 m 231 617 q 176 640 199 617 q 154 694 154 662 q 176 749 154 726 q 231 771 199 771 q 286 749 263 771 q 309 694 309 726 q 286 640 309 662 q 231 617 263 617 m 77 771 q 22 794 45 771 q 0 848 0 817 q 22 903 0 880 q 77 926 45 926 q 132 903 109 926 q 154 848 154 880 q 132 794 154 817 q 77 771 109 771 m 231 771 q 176 794 199 771 q 154 848 154 817 q 176 903 154 880 q 231 926 199 926 q 286 903 263 926 q 309 848 309 880 q 286 794 309 817 q 231 771 263 771 m 231 926 q 176 948 199 926 q 154 1003 154 971 q 176 1057 154 1035 q 231 1080 199 1080 q 286 1057 263 1080 q 309 1003 309 1035 q 286 948 309 970 q 231 926 263 926 z "},"2":{"ha":926,"x_min":0,"x_max":771,"o":"m 77 0 q 22 22 45 0 q 0 77 0 45 q 22 132 0 109 q 77 154 45 154 q 132 132 109 154 q 154 77 154 109 q 132 22 154 45 q 77 0 109 0 m 231 0 q 176 22 199 0 q 154 77 154 45 q 176 132 154 109 q 231 154 199 154 q 286 132 263 154 q 309 77 309 109 q 286 22 309 45 q 231 0 263 0 m 385 0 q 331 22 353 0 q 309 77 309 45 q 331 132 309 109 q 385 154 353 154 q 440 132 418 154 q 463 77 463 109 q 440 22 463 45 q 385 0 417 0 m 540 0 q 486 22 508 0 q 463 77 463 45 q 486 132 463 109 q 540 154 508 154 q 594 132 572 154 q 617 77 617 109 q 594 22 617 45 q 540 0 572 0 m 694 0 q 640 22 662 0 q 617 77 617 45 q 640 132 617 109 q 694 154 662 154 q 749 132 726 154 q 771 77 771 109 q 749 22 771 45 q 694 0 726 0 m 231 154 q 176 176 199 154 q 154 231 154 199 q 176 286 154 263 q 231 309 199 309 q 286 286 263 309 q 309 231 309 263 q 286 176 309 199 q 231 154 263 154 m 385 309 q 331 331 353 309 q 309 385 309 353 q 331 440 309 418 q 385 463 353 463 q 440 440 418 463 q 463 385 463 417 q 440 331 463 353 q 385 309 417 309 m 540 463 q 486 486 508 463 q 463 540 463 508 q 486 594 463 572 q 540 617 508 617 q 594 594 572 617 q 617 540 617 572 q 594 486 617 508 q 540 463 572 463 m 694 617 q 640 640 662 617 q 617 694 617 662 q 640 749 617 726 q 694 771 662 771 q 749 749 726 771 q 771 694 771 726 q 749 640 771 662 q 694 617 726 617 m 77 771 q 22 794 45 771 q 0 848 0 817 q 22 903 0 880 q 77 926 45 926 q 132 903 109 926 q 154 848 154 880 q 132 794 154 817 q 77 771 109 771 m 694 771 q 640 794 662 771 q 617 848 617 817 q 640 903 617 880 q 694 926 662 926 q 749 903 726 926 q 771 848 771 880 q 749 794 771 817 q 694 771 726 771 m 231 926 q 176 948 199 926 q 154 1003 154 971 q 176 1057 154 1035 q 231 1080 199 1080 q 286 1057 263 1080 q 309 1003 309 1035 q 286 948 309 970 q 231 926 263 926 m 385 926 q 331 948 353 926 q 309 1003 309 971 q 331 1057 309 1035 q 385 1080 353 1080 q 440 1057 418 1080 q 463 1003 463 1035 q 440 948 463 970 q 385 926 417 926 m 540 926 q 486 948 508 926 q 463 1003 463 971 q 486 1057 463 1035 q 540 1080 508 1080 q 594 1057 572 1080 q 617 1003 617 1035 q 594 948 617 970 q 540 926 572 926 z "},"3":{"ha":926,"x_min":0,"x_max":771,"o":"m 231 0 q 176 22 199 0 q 154 77 154 45 q 176 132 154 109 q 231 154 199 154 q 286 132 263 154 q 309 77 309 109 q 286 22 309 45 q 231 0 263 0 m 385 0 q 331 22 353 0 q 309 77 309 45 q 331 132 309 109 q 385 154 353 154 q 440 132 418 154 q 463 77 463 109 q 440 22 463 45 q 385 0 417 0 m 540 0 q 486 22 508 0 q 463 77 463 45 q 486 132 463 109 q 540 154 508 154 q 594 132 572 154 q 617 77 617 109 q 594 22 617 45 q 540 0 572 0 m 77 154 q 22 176 45 154 q 0 231 0 199 q 22 286 0 263 q 77 309 45 309 q 132 286 109 309 q 154 231 154 263 q 132 176 154 199 q 77 154 109 154 m 694 154 q 640 176 662 154 q 617 231 617 199 q 640 286 617 263 q 694 309 662 309 q 749 286 726 309 q 771 231 771 263 q 749 176 771 199 q 694 154 726 154 m 694 309 q 640 331 662 309 q 617 385 617 353 q 640 440 617 418 q 694 463 662 463 q 749 440 726 463 q 771 385 771 417 q 749 331 771 353 q 694 309 726 309 m 385 463 q 331 486 353 463 q 309 540 309 508 q 331 594 309 572 q 385 617 353 617 q 440 594 418 617 q 463 540 463 572 q 440 486 463 508 q 385 463 417 463 m 540 463 q 486 486 508 463 q 463 540 463 508 q 486 594 463 572 q 540 617 508 617 q 594 594 572 617 q 617 540 617 572 q 594 486 617 508 q 540 463 572 463 m 694 617 q 640 640 662 617 q 617 694 617 662 q 640 749 617 726 q 694 771 662 771 q 749 749 726 771 q 771 694 771 726 q 749 640 771 662 q 694 617 726 617 m 77 771 q 22 794 45 771 q 0 848 0 817 q 22 903 0 880 q 77 926 45 926 q 132 903 109 926 q 154 848 154 880 q 132 794 154 817 q 77 771 109 771 m 694 771 q 640 794 662 771 q 617 848 617 817 q 640 903 617 880 q 694 926 662 926 q 749 903 726 926 q 771 848 771 880 q 749 794 771 817 q 694 771 726 771 m 231 926 q 176 948 199 926 q 154 1003 154 971 q 176 1057 154 1035 q 231 1080 199 1080 q 286 1057 263 1080 q 309 1003 309 1035 q 286 948 309 970 q 231 926 263 926 m 385 926 q 331 948 353 926 q 309 1003 309 971 q 331 1057 309 1035 q 385 1080 353 1080 q 440 1057 418 1080 q 463 1003 463 1035 q 440 948 463 970 q 385 926 417 926 m 540 926 q 486 948 508 926 q 463 1003 463 971 q 486 1057 463 1035 q 540 1080 508 1080 q 594 1057 572 1080 q 617 1003 617 1035 q 594 948 617 970 q 540 926 572 926 z "},"4":{"ha":926,"x_min":0,"x_max":771,"o":"m 540 0 q 486 22 508 0 q 463 77 463 45 q 486 132 463 109 q 540 154 508 154 q 594 132 572 154 q 617 77 617 109 q 594 22 617 45 q 540 0 572 0 m 540 154 q 486 176 508 154 q 463 231 463 199 q 486 286 463 263 q 540 309 508 309 q 594 286 572 309 q 617 231 617 263 q 594 176 617 199 q 540 154 572 154 m 77 309 q 22 331 45 309 q 0 385 0 353 q 22 440 0 418 q 77 463 45 463 q 132 440 109 463 q 154 385 154 417 q 132 331 154 353 q 77 309 109 309 m 231 309 q 176 331 199 309 q 154 385 154 353 q 176 440 154 418 q 231 463 199 463 q 286 440 263 463 q 309 385 309 417 q 286 331 309 353 q 231 309 263 309 m 385 309 q 331 331 353 309 q 309 385 309 353 q 331 440 309 418 q 385 463 353 463 q 440 440 418 463 q 463 385 463 417 q 440 331 463 353 q 385 309 417 309 m 540 309 q 486 331 508 309 q 463 385 463 353 q 486 440 463 418 q 540 463 508 463 q 594 440 572 463 q 617 385 617 417 q 594 331 617 353 q 540 309 572 309 m 694 309 q 640 331 662 309 q 617 385 617 353 q 640 440 617 418 q 694 463 662 463 q 749 440 726 463 q 771 385 771 417 q 749 331 771 353 q 694 309 726 309 m 77 463 q 22 486 45 463 q 0 540 0 508 q 22 594 0 572 q 77 617 45 617 q 132 594 109 617 q 154 540 154 572 q 132 486 154 508 q 77 463 109 463 m 540 463 q 486 486 508 463 q 463 540 463 508 q 486 594 463 572 q 540 617 508 617 q 594 594 572 617 q 617 540 617 572 q 594 486 617 508 q 540 463 572 463 m 231 617 q 176 640 199 617 q 154 694 154 662 q 176 749 154 726 q 231 771 199 771 q 286 749 263 771 q 309 694 309 726 q 286 640 309 662 q 231 617 263 617 m 540 617 q 486 640 508 617 q 463 694 463 662 q 486 749 463 726 q 540 771 508 771 q 594 749 572 771 q 617 694 617 726 q 594 640 617 662 q 540 617 572 617 m 385 771 q 331 794 353 771 q 309 848 309 817 q 331 903 309 880 q 385 926 353 926 q 440 903 418 926 q 463 848 463 880 q 440 794 463 817 q 385 771 417 771 m 540 771 q 486 794 508 771 q 463 848 463 817 q 486 903 463 880 q 540 926 508 926 q 594 903 572 926 q 617 848 617 880 q 594 794 617 817 q 540 771 572 771 m 540 926 q 486 948 508 926 q 463 1003 463 971 q 486 1057 463 1035 q 540 1080 508 1080 q 594 1057 572 1080 q 617 1003 617 1035 q 594 948 617 970 q 540 926 572 926 z "},"5":{"ha":926,"x_min":0,"x_max":771,"o":"m 231 0 q 176 22 199 0 q 154 77 154 45 q 176 132 154 109 q 231 154 199 154 q 286 132 263 154 q 309 77 309 109 q 286 22 309 45 q 231 0 263 0 m 385 0 q 331 22 353 0 q 309 77 309 45 q 331 132 309 109 q 385 154 353 154 q 440 132 418 154 q 463 77 463 109 q 440 22 463 45 q 385 0 417 0 m 540 0 q 486 22 508 0 q 463 77 463 45 q 486 132 463 109 q 540 154 508 154 q 594 132 572 154 q 617 77 617 109 q 594 22 617 45 q 540 0 572 0 m 77 154 q 22 176 45 154 q 0 231 0 199 q 22 286 0 263 q 77 309 45 309 q 132 286 109 309 q 154 231 154 263 q 132 176 154 199 q 77 154 109 154 m 694 154 q 640 176 662 154 q 617 231 617 199 q 640 286 617 263 q 694 309 662 309 q 749 286 726 309 q 771 231 771 263 q 749 176 771 199 q 694 154 726 154 m 694 309 q 640 331 662 309 q 617 385 617 353 q 640 440 617 418 q 694 463 662 463 q 749 440 726 463 q 771 385 771 417 q 749 331 771 353 q 694 309 726 309 m 77 463 q 22 486 45 463 q 0 540 0 508 q 22 594 0 572 q 77 617 45 617 q 132 594 109 617 q 154 540 154 572 q 132 486 154 508 q 77 463 109 463 m 231 463 q 176 486 199 463 q 154 540 154 508 q 176 594 154 572 q 231 617 199 617 q 286 594 263 617 q 309 540 309 572 q 286 486 309 508 q 231 463 263 463 m 385 463 q 331 486 353 463 q 309 540 309 508 q 331 594 309 572 q 385 617 353 617 q 440 594 418 617 q 463 540 463 572 q 440 486 463 508 q 385 463 417 463 m 540 463 q 486 486 508 463 q 463 540 463 508 q 486 594 463 572 q 540 617 508 617 q 594 594 572 617 q 617 540 617 572 q 594 486 617 508 q 540 463 572 463 m 77 617 q 22 640 45 617 q 0 694 0 662 q 22 749 0 726 q 77 771 45 771 q 132 749 109 771 q 154 694 154 726 q 132 640 154 662 q 77 617 109 617 m 77 771 q 22 794 45 771 q 0 848 0 817 q 22 903 0 880 q 77 926 45 926 q 132 903 109 926 q 154 848 154 880 q 132 794 154 817 q 77 771 109 771 m 77 926 q 22 948 45 926 q 0 1003 0 971 q 22 1057 0 1035 q 77 1080 45 1080 q 132 1057 109 1080 q 154 1003 154 1035 q 132 948 154 970 q 77 926 109 926 m 231 926 q 176 948 199 926 q 154 1003 154 971 q 176 1057 154 1035 q 231 1080 199 1080 q 286 1057 263 1080 q 309 1003 309 1035 q 286 948 309 970 q 231 926 263 926 m 385 926 q 331 948 353 926 q 309 1003 309 971 q 331 1057 309 1035 q 385 1080 353 1080 q 440 1057 418 1080 q 463 1003 463 1035 q 440 948 463 970 q 385 926 417 926 m 540 926 q 486 948 508 926 q 463 1003 463 971 q 486 1057 463 1035 q 540 1080 508 1080 q 594 1057 572 1080 q 617 1003 617 1035 q 594 948 617 970 q 540 926 572 926 m 694 926 q 640 948 662 926 q 617 1003 617 971 q 640 1057 617 1035 q 694 1080 662 1080 q 749 1057 726 1080 q 771 1003 771 1035 q 749 948 771 970 q 694 926 726 926 z "},"6":{"ha":926,"x_min":0,"x_max":771,"o":"m 231 0 q 176 22 199 0 q 154 77 154 45 q 176 132 154 109 q 231 154 199 154 q 286 132 263 154 q 309 77 309 109 q 286 22 309 45 q 231 0 263 0 m 385 0 q 331 22 353 0 q 309 77 309 45 q 331 132 309 109 q 385 154 353 154 q 440 132 418 154 q 463 77 463 109 q 440 22 463 45 q 385 0 417 0 m 540 0 q 486 22 508 0 q 463 77 463 45 q 486 132 463 109 q 540 154 508 154 q 594 132 572 154 q 617 77 617 109 q 594 22 617 45 q 540 0 572 0 m 77 154 q 22 176 45 154 q 0 231 0 199 q 22 286 0 263 q 77 309 45 309 q 132 286 109 309 q 154 231 154 263 q 132 176 154 199 q 77 154 109 154 m 694 154 q 640 176 662 154 q 617 231 617 199 q 640 286 617 263 q 694 309 662 309 q 749 286 726 309 q 771 231 771 263 q 749 176 771 199 q 694 154 726 154 m 77 309 q 22 331 45 309 q 0 385 0 353 q 22 440 0 418 q 77 463 45 463 q 132 440 109 463 q 154 385 154 417 q 132 331 154 353 q 77 309 109 309 m 694 309 q 640 331 662 309 q 617 385 617 353 q 640 440 617 418 q 694 463 662 463 q 749 440 726 463 q 771 385 771 417 q 749 331 771 353 q 694 309 726 309 m 77 463 q 22 486 45 463 q 0 540 0 508 q 22 594 0 572 q 77 617 45 617 q 132 594 109 617 q 154 540 154 572 q 132 486 154 508 q 77 463 109 463 m 231 463 q 176 486 199 463 q 154 540 154 508 q 176 594 154 572 q 231 617 199 617 q 286 594 263 617 q 309 540 309 572 q 286 486 309 508 q 231 463 263 463 m 385 463 q 331 486 353 463 q 309 540 309 508 q 331 594 309 572 q 385 617 353 617 q 440 594 418 617 q 463 540 463 572 q 440 486 463 508 q 385 463 417 463 m 540 463 q 486 486 508 463 q 463 540 463 508 q 486 594 463 572 q 540 617 508 617 q 594 594 572 617 q 617 540 617 572 q 594 486 617 508 q 540 463 572 463 m 77 617 q 22 640 45 617 q 0 694 0 662 q 22 749 0 726 q 77 771 45 771 q 132 749 109 771 q 154 694 154 726 q 132 640 154 662 q 77 617 109 617 m 231 771 q 176 794 199 771 q 154 848 154 817 q 176 903 154 880 q 231 926 199 926 q 286 903 263 926 q 309 848 309 880 q 286 794 309 817 q 231 771 263 771 m 385 926 q 331 948 353 926 q 309 1003 309 971 q 331 1057 309 1035 q 385 1080 353 1080 q 440 1057 418 1080 q 463 1003 463 1035 q 440 948 463 970 q 385 926 417 926 m 540 926 q 486 948 508 926 q 463 1003 463 971 q 486 1057 463 1035 q 540 1080 508 1080 q 594 1057 572 1080 q 617 1003 617 1035 q 594 948 617 970 q 540 926 572 926 m 694 926 q 640 948 662 926 q 617 1003 617 971 q 640 1057 617 1035 q 694 1080 662 1080 q 749 1057 726 1080 q 771 1003 771 1035 q 749 948 771 970 q 694 926 726 926 z "},"7":{"ha":926,"x_min":0,"x_max":771,"o":"m 231 0 q 176 22 199 0 q 154 77 154 45 q 176 132 154 109 q 231 154 199 154 q 286 132 263 154 q 309 77 309 109 q 286 22 309 45 q 231 0 263 0 m 231 154 q 176 176 199 154 q 154 231 154 199 q 176 286 154 263 q 231 309 199 309 q 286 286 263 309 q 309 231 309 263 q 286 176 309 199 q 231 154 263 154 m 231 309 q 176 331 199 309 q 154 385 154 353 q 176 440 154 418 q 231 463 199 463 q 286 440 263 463 q 309 385 309 417 q 286 331 309 353 q 231 309 263 309 m 385 463 q 331 486 353 463 q 309 540 309 508 q 331 594 309 572 q 385 617 353 617 q 440 594 418 617 q 463 540 463 572 q 440 486 463 508 q 385 463 417 463 m 540 617 q 486 640 508 617 q 463 694 463 662 q 486 749 463 726 q 540 771 508 771 q 594 749 572 771 q 617 694 617 726 q 594 640 617 662 q 540 617 572 617 m 694 771 q 640 794 662 771 q 617 848 617 817 q 640 903 617 880 q 694 926 662 926 q 749 903 726 926 q 771 848 771 880 q 749 794 771 817 q 694 771 726 771 m 77 926 q 22 948 45 926 q 0 1003 0 971 q 22 1057 0 1035 q 77 1080 45 1080 q 132 1057 109 1080 q 154 1003 154 1035 q 132 948 154 970 q 77 926 109 926 m 231 926 q 176 948 199 926 q 154 1003 154 971 q 176 1057 154 1035 q 231 1080 199 1080 q 286 1057 263 1080 q 309 1003 309 1035 q 286 948 309 970 q 231 926 263 926 m 385 926 q 331 948 353 926 q 309 1003 309 971 q 331 1057 309 1035 q 385 1080 353 1080 q 440 1057 418 1080 q 463 1003 463 1035 q 440 948 463 970 q 385 926 417 926 m 540 926 q 486 948 508 926 q 463 1003 463 971 q 486 1057 463 1035 q 540 1080 508 1080 q 594 1057 572 1080 q 617 1003 617 1035 q 594 948 617 970 q 540 926 572 926 m 694 926 q 640 948 662 926 q 617 1003 617 971 q 640 1057 617 1035 q 694 1080 662 1080 q 749 1057 726 1080 q 771 1003 771 1035 q 749 948 771 970 q 694 926 726 926 z "},"8":{"ha":926,"x_min":0,"x_max":771,"o":"m 231 0 q 176 22 199 0 q 154 77 154 45 q 176 132 154 109 q 231 154 199 154 q 286 132 263 154 q 309 77 309 109 q 286 22 309 45 q 231 0 263 0 m 385 0 q 331 22 353 0 q 309 77 309 45 q 331 132 309 109 q 385 154 353 154 q 440 132 418 154 q 463 77 463 109 q 440 22 463 45 q 385 0 417 0 m 540 0 q 486 22 508 0 q 463 77 463 45 q 486 132 463 109 q 540 154 508 154 q 594 132 572 154 q 617 77 617 109 q 594 22 617 45 q 540 0 572 0 m 77 154 q 22 176 45 154 q 0 231 0 199 q 22 286 0 263 q 77 309 45 309 q 132 286 109 309 q 154 231 154 263 q 132 176 154 199 q 77 154 109 154 m 694 154 q 640 176 662 154 q 617 231 617 199 q 640 286 617 263 q 694 309 662 309 q 749 286 726 309 q 771 231 771 263 q 749 176 771 199 q 694 154 726 154 m 77 309 q 22 331 45 309 q 0 385 0 353 q 22 440 0 418 q 77 463 45 463 q 132 440 109 463 q 154 385 154 417 q 132 331 154 353 q 77 309 109 309 m 694 309 q 640 331 662 309 q 617 385 617 353 q 640 440 617 418 q 694 463 662 463 q 749 440 726 463 q 771 385 771 417 q 749 331 771 353 q 694 309 726 309 m 231 463 q 176 486 199 463 q 154 540 154 508 q 176 594 154 572 q 231 617 199 617 q 286 594 263 617 q 309 540 309 572 q 286 486 309 508 q 231 463 263 463 m 385 463 q 331 486 353 463 q 309 540 309 508 q 331 594 309 572 q 385 617 353 617 q 440 594 418 617 q 463 540 463 572 q 440 486 463 508 q 385 463 417 463 m 540 463 q 486 486 508 463 q 463 540 463 508 q 486 594 463 572 q 540 617 508 617 q 594 594 572 617 q 617 540 617 572 q 594 486 617 508 q 540 463 572 463 m 77 617 q 22 640 45 617 q 0 694 0 662 q 22 749 0 726 q 77 771 45 771 q 132 749 109 771 q 154 694 154 726 q 132 640 154 662 q 77 617 109 617 m 694 617 q 640 640 662 617 q 617 694 617 662 q 640 749 617 726 q 694 771 662 771 q 749 749 726 771 q 771 694 771 726 q 749 640 771 662 q 694 617 726 617 m 77 771 q 22 794 45 771 q 0 848 0 817 q 22 903 0 880 q 77 926 45 926 q 132 903 109 926 q 154 848 154 880 q 132 794 154 817 q 77 771 109 771 m 694 771 q 640 794 662 771 q 617 848 617 817 q 640 903 617 880 q 694 926 662 926 q 749 903 726 926 q 771 848 771 880 q 749 794 771 817 q 694 771 726 771 m 231 926 q 176 948 199 926 q 154 1003 154 971 q 176 1057 154 1035 q 231 1080 199 1080 q 286 1057 263 1080 q 309 1003 309 1035 q 286 948 309 970 q 231 926 263 926 m 385 926 q 331 948 353 926 q 309 1003 309 971 q 331 1057 309 1035 q 385 1080 353 1080 q 440 1057 418 1080 q 463 1003 463 1035 q 440 948 463 970 q 385 926 417 926 m 540 926 q 486 948 508 926 q 463 1003 463 971 q 486 1057 463 1035 q 540 1080 508 1080 q 594 1057 572 1080 q 617 1003 617 1035 q 594 948 617 970 q 540 926 572 926 z "},"9":{"ha":926,"x_min":0,"x_max":771,"o":"m 231 0 q 176 22 199 0 q 154 77 154 45 q 176 132 154 109 q 231 154 199 154 q 286 132 263 154 q 309 77 309 109 q 286 22 309 45 q 231 0 263 0 m 385 0 q 331 22 353 0 q 309 77 309 45 q 331 132 309 109 q 385 154 353 154 q 440 132 418 154 q 463 77 463 109 q 440 22 463 45 q 385 0 417 0 m 540 154 q 486 176 508 154 q 463 231 463 199 q 486 286 463 263 q 540 309 508 309 q 594 286 572 309 q 617 231 617 263 q 594 176 617 199 q 540 154 572 154 m 694 309 q 640 331 662 309 q 617 385 617 353 q 640 440 617 418 q 694 463 662 463 q 749 440 726 463 q 771 385 771 417 q 749 331 771 353 q 694 309 726 309 m 231 463 q 176 486 199 463 q 154 540 154 508 q 176 594 154 572 q 231 617 199 617 q 286 594 263 617 q 309 540 309 572 q 286 486 309 508 q 231 463 263 463 m 385 463 q 331 486 353 463 q 309 540 309 508 q 331 594 309 572 q 385 617 353 617 q 440 594 418 617 q 463 540 463 572 q 440 486 463 508 q 385 463 417 463 m 540 463 q 486 486 508 463 q 463 540 463 508 q 486 594 463 572 q 540 617 508 617 q 594 594 572 617 q 617 540 617 572 q 594 486 617 508 q 540 463 572 463 m 694 463 q 640 486 662 463 q 617 540 617 508 q 640 594 617 572 q 694 617 662 617 q 749 594 726 617 q 771 540 771 572 q 749 486 771 508 q 694 463 726 463 m 77 617 q 22 640 45 617 q 0 694 0 662 q 22 749 0 726 q 77 771 45 771 q 132 749 109 771 q 154 694 154 726 q 132 640 154 662 q 77 617 109 617 m 694 617 q 640 640 662 617 q 617 694 617 662 q 640 749 617 726 q 694 771 662 771 q 749 749 726 771 q 771 694 771 726 q 749 640 771 662 q 694 617 726 617 m 77 771 q 22 794 45 771 q 0 848 0 817 q 22 903 0 880 q 77 926 45 926 q 132 903 109 926 q 154 848 154 880 q 132 794 154 817 q 77 771 109 771 m 694 771 q 640 794 662 771 q 617 848 617 817 q 640 903 617 880 q 694 926 662 926 q 749 903 726 926 q 771 848 771 880 q 749 794 771 817 q 694 771 726 771 m 231 926 q 176 948 199 926 q 154 1003 154 971 q 176 1057 154 1035 q 231 1080 199 1080 q 286 1057 263 1080 q 309 1003 309 1035 q 286 948 309 970 q 231 926 263 926 m 385 926 q 331 948 353 926 q 309 1003 309 971 q 331 1057 309 1035 q 385 1080 353 1080 q 440 1057 418 1080 q 463 1003 463 1035 q 440 948 463 970 q 385 926 417 926 m 540 926 q 486 948 508 926 q 463 1003 463 971 q 486 1057 463 1035 q 540 1080 508 1080 q 594 1057 572 1080 q 617 1003 617 1035 q 594 948 617 970 q 540 926 572 926 z "}," ":{"ha":694,"x_min":0,"x_max":0,"o":""},"!":{"ha":463,"x_min":154,"x_max":309,"o":"m 231 0 q 176 22 199 0 q 154 77 154 45 q 176 132 154 109 q 231 154 199 154 q 286 132 263 154 q 309 77 309 109 q 286 22 309 45 q 231 0 263 0 m 231 154 q 176 176 199 154 q 154 231 154 199 q 176 286 154 263 q 231 309 199 309 q 286 286 263 309 q 309 231 309 263 q 286 176 309 199 q 231 154 263 154 m 231 463 q 176 486 199 463 q 154 540 154 508 q 176 594 154 572 q 231 617 199 617 q 286 594 263 617 q 309 540 309 572 q 286 486 309 508 q 231 463 263 463 m 231 617 q 176 640 199 617 q 154 694 154 662 q 176 749 154 726 q 231 771 199 771 q 286 749 263 771 q 309 694 309 726 q 286 640 309 662 q 231 617 263 617 m 231 771 q 176 794 199 771 q 154 848 154 817 q 176 903 154 880 q 231 926 199 926 q 286 903 263 926 q 309 848 309 880 q 286 794 309 817 q 231 771 263 771 m 231 926 q 176 948 199 926 q 154 1003 154 971 q 176 1057 154 1035 q 231 1080 199 1080 q 286 1057 263 1080 q 309 1003 309 1035 q 286 948 309 970 q 231 926 263 926 z "},"\"":{"ha":463,"x_min":0,"x_max":309,"o":"m 77 771 q 22 794 45 771 q 0 848 0 817 q 22 903 0 880 q 77 926 45 926 q 132 903 109 926 q 154 848 154 880 q 132 794 154 817 q 77 771 109 771 m 231 771 q 176 794 199 771 q 154 848 154 817 q 176 903 154 880 q 231 926 199 926 q 286 903 263 926 q 309 848 309 880 q 286 794 309 817 q 231 771 263 771 m 77 926 q 22 948 45 926 q 0 1003 0 971 q 22 1057 0 1035 q 77 1080 45 1080 q 132 1057 109 1080 q 154 1003 154 1035 q 132 948 154 970 q 77 926 109 926 m 231 926 q 176 948 199 926 q 154 1003 154 971 q 176 1057 154 1035 q 231 1080 199 1080 q 286 1057 263 1080 q 309 1003 309 1035 q 286 948 309 970 q 231 926 263 926 m 77 1080 q 22 1103 45 1080 q 0 1157 0 1125 q 22 1212 0 1189 q 77 1234 45 1234 q 132 1212 109 1234 q 154 1157 154 1189 q 132 1103 154 1125 q 77 1080 109 1080 m 231 1080 q 176 1103 199 1080 q 154 1157 154 1125 q 176 1212 154 1189 q 231 1234 199 1234 q 286 1212 263 1234 q 309 1157 309 1189 q 286 1103 309 1125 q 231 1080 263 1080 z "},"#":{"ha":926,"x_min":0,"x_max":771,"o":"m 231 0 q 176 22 199 0 q 154 77 154 45 q 176 132 154 109 q 231 154 199 154 q 286 132 263 154 q 309 77 309 109 q 286 22 309 45 q 231 0 263 0 m 540 0 q 486 22 508 0 q 463 77 463 45 q 486 132 463 109 q 540 154 508 154 q 594 132 572 154 q 617 77 617 109 q 594 22 617 45 q 540 0 572 0 m 231 154 q 176 176 199 154 q 154 231 154 199 q 176 286 154 263 q 231 309 199 309 q 286 286 263 309 q 309 231 309 263 q 286 176 309 199 q 231 154 263 154 m 540 154 q 486 176 508 154 q 463 231 463 199 q 486 286 463 263 q 540 309 508 309 q 594 286 572 309 q 617 231 617 263 q 594 176 617 199 q 540 154 572 154 m 77 309 q 22 331 45 309 q 0 385 0 353 q 22 440 0 418 q 77 463 45 463 q 132 440 109 463 q 154 385 154 417 q 132 331 154 353 q 77 309 109 309 m 231 309 q 176 331 199 309 q 154 385 154 353 q 176 440 154 418 q 231 463 199 463 q 286 440 263 463 q 309 385 309 417 q 286 331 309 353 q 231 309 263 309 m 385 309 q 331 331 353 309 q 309 385 309 353 q 331 440 309 418 q 385 463 353 463 q 440 440 418 463 q 463 385 463 417 q 440 331 463 353 q 385 309 417 309 m 540 309 q 486 331 508 309 q 463 385 463 353 q 486 440 463 418 q 540 463 508 463 q 594 440 572 463 q 617 385 617 417 q 594 331 617 353 q 540 309 572 309 m 694 309 q 640 331 662 309 q 617 385 617 353 q 640 440 617 418 q 694 463 662 463 q 749 440 726 463 q 771 385 771 417 q 749 331 771 353 q 694 309 726 309 m 231 463 q 176 486 199 463 q 154 540 154 508 q 176 594 154 572 q 231 617 199 617 q 286 594 263 617 q 309 540 309 572 q 286 486 309 508 q 231 463 263 463 m 540 463 q 486 486 508 463 q 463 540 463 508 q 486 594 463 572 q 540 617 508 617 q 594 594 572 617 q 617 540 617 572 q 594 486 617 508 q 540 463 572 463 m 77 617 q 22 640 45 617 q 0 694 0 662 q 22 749 0 726 q 77 771 45 771 q 132 749 109 771 q 154 694 154 726 q 132 640 154 662 q 77 617 109 617 m 231 617 q 176 640 199 617 q 154 694 154 662 q 176 749 154 726 q 231 771 199 771 q 286 749 263 771 q 309 694 309 726 q 286 640 309 662 q 231 617 263 617 m 385 617 q 331 640 353 617 q 309 694 309 662 q 331 749 309 726 q 385 771 353 771 q 440 749 418 771 q 463 694 463 726 q 440 640 463 662 q 385 617 417 617 m 540 617 q 486 640 508 617 q 463 694 463 662 q 486 749 463 726 q 540 771 508 771 q 594 749 572 771 q 617 694 617 726 q 594 640 617 662 q 540 617 572 617 m 694 617 q 640 640 662 617 q 617 694 617 662 q 640 749 617 726 q 694 771 662 771 q 749 749 726 771 q 771 694 771 726 q 749 640 771 662 q 694 617 726 617 m 231 771 q 176 794 199 771 q 154 848 154 817 q 176 903 154 880 q 231 926 199 926 q 286 903 263 926 q 309 848 309 880 q 286 794 309 817 q 231 771 263 771 m 540 771 q 486 794 508 771 q 463 848 463 817 q 486 903 463 880 q 540 926 508 926 q 594 903 572 926 q 617 848 617 880 q 594 794 617 817 q 540 771 572 771 m 231 926 q 176 948 199 926 q 154 1003 154 971 q 176 1057 154 1035 q 231 1080 199 1080 q 286 1057 263 1080 q 309 1003 309 1035 q 286 948 309 970 q 231 926 263 926 m 540 926 q 486 948 508 926 q 463 1003 463 971 q 486 1057 463 1035 q 540 1080 508 1080 q 594 1057 572 1080 q 617 1003 617 1035 q 594 948 617 970 q 540 926 572 926 z "},"$":{"ha":926,"x_min":0,"x_max":771,"o":"m 385 -154 q 331 -132 353 -154 q 309 -77 309 -109 q 331 -22 309 -45 q 385 0 353 0 q 440 -22 418 0 q 463 -77 463 -45 q 440 -132 463 -109 q 385 -154 417 -154 m 231 0 q 176 22 199 0 q 154 77 154 45 q 176 132 154 109 q 231 154 199 154 q 286 132 263 154 q 309 77 309 109 q 286 22 309 45 q 231 0 263 0 m 385 0 q 331 22 353 0 q 309 77 309 45 q 331 132 309 109 q 385 154 353 154 q 440 132 418 154 q 463 77 463 109 q 440 22 463 45 q 385 0 417 0 m 540 0 q 486 22 508 0 q 463 77 463 45 q 486 132 463 109 q 540 154 508 154 q 594 132 572 154 q 617 77 617 109 q 594 22 617 45 q 540 0 572 0 m 77 77 q 22 100 45 77 q 0 154 0 122 q 22 208 0 186 q 77 231 45 231 q 132 208 109 231 q 154 154 154 186 q 132 100 154 122 q 77 77 109 77 m 385 154 q 331 176 353 154 q 309 231 309 199 q 331 286 309 263 q 385 309 353 309 q 440 286 418 309 q 463 231 463 263 q 440 176 463 199 q 385 154 417 154 m 694 154 q 640 176 662 154 q 617 231 617 199 q 640 286 617 263 q 694 309 662 309 q 749 286 726 309 q 771 231 771 263 q 749 176 771 199 q 694 154 726 154 m 385 309 q 331 331 353 309 q 309 385 309 353 q 331 440 309 418 q 385 463 353 463 q 440 440 418 463 q 463 385 463 417 q 440 331 463 353 q 385 309 417 309 m 694 309 q 640 331 662 309 q 617 385 617 353 q 640 440 617 418 q 694 463 662 463 q 749 440 726 463 q 771 385 771 417 q 749 331 771 353 q 694 309 726 309 m 231 463 q 176 486 199 463 q 154 540 154 508 q 176 594 154 572 q 231 617 199 617 q 286 594 263 617 q 309 540 309 572 q 286 486 309 508 q 231 463 263 463 m 385 463 q 331 486 353 463 q 309 540 309 508 q 331 594 309 572 q 385 617 353 617 q 440 594 418 617 q 463 540 463 572 q 440 486 463 508 q 385 463 417 463 m 540 463 q 486 486 508 463 q 463 540 463 508 q 486 594 463 572 q 540 617 508 617 q 594 594 572 617 q 617 540 617 572 q 594 486 617 508 q 540 463 572 463 m 77 617 q 22 640 45 617 q 0 694 0 662 q 22 749 0 726 q 77 771 45 771 q 132 749 109 771 q 154 694 154 726 q 132 640 154 662 q 77 617 109 617 m 385 617 q 331 640 353 617 q 309 694 309 662 q 331 749 309 726 q 385 771 353 771 q 440 749 418 771 q 463 694 463 726 q 440 640 463 662 q 385 617 417 617 m 77 771 q 22 794 45 771 q 0 848 0 817 q 22 903 0 880 q 77 926 45 926 q 132 903 109 926 q 154 848 154 880 q 132 794 154 817 q 77 771 109 771 m 385 771 q 331 794 353 771 q 309 848 309 817 q 331 903 309 880 q 385 926 353 926 q 440 903 418 926 q 463 848 463 880 q 440 794 463 817 q 385 771 417 771 m 694 771 q 640 794 662 771 q 617 848 617 817 q 640 903 617 880 q 694 926 662 926 q 749 903 726 926 q 771 848 771 880 q 749 794 771 817 q 694 771 726 771 m 231 926 q 176 948 199 926 q 154 1003 154 971 q 176 1057 154 1035 q 231 1080 199 1080 q 286 1057 263 1080 q 309 1003 309 1035 q 286 948 309 970 q 231 926 263 926 m 385 926 q 331 948 353 926 q 309 1003 309 971 q 331 1057 309 1035 q 385 1080 353 1080 q 440 1057 418 1080 q 463 1003 463 1035 q 440 948 463 970 q 385 926 417 926 m 540 926 q 486 948 508 926 q 463 1003 463 971 q 486 1057 463 1035 q 540 1080 508 1080 q 594 1057 572 1080 q 617 1003 617 1035 q 594 948 617 970 q 540 926 572 926 m 385 1080 q 331 1103 353 1080 q 309 1157 309 1125 q 331 1212 309 1189 q 385 1234 353 1234 q 440 1212 418 1234 q 463 1157 463 1189 q 440 1103 463 1125 q 385 1080 417 1080 z "},"%":{"ha":1543,"x_min":0,"x_max":1389,"o":"m 231 0 q 176 22 199 0 q 154 77 154 45 q 176 132 154 109 q 231 154 199 154 q 286 132 263 154 q 309 77 309 109 q 286 22 309 45 q 231 0 263 0 m 1003 0 q 948 22 970 0 q 926 77 926 45 q 948 132 926 109 q 1003 154 971 154 q 1057 132 1035 154 q 1080 77 1080 109 q 1057 22 1080 45 q 1003 0 1035 0 m 1157 0 q 1103 22 1125 0 q 1080 77 1080 45 q 1103 132 1080 109 q 1157 154 1125 154 q 1212 132 1189 154 q 1234 77 1234 109 q 1212 22 1234 45 q 1157 0 1189 0 m 385 154 q 331 176 353 154 q 309 231 309 199 q 331 286 309 263 q 385 309 353 309 q 440 286 418 309 q 463 231 463 263 q 440 176 463 199 q 385 154 417 154 m 848 154 q 794 176 817 154 q 771 231 771 199 q 794 286 771 263 q 848 309 817 309 q 903 286 880 309 q 926 231 926 263 q 903 176 926 199 q 848 154 880 154 m 1312 154 q 1257 176 1280 154 q 1234 231 1234 199 q 1257 286 1234 263 q 1312 309 1280 309 q 1366 286 1343 309 q 1389 231 1389 263 q 1366 176 1389 199 q 1312 154 1343 154 m 540 309 q 486 331 508 309 q 463 385 463 353 q 486 440 463 418 q 540 463 508 463 q 594 440 572 463 q 617 385 617 417 q 594 331 617 353 q 540 309 572 309 m 848 309 q 794 331 817 309 q 771 385 771 353 q 794 440 771 418 q 848 463 817 463 q 903 440 880 463 q 926 385 926 417 q 903 331 926 353 q 848 309 880 309 m 1312 309 q 1257 331 1280 309 q 1234 385 1234 353 q 1257 440 1234 418 q 1312 463 1280 463 q 1366 440 1343 463 q 1389 385 1389 417 q 1366 331 1389 353 q 1312 309 1343 309 m 231 463 q 176 486 199 463 q 154 540 154 508 q 176 594 154 572 q 231 617 199 617 q 286 594 263 617 q 309 540 309 572 q 286 486 309 508 q 231 463 263 463 m 385 463 q 331 486 353 463 q 309 540 309 508 q 331 594 309 572 q 385 617 353 617 q 440 594 418 617 q 463 540 463 572 q 440 486 463 508 q 385 463 417 463 m 694 463 q 640 486 662 463 q 617 540 617 508 q 640 594 617 572 q 694 617 662 617 q 749 594 726 617 q 771 540 771 572 q 749 486 771 508 q 694 463 726 463 m 1003 463 q 948 486 970 463 q 926 540 926 508 q 948 594 926 572 q 1003 617 971 617 q 1057 594 1035 617 q 1080 540 1080 572 q 1057 486 1080 508 q 1003 463 1035 463 m 1157 463 q 1103 486 1125 463 q 1080 540 1080 508 q 1103 594 1080 572 q 1157 617 1125 617 q 1212 594 1189 617 q 1234 540 1234 572 q 1212 486 1234 508 q 1157 463 1189 463 m 77 617 q 22 640 45 617 q 0 694 0 662 q 22 749 0 726 q 77 771 45 771 q 132 749 109 771 q 154 694 154 726 q 132 640 154 662 q 77 617 109 617 m 540 617 q 486 640 508 617 q 463 694 463 662 q 486 749 463 726 q 540 771 508 771 q 594 749 572 771 q 617 694 617 726 q 594 640 617 662 q 540 617 572 617 m 848 617 q 794 640 817 617 q 771 694 771 662 q 794 749 771 726 q 848 771 817 771 q 903 749 880 771 q 926 694 926 726 q 903 640 926 662 q 848 617 880 617 m 77 771 q 22 794 45 771 q 0 848 0 817 q 22 903 0 880 q 77 926 45 926 q 132 903 109 926 q 154 848 154 880 q 132 794 154 817 q 77 771 109 771 m 540 771 q 486 794 508 771 q 463 848 463 817 q 486 903 463 880 q 540 926 508 926 q 594 903 572 926 q 617 848 617 880 q 594 794 617 817 q 540 771 572 771 m 1003 771 q 948 794 970 771 q 926 848 926 817 q 948 903 926 880 q 1003 926 971 926 q 1057 903 1035 926 q 1080 848 1080 880 q 1057 794 1080 817 q 1003 771 1035 771 m 231 926 q 176 948 199 926 q 154 1003 154 971 q 176 1057 154 1035 q 231 1080 199 1080 q 286 1057 263 1080 q 309 1003 309 1035 q 286 948 309 970 q 231 926 263 926 m 385 926 q 331 948 353 926 q 309 1003 309 971 q 331 1057 309 1035 q 385 1080 353 1080 q 440 1057 418 1080 q 463 1003 463 1035 q 440 948 463 970 q 385 926 417 926 m 1157 926 q 1103 948 1125 926 q 1080 1003 1080 971 q 1103 1057 1080 1035 q 1157 1080 1125 1080 q 1212 1057 1189 1080 q 1234 1003 1234 1035 q 1212 948 1234 970 q 1157 926 1189 926 z "},"&":{"ha":1080,"x_min":0,"x_max":926,"o":"m 231 0 q 176 22 199 0 q 154 77 154 45 q 176 132 154 109 q 231 154 199 154 q 286 132 263 154 q 309 77 309 109 q 286 22 309 45 q 231 0 263 0 m 385 0 q 331 22 353 0 q 309 77 309 45 q 331 132 309 109 q 385 154 353 154 q 440 132 418 154 q 463 77 463 109 q 440 22 463 45 q 385 0 417 0 m 540 0 q 486 22 508 0 q 463 77 463 45 q 486 132 463 109 q 540 154 508 154 q 594 132 572 154 q 617 77 617 109 q 594 22 617 45 q 540 0 572 0 m 848 0 q 794 22 817 0 q 771 77 771 45 q 794 132 771 109 q 848 154 817 154 q 903 132 880 154 q 926 77 926 109 q 903 22 926 45 q 848 0 880 0 m 77 154 q 22 176 45 154 q 0 231 0 199 q 22 286 0 263 q 77 309 45 309 q 132 286 109 309 q 154 231 154 263 q 132 176 154 199 q 77 154 109 154 m 694 154 q 640 176 662 154 q 617 231 617 199 q 640 286 617 263 q 694 309 662 309 q 749 286 726 309 q 771 231 771 263 q 749 176 771 199 q 694 154 726 154 m 77 309 q 22 331 45 309 q 0 385 0 353 q 22 440 0 418 q 77 463 45 463 q 132 440 109 463 q 154 385 154 417 q 132 331 154 353 q 77 309 109 309 m 540 309 q 486 331 508 309 q 463 385 463 353 q 486 440 463 418 q 540 463 508 463 q 594 440 572 463 q 617 385 617 417 q 594 331 617 353 q 540 309 572 309 m 848 309 q 794 331 817 309 q 771 385 771 353 q 794 440 771 418 q 848 463 817 463 q 903 440 880 463 q 926 385 926 417 q 903 331 926 353 q 848 309 880 309 m 231 463 q 176 486 199 463 q 154 540 154 508 q 176 594 154 572 q 231 617 199 617 q 286 594 263 617 q 309 540 309 572 q 286 486 309 508 q 231 463 263 463 m 385 463 q 331 486 353 463 q 309 540 309 508 q 331 594 309 572 q 385 617 353 617 q 440 594 418 617 q 463 540 463 572 q 440 486 463 508 q 385 463 417 463 m 77 617 q 22 640 45 617 q 0 694 0 662 q 22 749 0 726 q 77 771 45 771 q 132 749 109 771 q 154 694 154 726 q 132 640 154 662 q 77 617 109 617 m 540 617 q 486 640 508 617 q 463 694 463 662 q 486 749 463 726 q 540 771 508 771 q 594 749 572 771 q 617 694 617 726 q 594 640 617 662 q 540 617 572 617 m 77 771 q 22 794 45 771 q 0 848 0 817 q 22 903 0 880 q 77 926 45 926 q 132 903 109 926 q 154 848 154 880 q 132 794 154 817 q 77 771 109 771 m 540 771 q 486 794 508 771 q 463 848 463 817 q 486 903 463 880 q 540 926 508 926 q 594 903 572 926 q 617 848 617 880 q 594 794 617 817 q 540 771 572 771 m 231 926 q 176 948 199 926 q 154 1003 154 971 q 176 1057 154 1035 q 231 1080 199 1080 q 286 1057 263 1080 q 309 1003 309 1035 q 286 948 309 970 q 231 926 263 926 m 385 926 q 331 948 353 926 q 309 1003 309 971 q 331 1057 309 1035 q 385 1080 353 1080 q 440 1057 418 1080 q 463 1003 463 1035 q 440 948 463 970 q 385 926 417 926 z "},"'":{"ha":463,"x_min":0,"x_max":309,"o":"m 77 771 q 22 794 45 771 q 0 848 0 817 q 22 903 0 880 q 77 926 45 926 q 132 903 109 926 q 154 848 154 880 q 132 794 154 817 q 77 771 109 771 m 231 926 q 176 948 199 926 q 154 1003 154 971 q 176 1057 154 1035 q 231 1080 199 1080 q 286 1057 263 1080 q 309 1003 309 1035 q 286 948 309 970 q 231 926 263 926 m 231 1080 q 176 1103 199 1080 q 154 1157 154 1125 q 176 1212 154 1189 q 231 1234 199 1234 q 286 1212 263 1234 q 309 1157 309 1189 q 286 1103 309 1125 q 231 1080 263 1080 z "},"(":{"ha":617,"x_min":0,"x_max":463,"o":"m 231 0 q 176 22 199 0 q 154 77 154 45 q 176 132 154 109 q 231 154 199 154 q 286 132 263 154 q 309 77 309 109 q 286 22 309 45 q 231 0 263 0 m 385 0 q 331 22 353 0 q 309 77 309 45 q 331 132 309 109 q 385 154 353 154 q 440 132 418 154 q 463 77 463 109 q 440 22 463 45 q 385 0 417 0 m 77 154 q 22 176 45 154 q 0 231 0 199 q 22 286 0 263 q 77 309 45 309 q 132 286 109 309 q 154 231 154 263 q 132 176 154 199 q 77 154 109 154 m 77 309 q 22 331 45 309 q 0 385 0 353 q 22 440 0 418 q 77 463 45 463 q 132 440 109 463 q 154 385 154 417 q 132 331 154 353 q 77 309 109 309 m 77 463 q 22 486 45 463 q 0 540 0 508 q 22 594 0 572 q 77 617 45 617 q 132 594 109 617 q 154 540 154 572 q 132 486 154 508 q 77 463 109 463 m 77 617 q 22 640 45 617 q 0 694 0 662 q 22 749 0 726 q 77 771 45 771 q 132 749 109 771 q 154 694 154 726 q 132 640 154 662 q 77 617 109 617 m 77 771 q 22 794 45 771 q 0 848 0 817 q 22 903 0 880 q 77 926 45 926 q 132 903 109 926 q 154 848 154 880 q 132 794 154 817 q 77 771 109 771 m 231 926 q 176 948 199 926 q 154 1003 154 971 q 176 1057 154 1035 q 231 1080 199 1080 q 286 1057 263 1080 q 309 1003 309 1035 q 286 948 309 970 q 231 926 263 926 m 385 926 q 331 948 353 926 q 309 1003 309 971 q 331 1057 309 1035 q 385 1080 353 1080 q 440 1057 418 1080 q 463 1003 463 1035 q 440 948 463 970 q 385 926 417 926 z "},")":{"ha":617,"x_min":0,"x_max":463,"o":"m 77 0 q 22 22 45 0 q 0 77 0 45 q 22 132 0 109 q 77 154 45 154 q 132 132 109 154 q 154 77 154 109 q 132 22 154 45 q 77 0 109 0 m 231 0 q 176 22 199 0 q 154 77 154 45 q 176 132 154 109 q 231 154 199 154 q 286 132 263 154 q 309 77 309 109 q 286 22 309 45 q 231 0 263 0 m 385 154 q 331 176 353 154 q 309 231 309 199 q 331 286 309 263 q 385 309 353 309 q 440 286 418 309 q 463 231 463 263 q 440 176 463 199 q 385 154 417 154 m 385 309 q 331 331 353 309 q 309 385 309 353 q 331 440 309 418 q 385 463 353 463 q 440 440 418 463 q 463 385 463 417 q 440 331 463 353 q 385 309 417 309 m 385 463 q 331 486 353 463 q 309 540 309 508 q 331 594 309 572 q 385 617 353 617 q 440 594 418 617 q 463 540 463 572 q 440 486 463 508 q 385 463 417 463 m 385 617 q 331 640 353 617 q 309 694 309 662 q 331 749 309 726 q 385 771 353 771 q 440 749 418 771 q 463 694 463 726 q 440 640 463 662 q 385 617 417 617 m 385 771 q 331 794 353 771 q 309 848 309 817 q 331 903 309 880 q 385 926 353 926 q 440 903 418 926 q 463 848 463 880 q 440 794 463 817 q 385 771 417 771 m 77 926 q 22 948 45 926 q 0 1003 0 971 q 22 1057 0 1035 q 77 1080 45 1080 q 132 1057 109 1080 q 154 1003 154 1035 q 132 948 154 970 q 77 926 109 926 m 231 926 q 176 948 199 926 q 154 1003 154 971 q 176 1057 154 1035 q 231 1080 199 1080 q 286 1057 263 1080 q 309 1003 309 1035 q 286 948 309 970 q 231 926 263 926 z "},"*":{"ha":617,"x_min":0,"x_max":463,"o":"m 231 617 q 176 640 199 617 q 154 694 154 662 q 176 749 154 726 q 231 771 199 771 q 286 749 263 771 q 309 694 309 726 q 286 640 309 662 q 231 617 263 617 m 77 771 q 22 794 45 771 q 0 848 0 817 q 22 903 0 880 q 77 926 45 926 q 132 903 109 926 q 154 848 154 880 q 132 794 154 817 q 77 771 109 771 m 231 771 q 176 794 199 771 q 154 848 154 817 q 176 903 154 880 q 231 926 199 926 q 286 903 263 926 q 309 848 309 880 q 286 794 309 817 q 231 771 263 771 m 385 771 q 331 794 353 771 q 309 848 309 817 q 331 903 309 880 q 385 926 353 926 q 440 903 418 926 q 463 848 463 880 q 440 794 463 817 q 385 771 417 771 m 231 926 q 176 948 199 926 q 154 1003 154 971 q 176 1057 154 1035 q 231 1080 199 1080 q 286 1057 263 1080 q 309 1003 309 1035 q 286 948 309 970 q 231 926 263 926 z "},"+":{"ha":926,"x_min":0,"x_max":771,"o":"m 385 154 q 331 176 353 154 q 309 231 309 199 q 331 286 309 263 q 385 309 353 309 q 440 286 418 309 q 463 231 463 263 q 440 176 463 199 q 385 154 417 154 m 385 309 q 331 331 353 309 q 309 385 309 353 q 331 440 309 418 q 385 463 353 463 q 440 440 418 463 q 463 385 463 417 q 440 331 463 353 q 385 309 417 309 m 77 463 q 22 486 45 463 q 0 540 0 508 q 22 594 0 572 q 77 617 45 617 q 132 594 109 617 q 154 540 154 572 q 132 486 154 508 q 77 463 109 463 m 231 463 q 176 486 199 463 q 154 540 154 508 q 176 594 154 572 q 231 617 199 617 q 286 594 263 617 q 309 540 309 572 q 286 486 309 508 q 231 463 263 463 m 385 463 q 331 486 353 463 q 309 540 309 508 q 331 594 309 572 q 385 617 353 617 q 440 594 418 617 q 463 540 463 572 q 440 486 463 508 q 385 463 417 463 m 540 463 q 486 486 508 463 q 463 540 463 508 q 486 594 463 572 q 540 617 508 617 q 594 594 572 617 q 617 540 617 572 q 594 486 617 508 q 540 463 572 463 m 694 463 q 640 486 662 463 q 617 540 617 508 q 640 594 617 572 q 694 617 662 617 q 749 594 726 617 q 771 540 771 572 q 749 486 771 508 q 694 463 726 463 m 385 617 q 331 640 353 617 q 309 694 309 662 q 331 749 309 726 q 385 771 353 771 q 440 749 418 771 q 463 694 463 726 q 440 640 463 662 q 385 617 417 617 m 385 771 q 331 794 353 771 q 309 848 309 817 q 331 903 309 880 q 385 926 353 926 q 440 903 418 926 q 463 848 463 880 q 440 794 463 817 q 385 771 417 771 z "},",":{"ha":463,"x_min":0,"x_max":309,"o":"m 77 -154 q 22 -132 45 -154 q 0 -77 0 -109 q 22 -22 0 -45 q 77 0 45 0 q 132 -22 109 0 q 154 -77 154 -45 q 132 -132 154 -109 q 77 -154 109 -154 m 231 0 q 176 22 199 0 q 154 77 154 45 q 176 132 154 109 q 231 154 199 154 q 286 132 263 154 q 309 77 309 109 q 286 22 309 45 q 231 0 263 0 z "},"-":{"ha":617,"x_min":0,"x_max":463,"o":"m 77 463 q 22 486 45 463 q 0 540 0 508 q 22 594 0 572 q 77 617 45 617 q 132 594 109 617 q 154 540 154 572 q 132 486 154 508 q 77 463 109 463 m 231 463 q 176 486 199 463 q 154 540 154 508 q 176 594 154 572 q 231 617 199 617 q 286 594 263 617 q 309 540 309 572 q 286 486 309 508 q 231 463 263 463 m 385 463 q 331 486 353 463 q 309 540 309 508 q 331 594 309 572 q 385 617 353 617 q 440 594 418 617 q 463 540 463 572 q 440 486 463 508 q 385 463 417 463 z "},".":{"ha":463,"x_min":0,"x_max":309,"o":"m 77 0 q 22 22 45 0 q 0 77 0 45 q 22 132 0 109 q 77 154 45 154 q 132 132 109 154 q 154 77 154 109 q 132 22 154 45 q 77 0 109 0 m 231 0 q 176 22 199 0 q 154 77 154 45 q 176 132 154 109 q 231 154 199 154 q 286 132 263 154 q 309 77 309 109 q 286 22 309 45 q 231 0 263 0 m 77 154 q 22 176 45 154 q 0 231 0 199 q 22 286 0 263 q 77 309 45 309 q 132 286 109 309 q 154 231 154 263 q 132 176 154 199 q 77 154 109 154 m 231 154 q 176 176 199 154 q 154 231 154 199 q 176 286 154 263 q 231 309 199 309 q 286 286 263 309 q 309 231 309 263 q 286 176 309 199 q 231 154 263 154 z "},"/":{"ha":926,"x_min":0,"x_max":771,"o":"m 77 0 q 22 22 45 0 q 0 77 0 45 q 22 132 0 109 q 77 154 45 154 q 132 132 109 154 q 154 77 154 109 q 132 22 154 45 q 77 0 109 0 m 231 231 q 176 254 199 231 q 154 309 154 277 q 176 363 154 340 q 231 385 199 385 q 286 363 263 385 q 309 309 309 340 q 286 254 309 276 q 231 231 263 231 m 385 463 q 331 486 353 463 q 309 540 309 508 q 331 594 309 572 q 385 617 353 617 q 440 594 418 617 q 463 540 463 572 q 440 486 463 508 q 385 463 417 463 m 540 694 q 486 717 508 694 q 463 771 463 739 q 486 826 463 803 q 540 848 508 848 q 594 826 572 848 q 617 771 617 803 q 594 717 617 739 q 540 694 572 694 m 694 926 q 640 948 662 926 q 617 1003 617 971 q 640 1057 617 1035 q 694 1080 662 1080 q 749 1057 726 1080 q 771 1003 771 1035 q 749 948 771 970 q 694 926 726 926 z "},":":{"ha":309,"x_min":0,"x_max":154,"o":"m 77 0 q 22 22 45 0 q 0 77 0 45 q 22 132 0 109 q 77 154 45 154 q 132 132 109 154 q 154 77 154 109 q 132 22 154 45 q 77 0 109 0 m 77 154 q 22 176 45 154 q 0 231 0 199 q 22 286 0 263 q 77 309 45 309 q 132 286 109 309 q 154 231 154 263 q 132 176 154 199 q 77 154 109 154 m 77 463 q 22 486 45 463 q 0 540 0 508 q 22 594 0 572 q 77 617 45 617 q 132 594 109 617 q 154 540 154 572 q 132 486 154 508 q 77 463 109 463 m 77 617 q 22 640 45 617 q 0 694 0 662 q 22 749 0 726 q 77 771 45 771 q 132 749 109 771 q 154 694 154 726 q 132 640 154 662 q 77 617 109 617 z "},";":{"ha":463,"x_min":0,"x_max":309,"o":"m 77 -154 q 22 -132 45 -154 q 0 -77 0 -109 q 22 -22 0 -45 q 77 0 45 0 q 132 -22 109 0 q 154 -77 154 -45 q 132 -132 154 -109 q 77 -154 109 -154 m 231 0 q 176 22 199 0 q 154 77 154 45 q 176 132 154 109 q 231 154 199 154 q 286 132 263 154 q 309 77 309 109 q 286 22 309 45 q 231 0 263 0 m 231 154 q 176 176 199 154 q 154 231 154 199 q 176 286 154 263 q 231 309 199 309 q 286 286 263 309 q 309 231 309 263 q 286 176 309 199 q 231 154 263 154 m 231 463 q 176 486 199 463 q 154 540 154 508 q 176 594 154 572 q 231 617 199 617 q 286 594 263 617 q 309 540 309 572 q 286 486 309 508 q 231 463 263 463 m 231 617 q 176 640 199 617 q 154 694 154 662 q 176 749 154 726 q 231 771 199 771 q 286 749 263 771 q 309 694 309 726 q 286 640 309 662 q 231 617 263 617 z "},"<":{"ha":617,"x_min":0,"x_max":463,"o":"m 385 154 q 331 176 353 154 q 309 231 309 199 q 331 286 309 263 q 385 309 353 309 q 440 286 418 309 q 463 231 463 263 q 440 176 463 199 q 385 154 417 154 m 231 309 q 176 331 199 309 q 154 385 154 353 q 176 440 154 418 q 231 463 199 463 q 286 440 263 463 q 309 385 309 417 q 286 331 309 353 q 231 309 263 309 m 77 463 q 22 486 45 463 q 0 540 0 508 q 22 594 0 572 q 77 617 45 617 q 132 594 109 617 q 154 540 154 572 q 132 486 154 508 q 77 463 109 463 m 231 617 q 176 640 199 617 q 154 694 154 662 q 176 749 154 726 q 231 771 199 771 q 286 749 263 771 q 309 694 309 726 q 286 640 309 662 q 231 617 263 617 m 385 771 q 331 794 353 771 q 309 848 309 817 q 331 903 309 880 q 385 926 353 926 q 440 903 418 926 q 463 848 463 880 q 440 794 463 817 q 385 771 417 771 z "},"=":{"ha":926,"x_min":0,"x_max":771,"o":"m 77 309 q 22 331 45 309 q 0 385 0 353 q 22 440 0 418 q 77 463 45 463 q 132 440 109 463 q 154 385 154 417 q 132 331 154 353 q 77 309 109 309 m 231 309 q 176 331 199 309 q 154 385 154 353 q 176 440 154 418 q 231 463 199 463 q 286 440 263 463 q 309 385 309 417 q 286 331 309 353 q 231 309 263 309 m 385 309 q 331 331 353 309 q 309 385 309 353 q 331 440 309 418 q 385 463 353 463 q 440 440 418 463 q 463 385 463 417 q 440 331 463 353 q 385 309 417 309 m 540 309 q 486 331 508 309 q 463 385 463 353 q 486 440 463 418 q 540 463 508 463 q 594 440 572 463 q 617 385 617 417 q 594 331 617 353 q 540 309 572 309 m 694 309 q 640 331 662 309 q 617 385 617 353 q 640 440 617 418 q 694 463 662 463 q 749 440 726 463 q 771 385 771 417 q 749 331 771 353 q 694 309 726 309 m 77 617 q 22 640 45 617 q 0 694 0 662 q 22 749 0 726 q 77 771 45 771 q 132 749 109 771 q 154 694 154 726 q 132 640 154 662 q 77 617 109 617 m 231 617 q 176 640 199 617 q 154 694 154 662 q 176 749 154 726 q 231 771 199 771 q 286 749 263 771 q 309 694 309 726 q 286 640 309 662 q 231 617 263 617 m 385 617 q 331 640 353 617 q 309 694 309 662 q 331 749 309 726 q 385 771 353 771 q 440 749 418 771 q 463 694 463 726 q 440 640 463 662 q 385 617 417 617 m 540 617 q 486 640 508 617 q 463 694 463 662 q 486 749 463 726 q 540 771 508 771 q 594 749 572 771 q 617 694 617 726 q 594 640 617 662 q 540 617 572 617 m 694 617 q 640 640 662 617 q 617 694 617 662 q 640 749 617 726 q 694 771 662 771 q 749 749 726 771 q 771 694 771 726 q 749 640 771 662 q 694 617 726 617 z "},">":{"ha":617,"x_min":0,"x_max":463,"o":"m 77 154 q 22 176 45 154 q 0 231 0 199 q 22 286 0 263 q 77 309 45 309 q 132 286 109 309 q 154 231 154 263 q 132 176 154 199 q 77 154 109 154 m 231 309 q 176 331 199 309 q 154 385 154 353 q 176 440 154 418 q 231 463 199 463 q 286 440 263 463 q 309 385 309 417 q 286 331 309 353 q 231 309 263 309 m 385 463 q 331 486 353 463 q 309 540 309 508 q 331 594 309 572 q 385 617 353 617 q 440 594 418 617 q 463 540 463 572 q 440 486 463 508 q 385 463 417 463 m 231 617 q 176 640 199 617 q 154 694 154 662 q 176 749 154 726 q 231 771 199 771 q 286 749 263 771 q 309 694 309 726 q 286 640 309 662 q 231 617 263 617 m 77 771 q 22 794 45 771 q 0 848 0 817 q 22 903 0 880 q 77 926 45 926 q 132 903 109 926 q 154 848 154 880 q 132 794 154 817 q 77 771 109 771 z "},"?":{"ha":926,"x_min":0,"x_max":771,"o":"m 385 0 q 331 22 353 0 q 309 77 309 45 q 331 132 309 109 q 385 154 353 154 q 440 132 418 154 q 463 77 463 109 q 440 22 463 45 q 385 0 417 0 m 385 154 q 331 176 353 154 q 309 231 309 199 q 331 286 309 263 q 385 309 353 309 q 440 286 418 309 q 463 231 463 263 q 440 176 463 199 q 385 154 417 154 m 540 463 q 486 486 508 463 q 463 540 463 508 q 486 594 463 572 q 540 617 508 617 q 594 594 572 617 q 617 540 617 572 q 594 486 617 508 q 540 463 572 463 m 694 617 q 640 640 662 617 q 617 694 617 662 q 640 749 617 726 q 694 771 662 771 q 749 749 726 771 q 771 694 771 726 q 749 640 771 662 q 694 617 726 617 m 77 771 q 22 794 45 771 q 0 848 0 817 q 22 903 0 880 q 77 926 45 926 q 132 903 109 926 q 154 848 154 880 q 132 794 154 817 q 77 771 109 771 m 694 771 q 640 794 662 771 q 617 848 617 817 q 640 903 617 880 q 694 926 662 926 q 749 903 726 926 q 771 848 771 880 q 749 794 771 817 q 694 771 726 771 m 231 926 q 176 948 199 926 q 154 1003 154 971 q 176 1057 154 1035 q 231 1080 199 1080 q 286 1057 263 1080 q 309 1003 309 1035 q 286 948 309 970 q 231 926 263 926 m 385 926 q 331 948 353 926 q 309 1003 309 971 q 331 1057 309 1035 q 385 1080 353 1080 q 440 1057 418 1080 q 463 1003 463 1035 q 440 948 463 970 q 385 926 417 926 m 540 926 q 486 948 508 926 q 463 1003 463 971 q 486 1057 463 1035 q 540 1080 508 1080 q 594 1057 572 1080 q 617 1003 617 1035 q 594 948 617 970 q 540 926 572 926 z "},"@":{"ha":926,"x_min":0,"x_max":771,"o":"m 231 -154 q 176 -132 199 -154 q 154 -77 154 -109 q 176 -22 154 -45 q 231 0 199 0 q 286 -22 263 0 q 309 -77 309 -45 q 286 -132 309 -109 q 231 -154 263 -154 m 385 -154 q 331 -132 353 -154 q 309 -77 309 -109 q 331 -22 309 -45 q 385 0 353 0 q 440 -22 418 0 q 463 -77 463 -45 q 440 -132 463 -109 q 385 -154 417 -154 m 540 -154 q 486 -132 508 -154 q 463 -77 463 -109 q 486 -22 463 -45 q 540 0 508 0 q 594 -22 572 0 q 617 -77 617 -45 q 594 -132 617 -109 q 540 -154 572 -154 m 77 0 q 22 22 45 0 q 0 77 0 45 q 22 132 0 109 q 77 154 45 154 q 132 132 109 154 q 154 77 154 109 q 132 22 154 45 q 77 0 109 0 m 77 154 q 22 176 45 154 q 0 231 0 199 q 22 286 0 263 q 77 309 45 309 q 132 286 109 309 q 154 231 154 263 q 132 176 154 199 q 77 154 109 154 m 385 154 q 331 176 353 154 q 309 231 309 199 q 331 286 309 263 q 385 309 353 309 q 440 286 418 309 q 463 231 463 263 q 440 176 463 199 q 385 154 417 154 m 540 154 q 486 176 508 154 q 463 231 463 199 q 486 286 463 263 q 540 309 508 309 q 594 286 572 309 q 617 231 617 263 q 594 176 617 199 q 540 154 572 154 m 694 154 q 640 176 662 154 q 617 231 617 199 q 640 286 617 263 q 694 309 662 309 q 749 286 726 309 q 771 231 771 263 q 749 176 771 199 q 694 154 726 154 m 77 309 q 22 331 45 309 q 0 385 0 353 q 22 440 0 418 q 77 463 45 463 q 132 440 109 463 q 154 385 154 417 q 132 331 154 353 q 77 309 109 309 m 385 309 q 331 331 353 309 q 309 385 309 353 q 331 440 309 418 q 385 463 353 463 q 440 440 418 463 q 463 385 463 417 q 440 331 463 353 q 385 309 417 309 m 694 309 q 640 331 662 309 q 617 385 617 353 q 640 440 617 418 q 694 463 662 463 q 749 440 726 463 q 771 385 771 417 q 749 331 771 353 q 694 309 726 309 m 77 463 q 22 486 45 463 q 0 540 0 508 q 22 594 0 572 q 77 617 45 617 q 132 594 109 617 q 154 540 154 572 q 132 486 154 508 q 77 463 109 463 m 385 463 q 331 486 353 463 q 309 540 309 508 q 331 594 309 572 q 385 617 353 617 q 440 594 418 617 q 463 540 463 572 q 440 486 463 508 q 385 463 417 463 m 694 463 q 640 486 662 463 q 617 540 617 508 q 640 594 617 572 q 694 617 662 617 q 749 594 726 617 q 771 540 771 572 q 749 486 771 508 q 694 463 726 463 m 77 617 q 22 640 45 617 q 0 694 0 662 q 22 749 0 726 q 77 771 45 771 q 132 749 109 771 q 154 694 154 726 q 132 640 154 662 q 77 617 109 617 m 694 617 q 640 640 662 617 q 617 694 617 662 q 640 749 617 726 q 694 771 662 771 q 749 749 726 771 q 771 694 771 726 q 749 640 771 662 q 694 617 726 617 m 231 771 q 176 794 199 771 q 154 848 154 817 q 176 903 154 880 q 231 926 199 926 q 286 903 263 926 q 309 848 309 880 q 286 794 309 817 q 231 771 263 771 m 385 771 q 331 794 353 771 q 309 848 309 817 q 331 903 309 880 q 385 926 353 926 q 440 903 418 926 q 463 848 463 880 q 440 794 463 817 q 385 771 417 771 m 540 771 q 486 794 508 771 q 463 848 463 817 q 486 903 463 880 q 540 926 508 926 q 594 903 572 926 q 617 848 617 880 q 594 794 617 817 q 540 771 572 771 z "},"A":{"ha":926,"x_min":0,"x_max":771,"o":"m 77 0 q 22 22 45 0 q 0 77 0 45 q 22 132 0 109 q 77 154 45 154 q 132 132 109 154 q 154 77 154 109 q 132 22 154 45 q 77 0 109 0 m 694 0 q 640 22 662 0 q 617 77 617 45 q 640 132 617 109 q 694 154 662 154 q 749 132 726 154 q 771 77 771 109 q 749 22 771 45 q 694 0 726 0 m 77 154 q 22 176 45 154 q 0 231 0 199 q 22 286 0 263 q 77 309 45 309 q 132 286 109 309 q 154 231 154 263 q 132 176 154 199 q 77 154 109 154 m 694 154 q 640 176 662 154 q 617 231 617 199 q 640 286 617 263 q 694 309 662 309 q 749 286 726 309 q 771 231 771 263 q 749 176 771 199 q 694 154 726 154 m 77 309 q 22 331 45 309 q 0 385 0 353 q 22 440 0 418 q 77 463 45 463 q 132 440 109 463 q 154 385 154 417 q 132 331 154 353 q 77 309 109 309 m 231 309 q 176 331 199 309 q 154 385 154 353 q 176 440 154 418 q 231 463 199 463 q 286 440 263 463 q 309 385 309 417 q 286 331 309 353 q 231 309 263 309 m 385 309 q 331 331 353 309 q 309 385 309 353 q 331 440 309 418 q 385 463 353 463 q 440 440 418 463 q 463 385 463 417 q 440 331 463 353 q 385 309 417 309 m 540 309 q 486 331 508 309 q 463 385 463 353 q 486 440 463 418 q 540 463 508 463 q 594 440 572 463 q 617 385 617 417 q 594 331 617 353 q 540 309 572 309 m 694 309 q 640 331 662 309 q 617 385 617 353 q 640 440 617 418 q 694 463 662 463 q 749 440 726 463 q 771 385 771 417 q 749 331 771 353 q 694 309 726 309 m 77 463 q 22 486 45 463 q 0 540 0 508 q 22 594 0 572 q 77 617 45 617 q 132 594 109 617 q 154 540 154 572 q 132 486 154 508 q 77 463 109 463 m 694 463 q 640 486 662 463 q 617 540 617 508 q 640 594 617 572 q 694 617 662 617 q 749 594 726 617 q 771 540 771 572 q 749 486 771 508 q 694 463 726 463 m 77 617 q 22 640 45 617 q 0 694 0 662 q 22 749 0 726 q 77 771 45 771 q 132 749 109 771 q 154 694 154 726 q 132 640 154 662 q 77 617 109 617 m 694 617 q 640 640 662 617 q 617 694 617 662 q 640 749 617 726 q 694 771 662 771 q 749 749 726 771 q 771 694 771 726 q 749 640 771 662 q 694 617 726 617 m 231 771 q 176 794 199 771 q 154 848 154 817 q 176 903 154 880 q 231 926 199 926 q 286 903 263 926 q 309 848 309 880 q 286 794 309 817 q 231 771 263 771 m 540 771 q 486 794 508 771 q 463 848 463 817 q 486 903 463 880 q 540 926 508 926 q 594 903 572 926 q 617 848 617 880 q 594 794 617 817 q 540 771 572 771 m 385 926 q 331 948 353 926 q 309 1003 309 971 q 331 1057 309 1035 q 385 1080 353 1080 q 440 1057 418 1080 q 463 1003 463 1035 q 440 948 463 970 q 385 926 417 926 z "},"B":{"ha":926,"x_min":0,"x_max":771,"o":"m 77 0 q 22 22 45 0 q 0 77 0 45 q 22 132 0 109 q 77 154 45 154 q 132 132 109 154 q 154 77 154 109 q 132 22 154 45 q 77 0 109 0 m 231 0 q 176 22 199 0 q 154 77 154 45 q 176 132 154 109 q 231 154 199 154 q 286 132 263 154 q 309 77 309 109 q 286 22 309 45 q 231 0 263 0 m 385 0 q 331 22 353 0 q 309 77 309 45 q 331 132 309 109 q 385 154 353 154 q 440 132 418 154 q 463 77 463 109 q 440 22 463 45 q 385 0 417 0 m 540 0 q 486 22 508 0 q 463 77 463 45 q 486 132 463 109 q 540 154 508 154 q 594 132 572 154 q 617 77 617 109 q 594 22 617 45 q 540 0 572 0 m 77 154 q 22 176 45 154 q 0 231 0 199 q 22 286 0 263 q 77 309 45 309 q 132 286 109 309 q 154 231 154 263 q 132 176 154 199 q 77 154 109 154 m 694 154 q 640 176 662 154 q 617 231 617 199 q 640 286 617 263 q 694 309 662 309 q 749 286 726 309 q 771 231 771 263 q 749 176 771 199 q 694 154 726 154 m 77 309 q 22 331 45 309 q 0 385 0 353 q 22 440 0 418 q 77 463 45 463 q 132 440 109 463 q 154 385 154 417 q 132 331 154 353 q 77 309 109 309 m 694 309 q 640 331 662 309 q 617 385 617 353 q 640 440 617 418 q 694 463 662 463 q 749 440 726 463 q 771 385 771 417 q 749 331 771 353 q 694 309 726 309 m 77 463 q 22 486 45 463 q 0 540 0 508 q 22 594 0 572 q 77 617 45 617 q 132 594 109 617 q 154 540 154 572 q 132 486 154 508 q 77 463 109 463 m 231 463 q 176 486 199 463 q 154 540 154 508 q 176 594 154 572 q 231 617 199 617 q 286 594 263 617 q 309 540 309 572 q 286 486 309 508 q 231 463 263 463 m 385 463 q 331 486 353 463 q 309 540 309 508 q 331 594 309 572 q 385 617 353 617 q 440 594 418 617 q 463 540 463 572 q 440 486 463 508 q 385 463 417 463 m 540 463 q 486 486 508 463 q 463 540 463 508 q 486 594 463 572 q 540 617 508 617 q 594 594 572 617 q 617 540 617 572 q 594 486 617 508 q 540 463 572 463 m 77 617 q 22 640 45 617 q 0 694 0 662 q 22 749 0 726 q 77 771 45 771 q 132 749 109 771 q 154 694 154 726 q 132 640 154 662 q 77 617 109 617 m 694 617 q 640 640 662 617 q 617 694 617 662 q 640 749 617 726 q 694 771 662 771 q 749 749 726 771 q 771 694 771 726 q 749 640 771 662 q 694 617 726 617 m 77 771 q 22 794 45 771 q 0 848 0 817 q 22 903 0 880 q 77 926 45 926 q 132 903 109 926 q 154 848 154 880 q 132 794 154 817 q 77 771 109 771 m 694 771 q 640 794 662 771 q 617 848 617 817 q 640 903 617 880 q 694 926 662 926 q 749 903 726 926 q 771 848 771 880 q 749 794 771 817 q 694 771 726 771 m 77 926 q 22 948 45 926 q 0 1003 0 971 q 22 1057 0 1035 q 77 1080 45 1080 q 132 1057 109 1080 q 154 1003 154 1035 q 132 948 154 970 q 77 926 109 926 m 231 926 q 176 948 199 926 q 154 1003 154 971 q 176 1057 154 1035 q 231 1080 199 1080 q 286 1057 263 1080 q 309 1003 309 1035 q 286 948 309 970 q 231 926 263 926 m 385 926 q 331 948 353 926 q 309 1003 309 971 q 331 1057 309 1035 q 385 1080 353 1080 q 440 1057 418 1080 q 463 1003 463 1035 q 440 948 463 970 q 385 926 417 926 m 540 926 q 486 948 508 926 q 463 1003 463 971 q 486 1057 463 1035 q 540 1080 508 1080 q 594 1057 572 1080 q 617 1003 617 1035 q 594 948 617 970 q 540 926 572 926 z "},"C":{"ha":926,"x_min":0,"x_max":771,"o":"m 231 0 q 176 22 199 0 q 154 77 154 45 q 176 132 154 109 q 231 154 199 154 q 286 132 263 154 q 309 77 309 109 q 286 22 309 45 q 231 0 263 0 m 385 0 q 331 22 353 0 q 309 77 309 45 q 331 132 309 109 q 385 154 353 154 q 440 132 418 154 q 463 77 463 109 q 440 22 463 45 q 385 0 417 0 m 540 0 q 486 22 508 0 q 463 77 463 45 q 486 132 463 109 q 540 154 508 154 q 594 132 572 154 q 617 77 617 109 q 594 22 617 45 q 540 0 572 0 m 77 154 q 22 176 45 154 q 0 231 0 199 q 22 286 0 263 q 77 309 45 309 q 132 286 109 309 q 154 231 154 263 q 132 176 154 199 q 77 154 109 154 m 694 154 q 640 176 662 154 q 617 231 617 199 q 640 286 617 263 q 694 309 662 309 q 749 286 726 309 q 771 231 771 263 q 749 176 771 199 q 694 154 726 154 m 77 309 q 22 331 45 309 q 0 385 0 353 q 22 440 0 418 q 77 463 45 463 q 132 440 109 463 q 154 385 154 417 q 132 331 154 353 q 77 309 109 309 m 77 463 q 22 486 45 463 q 0 540 0 508 q 22 594 0 572 q 77 617 45 617 q 132 594 109 617 q 154 540 154 572 q 132 486 154 508 q 77 463 109 463 m 77 617 q 22 640 45 617 q 0 694 0 662 q 22 749 0 726 q 77 771 45 771 q 132 749 109 771 q 154 694 154 726 q 132 640 154 662 q 77 617 109 617 m 77 771 q 22 794 45 771 q 0 848 0 817 q 22 903 0 880 q 77 926 45 926 q 132 903 109 926 q 154 848 154 880 q 132 794 154 817 q 77 771 109 771 m 694 771 q 640 794 662 771 q 617 848 617 817 q 640 903 617 880 q 694 926 662 926 q 749 903 726 926 q 771 848 771 880 q 749 794 771 817 q 694 771 726 771 m 231 926 q 176 948 199 926 q 154 1003 154 971 q 176 1057 154 1035 q 231 1080 199 1080 q 286 1057 263 1080 q 309 1003 309 1035 q 286 948 309 970 q 231 926 263 926 m 385 926 q 331 948 353 926 q 309 1003 309 971 q 331 1057 309 1035 q 385 1080 353 1080 q 440 1057 418 1080 q 463 1003 463 1035 q 440 948 463 970 q 385 926 417 926 m 540 926 q 486 948 508 926 q 463 1003 463 971 q 486 1057 463 1035 q 540 1080 508 1080 q 594 1057 572 1080 q 617 1003 617 1035 q 594 948 617 970 q 540 926 572 926 z "},"D":{"ha":926,"x_min":0,"x_max":771,"o":"m 77 0 q 22 22 45 0 q 0 77 0 45 q 22 132 0 109 q 77 154 45 154 q 132 132 109 154 q 154 77 154 109 q 132 22 154 45 q 77 0 109 0 m 231 0 q 176 22 199 0 q 154 77 154 45 q 176 132 154 109 q 231 154 199 154 q 286 132 263 154 q 309 77 309 109 q 286 22 309 45 q 231 0 263 0 m 385 0 q 331 22 353 0 q 309 77 309 45 q 331 132 309 109 q 385 154 353 154 q 440 132 418 154 q 463 77 463 109 q 440 22 463 45 q 385 0 417 0 m 540 0 q 486 22 508 0 q 463 77 463 45 q 486 132 463 109 q 540 154 508 154 q 594 132 572 154 q 617 77 617 109 q 594 22 617 45 q 540 0 572 0 m 77 154 q 22 176 45 154 q 0 231 0 199 q 22 286 0 263 q 77 309 45 309 q 132 286 109 309 q 154 231 154 263 q 132 176 154 199 q 77 154 109 154 m 694 154 q 640 176 662 154 q 617 231 617 199 q 640 286 617 263 q 694 309 662 309 q 749 286 726 309 q 771 231 771 263 q 749 176 771 199 q 694 154 726 154 m 77 309 q 22 331 45 309 q 0 385 0 353 q 22 440 0 418 q 77 463 45 463 q 132 440 109 463 q 154 385 154 417 q 132 331 154 353 q 77 309 109 309 m 694 309 q 640 331 662 309 q 617 385 617 353 q 640 440 617 418 q 694 463 662 463 q 749 440 726 463 q 771 385 771 417 q 749 331 771 353 q 694 309 726 309 m 77 463 q 22 486 45 463 q 0 540 0 508 q 22 594 0 572 q 77 617 45 617 q 132 594 109 617 q 154 540 154 572 q 132 486 154 508 q 77 463 109 463 m 694 463 q 640 486 662 463 q 617 540 617 508 q 640 594 617 572 q 694 617 662 617 q 749 594 726 617 q 771 540 771 572 q 749 486 771 508 q 694 463 726 463 m 77 617 q 22 640 45 617 q 0 694 0 662 q 22 749 0 726 q 77 771 45 771 q 132 749 109 771 q 154 694 154 726 q 132 640 154 662 q 77 617 109 617 m 694 617 q 640 640 662 617 q 617 694 617 662 q 640 749 617 726 q 694 771 662 771 q 749 749 726 771 q 771 694 771 726 q 749 640 771 662 q 694 617 726 617 m 77 771 q 22 794 45 771 q 0 848 0 817 q 22 903 0 880 q 77 926 45 926 q 132 903 109 926 q 154 848 154 880 q 132 794 154 817 q 77 771 109 771 m 694 771 q 640 794 662 771 q 617 848 617 817 q 640 903 617 880 q 694 926 662 926 q 749 903 726 926 q 771 848 771 880 q 749 794 771 817 q 694 771 726 771 m 77 926 q 22 948 45 926 q 0 1003 0 971 q 22 1057 0 1035 q 77 1080 45 1080 q 132 1057 109 1080 q 154 1003 154 1035 q 132 948 154 970 q 77 926 109 926 m 231 926 q 176 948 199 926 q 154 1003 154 971 q 176 1057 154 1035 q 231 1080 199 1080 q 286 1057 263 1080 q 309 1003 309 1035 q 286 948 309 970 q 231 926 263 926 m 385 926 q 331 948 353 926 q 309 1003 309 971 q 331 1057 309 1035 q 385 1080 353 1080 q 440 1057 418 1080 q 463 1003 463 1035 q 440 948 463 970 q 385 926 417 926 m 540 926 q 486 948 508 926 q 463 1003 463 971 q 486 1057 463 1035 q 540 1080 508 1080 q 594 1057 572 1080 q 617 1003 617 1035 q 594 948 617 970 q 540 926 572 926 z "},"E":{"ha":926,"x_min":0,"x_max":771,"o":"m 77 0 q 22 22 45 0 q 0 77 0 45 q 22 132 0 109 q 77 154 45 154 q 132 132 109 154 q 154 77 154 109 q 132 22 154 45 q 77 0 109 0 m 231 0 q 176 22 199 0 q 154 77 154 45 q 176 132 154 109 q 231 154 199 154 q 286 132 263 154 q 309 77 309 109 q 286 22 309 45 q 231 0 263 0 m 385 0 q 331 22 353 0 q 309 77 309 45 q 331 132 309 109 q 385 154 353 154 q 440 132 418 154 q 463 77 463 109 q 440 22 463 45 q 385 0 417 0 m 540 0 q 486 22 508 0 q 463 77 463 45 q 486 132 463 109 q 540 154 508 154 q 594 132 572 154 q 617 77 617 109 q 594 22 617 45 q 540 0 572 0 m 694 0 q 640 22 662 0 q 617 77 617 45 q 640 132 617 109 q 694 154 662 154 q 749 132 726 154 q 771 77 771 109 q 749 22 771 45 q 694 0 726 0 m 77 154 q 22 176 45 154 q 0 231 0 199 q 22 286 0 263 q 77 309 45 309 q 132 286 109 309 q 154 231 154 263 q 132 176 154 199 q 77 154 109 154 m 77 309 q 22 331 45 309 q 0 385 0 353 q 22 440 0 418 q 77 463 45 463 q 132 440 109 463 q 154 385 154 417 q 132 331 154 353 q 77 309 109 309 m 77 463 q 22 486 45 463 q 0 540 0 508 q 22 594 0 572 q 77 617 45 617 q 132 594 109 617 q 154 540 154 572 q 132 486 154 508 q 77 463 109 463 m 231 463 q 176 486 199 463 q 154 540 154 508 q 176 594 154 572 q 231 617 199 617 q 286 594 263 617 q 309 540 309 572 q 286 486 309 508 q 231 463 263 463 m 385 463 q 331 486 353 463 q 309 540 309 508 q 331 594 309 572 q 385 617 353 617 q 440 594 418 617 q 463 540 463 572 q 440 486 463 508 q 385 463 417 463 m 540 463 q 486 486 508 463 q 463 540 463 508 q 486 594 463 572 q 540 617 508 617 q 594 594 572 617 q 617 540 617 572 q 594 486 617 508 q 540 463 572 463 m 77 617 q 22 640 45 617 q 0 694 0 662 q 22 749 0 726 q 77 771 45 771 q 132 749 109 771 q 154 694 154 726 q 132 640 154 662 q 77 617 109 617 m 77 771 q 22 794 45 771 q 0 848 0 817 q 22 903 0 880 q 77 926 45 926 q 132 903 109 926 q 154 848 154 880 q 132 794 154 817 q 77 771 109 771 m 77 926 q 22 948 45 926 q 0 1003 0 971 q 22 1057 0 1035 q 77 1080 45 1080 q 132 1057 109 1080 q 154 1003 154 1035 q 132 948 154 970 q 77 926 109 926 m 231 926 q 176 948 199 926 q 154 1003 154 971 q 176 1057 154 1035 q 231 1080 199 1080 q 286 1057 263 1080 q 309 1003 309 1035 q 286 948 309 970 q 231 926 263 926 m 385 926 q 331 948 353 926 q 309 1003 309 971 q 331 1057 309 1035 q 385 1080 353 1080 q 440 1057 418 1080 q 463 1003 463 1035 q 440 948 463 970 q 385 926 417 926 m 540 926 q 486 948 508 926 q 463 1003 463 971 q 486 1057 463 1035 q 540 1080 508 1080 q 594 1057 572 1080 q 617 1003 617 1035 q 594 948 617 970 q 540 926 572 926 m 694 926 q 640 948 662 926 q 617 1003 617 971 q 640 1057 617 1035 q 694 1080 662 1080 q 749 1057 726 1080 q 771 1003 771 1035 q 749 948 771 970 q 694 926 726 926 z "},"F":{"ha":926,"x_min":0,"x_max":771,"o":"m 77 0 q 22 22 45 0 q 0 77 0 45 q 22 132 0 109 q 77 154 45 154 q 132 132 109 154 q 154 77 154 109 q 132 22 154 45 q 77 0 109 0 m 77 154 q 22 176 45 154 q 0 231 0 199 q 22 286 0 263 q 77 309 45 309 q 132 286 109 309 q 154 231 154 263 q 132 176 154 199 q 77 154 109 154 m 77 309 q 22 331 45 309 q 0 385 0 353 q 22 440 0 418 q 77 463 45 463 q 132 440 109 463 q 154 385 154 417 q 132 331 154 353 q 77 309 109 309 m 77 463 q 22 486 45 463 q 0 540 0 508 q 22 594 0 572 q 77 617 45 617 q 132 594 109 617 q 154 540 154 572 q 132 486 154 508 q 77 463 109 463 m 231 463 q 176 486 199 463 q 154 540 154 508 q 176 594 154 572 q 231 617 199 617 q 286 594 263 617 q 309 540 309 572 q 286 486 309 508 q 231 463 263 463 m 385 463 q 331 486 353 463 q 309 540 309 508 q 331 594 309 572 q 385 617 353 617 q 440 594 418 617 q 463 540 463 572 q 440 486 463 508 q 385 463 417 463 m 540 463 q 486 486 508 463 q 463 540 463 508 q 486 594 463 572 q 540 617 508 617 q 594 594 572 617 q 617 540 617 572 q 594 486 617 508 q 540 463 572 463 m 77 617 q 22 640 45 617 q 0 694 0 662 q 22 749 0 726 q 77 771 45 771 q 132 749 109 771 q 154 694 154 726 q 132 640 154 662 q 77 617 109 617 m 77 771 q 22 794 45 771 q 0 848 0 817 q 22 903 0 880 q 77 926 45 926 q 132 903 109 926 q 154 848 154 880 q 132 794 154 817 q 77 771 109 771 m 77 926 q 22 948 45 926 q 0 1003 0 971 q 22 1057 0 1035 q 77 1080 45 1080 q 132 1057 109 1080 q 154 1003 154 1035 q 132 948 154 970 q 77 926 109 926 m 231 926 q 176 948 199 926 q 154 1003 154 971 q 176 1057 154 1035 q 231 1080 199 1080 q 286 1057 263 1080 q 309 1003 309 1035 q 286 948 309 970 q 231 926 263 926 m 385 926 q 331 948 353 926 q 309 1003 309 971 q 331 1057 309 1035 q 385 1080 353 1080 q 440 1057 418 1080 q 463 1003 463 1035 q 440 948 463 970 q 385 926 417 926 m 540 926 q 486 948 508 926 q 463 1003 463 971 q 486 1057 463 1035 q 540 1080 508 1080 q 594 1057 572 1080 q 617 1003 617 1035 q 594 948 617 970 q 540 926 572 926 m 694 926 q 640 948 662 926 q 617 1003 617 971 q 640 1057 617 1035 q 694 1080 662 1080 q 749 1057 726 1080 q 771 1003 771 1035 q 749 948 771 970 q 694 926 726 926 z "},"G":{"ha":926,"x_min":0,"x_max":771,"o":"m 231 0 q 176 22 199 0 q 154 77 154 45 q 176 132 154 109 q 231 154 199 154 q 286 132 263 154 q 309 77 309 109 q 286 22 309 45 q 231 0 263 0 m 385 0 q 331 22 353 0 q 309 77 309 45 q 331 132 309 109 q 385 154 353 154 q 440 132 418 154 q 463 77 463 109 q 440 22 463 45 q 385 0 417 0 m 540 0 q 486 22 508 0 q 463 77 463 45 q 486 132 463 109 q 540 154 508 154 q 594 132 572 154 q 617 77 617 109 q 594 22 617 45 q 540 0 572 0 m 77 154 q 22 176 45 154 q 0 231 0 199 q 22 286 0 263 q 77 309 45 309 q 132 286 109 309 q 154 231 154 263 q 132 176 154 199 q 77 154 109 154 m 694 154 q 640 176 662 154 q 617 231 617 199 q 640 286 617 263 q 694 309 662 309 q 749 286 726 309 q 771 231 771 263 q 749 176 771 199 q 694 154 726 154 m 77 309 q 22 331 45 309 q 0 385 0 353 q 22 440 0 418 q 77 463 45 463 q 132 440 109 463 q 154 385 154 417 q 132 331 154 353 q 77 309 109 309 m 694 309 q 640 331 662 309 q 617 385 617 353 q 640 440 617 418 q 694 463 662 463 q 749 440 726 463 q 771 385 771 417 q 749 331 771 353 q 694 309 726 309 m 77 463 q 22 486 45 463 q 0 540 0 508 q 22 594 0 572 q 77 617 45 617 q 132 594 109 617 q 154 540 154 572 q 132 486 154 508 q 77 463 109 463 m 385 463 q 331 486 353 463 q 309 540 309 508 q 331 594 309 572 q 385 617 353 617 q 440 594 418 617 q 463 540 463 572 q 440 486 463 508 q 385 463 417 463 m 540 463 q 486 486 508 463 q 463 540 463 508 q 486 594 463 572 q 540 617 508 617 q 594 594 572 617 q 617 540 617 572 q 594 486 617 508 q 540 463 572 463 m 694 463 q 640 486 662 463 q 617 540 617 508 q 640 594 617 572 q 694 617 662 617 q 749 594 726 617 q 771 540 771 572 q 749 486 771 508 q 694 463 726 463 m 77 617 q 22 640 45 617 q 0 694 0 662 q 22 749 0 726 q 77 771 45 771 q 132 749 109 771 q 154 694 154 726 q 132 640 154 662 q 77 617 109 617 m 77 771 q 22 794 45 771 q 0 848 0 817 q 22 903 0 880 q 77 926 45 926 q 132 903 109 926 q 154 848 154 880 q 132 794 154 817 q 77 771 109 771 m 694 771 q 640 794 662 771 q 617 848 617 817 q 640 903 617 880 q 694 926 662 926 q 749 903 726 926 q 771 848 771 880 q 749 794 771 817 q 694 771 726 771 m 231 926 q 176 948 199 926 q 154 1003 154 971 q 176 1057 154 1035 q 231 1080 199 1080 q 286 1057 263 1080 q 309 1003 309 1035 q 286 948 309 970 q 231 926 263 926 m 385 926 q 331 948 353 926 q 309 1003 309 971 q 331 1057 309 1035 q 385 1080 353 1080 q 440 1057 418 1080 q 463 1003 463 1035 q 440 948 463 970 q 385 926 417 926 m 540 926 q 486 948 508 926 q 463 1003 463 971 q 486 1057 463 1035 q 540 1080 508 1080 q 594 1057 572 1080 q 617 1003 617 1035 q 594 948 617 970 q 540 926 572 926 z "},"H":{"ha":926,"x_min":0,"x_max":771,"o":"m 77 0 q 22 22 45 0 q 0 77 0 45 q 22 132 0 109 q 77 154 45 154 q 132 132 109 154 q 154 77 154 109 q 132 22 154 45 q 77 0 109 0 m 694 0 q 640 22 662 0 q 617 77 617 45 q 640 132 617 109 q 694 154 662 154 q 749 132 726 154 q 771 77 771 109 q 749 22 771 45 q 694 0 726 0 m 77 154 q 22 176 45 154 q 0 231 0 199 q 22 286 0 263 q 77 309 45 309 q 132 286 109 309 q 154 231 154 263 q 132 176 154 199 q 77 154 109 154 m 694 154 q 640 176 662 154 q 617 231 617 199 q 640 286 617 263 q 694 309 662 309 q 749 286 726 309 q 771 231 771 263 q 749 176 771 199 q 694 154 726 154 m 77 309 q 22 331 45 309 q 0 385 0 353 q 22 440 0 418 q 77 463 45 463 q 132 440 109 463 q 154 385 154 417 q 132 331 154 353 q 77 309 109 309 m 694 309 q 640 331 662 309 q 617 385 617 353 q 640 440 617 418 q 694 463 662 463 q 749 440 726 463 q 771 385 771 417 q 749 331 771 353 q 694 309 726 309 m 77 463 q 22 486 45 463 q 0 540 0 508 q 22 594 0 572 q 77 617 45 617 q 132 594 109 617 q 154 540 154 572 q 132 486 154 508 q 77 463 109 463 m 231 463 q 176 486 199 463 q 154 540 154 508 q 176 594 154 572 q 231 617 199 617 q 286 594 263 617 q 309 540 309 572 q 286 486 309 508 q 231 463 263 463 m 385 463 q 331 486 353 463 q 309 540 309 508 q 331 594 309 572 q 385 617 353 617 q 440 594 418 617 q 463 540 463 572 q 440 486 463 508 q 385 463 417 463 m 540 463 q 486 486 508 463 q 463 540 463 508 q 486 594 463 572 q 540 617 508 617 q 594 594 572 617 q 617 540 617 572 q 594 486 617 508 q 540 463 572 463 m 694 463 q 640 486 662 463 q 617 540 617 508 q 640 594 617 572 q 694 617 662 617 q 749 594 726 617 q 771 540 771 572 q 749 486 771 508 q 694 463 726 463 m 77 617 q 22 640 45 617 q 0 694 0 662 q 22 749 0 726 q 77 771 45 771 q 132 749 109 771 q 154 694 154 726 q 132 640 154 662 q 77 617 109 617 m 694 617 q 640 640 662 617 q 617 694 617 662 q 640 749 617 726 q 694 771 662 771 q 749 749 726 771 q 771 694 771 726 q 749 640 771 662 q 694 617 726 617 m 77 771 q 22 794 45 771 q 0 848 0 817 q 22 903 0 880 q 77 926 45 926 q 132 903 109 926 q 154 848 154 880 q 132 794 154 817 q 77 771 109 771 m 694 771 q 640 794 662 771 q 617 848 617 817 q 640 903 617 880 q 694 926 662 926 q 749 903 726 926 q 771 848 771 880 q 749 794 771 817 q 694 771 726 771 m 77 926 q 22 948 45 926 q 0 1003 0 971 q 22 1057 0 1035 q 77 1080 45 1080 q 132 1057 109 1080 q 154 1003 154 1035 q 132 948 154 970 q 77 926 109 926 m 694 926 q 640 948 662 926 q 617 1003 617 971 q 640 1057 617 1035 q 694 1080 662 1080 q 749 1057 726 1080 q 771 1003 771 1035 q 749 948 771 970 q 694 926 726 926 z "},"I":{"ha":617,"x_min":0,"x_max":463,"o":"m 77 0 q 22 22 45 0 q 0 77 0 45 q 22 132 0 109 q 77 154 45 154 q 132 132 109 154 q 154 77 154 109 q 132 22 154 45 q 77 0 109 0 m 231 0 q 176 22 199 0 q 154 77 154 45 q 176 132 154 109 q 231 154 199 154 q 286 132 263 154 q 309 77 309 109 q 286 22 309 45 q 231 0 263 0 m 385 0 q 331 22 353 0 q 309 77 309 45 q 331 132 309 109 q 385 154 353 154 q 440 132 418 154 q 463 77 463 109 q 440 22 463 45 q 385 0 417 0 m 231 154 q 176 176 199 154 q 154 231 154 199 q 176 286 154 263 q 231 309 199 309 q 286 286 263 309 q 309 231 309 263 q 286 176 309 199 q 231 154 263 154 m 231 309 q 176 331 199 309 q 154 385 154 353 q 176 440 154 418 q 231 463 199 463 q 286 440 263 463 q 309 385 309 417 q 286 331 309 353 q 231 309 263 309 m 231 463 q 176 486 199 463 q 154 540 154 508 q 176 594 154 572 q 231 617 199 617 q 286 594 263 617 q 309 540 309 572 q 286 486 309 508 q 231 463 263 463 m 231 617 q 176 640 199 617 q 154 694 154 662 q 176 749 154 726 q 231 771 199 771 q 286 749 263 771 q 309 694 309 726 q 286 640 309 662 q 231 617 263 617 m 231 771 q 176 794 199 771 q 154 848 154 817 q 176 903 154 880 q 231 926 199 926 q 286 903 263 926 q 309 848 309 880 q 286 794 309 817 q 231 771 263 771 m 77 926 q 22 948 45 926 q 0 1003 0 971 q 22 1057 0 1035 q 77 1080 45 1080 q 132 1057 109 1080 q 154 1003 154 1035 q 132 948 154 970 q 77 926 109 926 m 231 926 q 176 948 199 926 q 154 1003 154 971 q 176 1057 154 1035 q 231 1080 199 1080 q 286 1057 263 1080 q 309 1003 309 1035 q 286 948 309 970 q 231 926 263 926 m 385 926 q 331 948 353 926 q 309 1003 309 971 q 331 1057 309 1035 q 385 1080 353 1080 q 440 1057 418 1080 q 463 1003 463 1035 q 440 948 463 970 q 385 926 417 926 z "},"J":{"ha":926,"x_min":0,"x_max":771,"o":"m 231 0 q 176 22 199 0 q 154 77 154 45 q 176 132 154 109 q 231 154 199 154 q 286 132 263 154 q 309 77 309 109 q 286 22 309 45 q 231 0 263 0 m 385 0 q 331 22 353 0 q 309 77 309 45 q 331 132 309 109 q 385 154 353 154 q 440 132 418 154 q 463 77 463 109 q 440 22 463 45 q 385 0 417 0 m 77 154 q 22 176 45 154 q 0 231 0 199 q 22 286 0 263 q 77 309 45 309 q 132 286 109 309 q 154 231 154 263 q 132 176 154 199 q 77 154 109 154 m 540 154 q 486 176 508 154 q 463 231 463 199 q 486 286 463 263 q 540 309 508 309 q 594 286 572 309 q 617 231 617 263 q 594 176 617 199 q 540 154 572 154 m 540 309 q 486 331 508 309 q 463 385 463 353 q 486 440 463 418 q 540 463 508 463 q 594 440 572 463 q 617 385 617 417 q 594 331 617 353 q 540 309 572 309 m 540 463 q 486 486 508 463 q 463 540 463 508 q 486 594 463 572 q 540 617 508 617 q 594 594 572 617 q 617 540 617 572 q 594 486 617 508 q 540 463 572 463 m 540 617 q 486 640 508 617 q 463 694 463 662 q 486 749 463 726 q 540 771 508 771 q 594 749 572 771 q 617 694 617 726 q 594 640 617 662 q 540 617 572 617 m 540 771 q 486 794 508 771 q 463 848 463 817 q 486 903 463 880 q 540 926 508 926 q 594 903 572 926 q 617 848 617 880 q 594 794 617 817 q 540 771 572 771 m 385 926 q 331 948 353 926 q 309 1003 309 971 q 331 1057 309 1035 q 385 1080 353 1080 q 440 1057 418 1080 q 463 1003 463 1035 q 440 948 463 970 q 385 926 417 926 m 540 926 q 486 948 508 926 q 463 1003 463 971 q 486 1057 463 1035 q 540 1080 508 1080 q 594 1057 572 1080 q 617 1003 617 1035 q 594 948 617 970 q 540 926 572 926 m 694 926 q 640 948 662 926 q 617 1003 617 971 q 640 1057 617 1035 q 694 1080 662 1080 q 749 1057 726 1080 q 771 1003 771 1035 q 749 948 771 970 q 694 926 726 926 z "},"K":{"ha":926,"x_min":0,"x_max":771,"o":"m 77 0 q 22 22 45 0 q 0 77 0 45 q 22 132 0 109 q 77 154 45 154 q 132 132 109 154 q 154 77 154 109 q 132 22 154 45 q 77 0 109 0 m 694 0 q 640 22 662 0 q 617 77 617 45 q 640 132 617 109 q 694 154 662 154 q 749 132 726 154 q 771 77 771 109 q 749 22 771 45 q 694 0 726 0 m 77 154 q 22 176 45 154 q 0 231 0 199 q 22 286 0 263 q 77 309 45 309 q 132 286 109 309 q 154 231 154 263 q 132 176 154 199 q 77 154 109 154 m 540 154 q 486 176 508 154 q 463 231 463 199 q 486 286 463 263 q 540 309 508 309 q 594 286 572 309 q 617 231 617 263 q 594 176 617 199 q 540 154 572 154 m 77 309 q 22 331 45 309 q 0 385 0 353 q 22 440 0 418 q 77 463 45 463 q 132 440 109 463 q 154 385 154 417 q 132 331 154 353 q 77 309 109 309 m 385 309 q 331 331 353 309 q 309 385 309 353 q 331 440 309 418 q 385 463 353 463 q 440 440 418 463 q 463 385 463 417 q 440 331 463 353 q 385 309 417 309 m 77 463 q 22 486 45 463 q 0 540 0 508 q 22 594 0 572 q 77 617 45 617 q 132 594 109 617 q 154 540 154 572 q 132 486 154 508 q 77 463 109 463 m 231 463 q 176 486 199 463 q 154 540 154 508 q 176 594 154 572 q 231 617 199 617 q 286 594 263 617 q 309 540 309 572 q 286 486 309 508 q 231 463 263 463 m 77 617 q 22 640 45 617 q 0 694 0 662 q 22 749 0 726 q 77 771 45 771 q 132 749 109 771 q 154 694 154 726 q 132 640 154 662 q 77 617 109 617 m 385 617 q 331 640 353 617 q 309 694 309 662 q 331 749 309 726 q 385 771 353 771 q 440 749 418 771 q 463 694 463 726 q 440 640 463 662 q 385 617 417 617 m 77 771 q 22 794 45 771 q 0 848 0 817 q 22 903 0 880 q 77 926 45 926 q 132 903 109 926 q 154 848 154 880 q 132 794 154 817 q 77 771 109 771 m 540 771 q 486 794 508 771 q 463 848 463 817 q 486 903 463 880 q 540 926 508 926 q 594 903 572 926 q 617 848 617 880 q 594 794 617 817 q 540 771 572 771 m 77 926 q 22 948 45 926 q 0 1003 0 971 q 22 1057 0 1035 q 77 1080 45 1080 q 132 1057 109 1080 q 154 1003 154 1035 q 132 948 154 970 q 77 926 109 926 m 694 926 q 640 948 662 926 q 617 1003 617 971 q 640 1057 617 1035 q 694 1080 662 1080 q 749 1057 726 1080 q 771 1003 771 1035 q 749 948 771 970 q 694 926 726 926 z "},"L":{"ha":926,"x_min":0,"x_max":771,"o":"m 77 0 q 22 22 45 0 q 0 77 0 45 q 22 132 0 109 q 77 154 45 154 q 132 132 109 154 q 154 77 154 109 q 132 22 154 45 q 77 0 109 0 m 231 0 q 176 22 199 0 q 154 77 154 45 q 176 132 154 109 q 231 154 199 154 q 286 132 263 154 q 309 77 309 109 q 286 22 309 45 q 231 0 263 0 m 385 0 q 331 22 353 0 q 309 77 309 45 q 331 132 309 109 q 385 154 353 154 q 440 132 418 154 q 463 77 463 109 q 440 22 463 45 q 385 0 417 0 m 540 0 q 486 22 508 0 q 463 77 463 45 q 486 132 463 109 q 540 154 508 154 q 594 132 572 154 q 617 77 617 109 q 594 22 617 45 q 540 0 572 0 m 694 0 q 640 22 662 0 q 617 77 617 45 q 640 132 617 109 q 694 154 662 154 q 749 132 726 154 q 771 77 771 109 q 749 22 771 45 q 694 0 726 0 m 77 154 q 22 176 45 154 q 0 231 0 199 q 22 286 0 263 q 77 309 45 309 q 132 286 109 309 q 154 231 154 263 q 132 176 154 199 q 77 154 109 154 m 77 309 q 22 331 45 309 q 0 385 0 353 q 22 440 0 418 q 77 463 45 463 q 132 440 109 463 q 154 385 154 417 q 132 331 154 353 q 77 309 109 309 m 77 463 q 22 486 45 463 q 0 540 0 508 q 22 594 0 572 q 77 617 45 617 q 132 594 109 617 q 154 540 154 572 q 132 486 154 508 q 77 463 109 463 m 77 617 q 22 640 45 617 q 0 694 0 662 q 22 749 0 726 q 77 771 45 771 q 132 749 109 771 q 154 694 154 726 q 132 640 154 662 q 77 617 109 617 m 77 771 q 22 794 45 771 q 0 848 0 817 q 22 903 0 880 q 77 926 45 926 q 132 903 109 926 q 154 848 154 880 q 132 794 154 817 q 77 771 109 771 m 77 926 q 22 948 45 926 q 0 1003 0 971 q 22 1057 0 1035 q 77 1080 45 1080 q 132 1057 109 1080 q 154 1003 154 1035 q 132 948 154 970 q 77 926 109 926 z "},"M":{"ha":926,"x_min":0,"x_max":771,"o":"m 77 0 q 22 22 45 0 q 0 77 0 45 q 22 132 0 109 q 77 154 45 154 q 132 132 109 154 q 154 77 154 109 q 132 22 154 45 q 77 0 109 0 m 694 0 q 640 22 662 0 q 617 77 617 45 q 640 132 617 109 q 694 154 662 154 q 749 132 726 154 q 771 77 771 109 q 749 22 771 45 q 694 0 726 0 m 77 154 q 22 176 45 154 q 0 231 0 199 q 22 286 0 263 q 77 309 45 309 q 132 286 109 309 q 154 231 154 263 q 132 176 154 199 q 77 154 109 154 m 694 154 q 640 176 662 154 q 617 231 617 199 q 640 286 617 263 q 694 309 662 309 q 749 286 726 309 q 771 231 771 263 q 749 176 771 199 q 694 154 726 154 m 77 309 q 22 331 45 309 q 0 385 0 353 q 22 440 0 418 q 77 463 45 463 q 132 440 109 463 q 154 385 154 417 q 132 331 154 353 q 77 309 109 309 m 694 309 q 640 331 662 309 q 617 385 617 353 q 640 440 617 418 q 694 463 662 463 q 749 440 726 463 q 771 385 771 417 q 749 331 771 353 q 694 309 726 309 m 77 463 q 22 486 45 463 q 0 540 0 508 q 22 594 0 572 q 77 617 45 617 q 132 594 109 617 q 154 540 154 572 q 132 486 154 508 q 77 463 109 463 m 385 463 q 331 486 353 463 q 309 540 309 508 q 331 594 309 572 q 385 617 353 617 q 440 594 418 617 q 463 540 463 572 q 440 486 463 508 q 385 463 417 463 m 694 463 q 640 486 662 463 q 617 540 617 508 q 640 594 617 572 q 694 617 662 617 q 749 594 726 617 q 771 540 771 572 q 749 486 771 508 q 694 463 726 463 m 77 617 q 22 640 45 617 q 0 694 0 662 q 22 749 0 726 q 77 771 45 771 q 132 749 109 771 q 154 694 154 726 q 132 640 154 662 q 77 617 109 617 m 385 617 q 331 640 353 617 q 309 694 309 662 q 331 749 309 726 q 385 771 353 771 q 440 749 418 771 q 463 694 463 726 q 440 640 463 662 q 385 617 417 617 m 694 617 q 640 640 662 617 q 617 694 617 662 q 640 749 617 726 q 694 771 662 771 q 749 749 726 771 q 771 694 771 726 q 749 640 771 662 q 694 617 726 617 m 77 771 q 22 794 45 771 q 0 848 0 817 q 22 903 0 880 q 77 926 45 926 q 132 903 109 926 q 154 848 154 880 q 132 794 154 817 q 77 771 109 771 m 231 771 q 176 794 199 771 q 154 848 154 817 q 176 903 154 880 q 231 926 199 926 q 286 903 263 926 q 309 848 309 880 q 286 794 309 817 q 231 771 263 771 m 540 771 q 486 794 508 771 q 463 848 463 817 q 486 903 463 880 q 540 926 508 926 q 594 903 572 926 q 617 848 617 880 q 594 794 617 817 q 540 771 572 771 m 694 771 q 640 794 662 771 q 617 848 617 817 q 640 903 617 880 q 694 926 662 926 q 749 903 726 926 q 771 848 771 880 q 749 794 771 817 q 694 771 726 771 m 77 926 q 22 948 45 926 q 0 1003 0 971 q 22 1057 0 1035 q 77 1080 45 1080 q 132 1057 109 1080 q 154 1003 154 1035 q 132 948 154 970 q 77 926 109 926 m 694 926 q 640 948 662 926 q 617 1003 617 971 q 640 1057 617 1035 q 694 1080 662 1080 q 749 1057 726 1080 q 771 1003 771 1035 q 749 948 771 970 q 694 926 726 926 z "},"N":{"ha":926,"x_min":0,"x_max":771,"o":"m 77 0 q 22 22 45 0 q 0 77 0 45 q 22 132 0 109 q 77 154 45 154 q 132 132 109 154 q 154 77 154 109 q 132 22 154 45 q 77 0 109 0 m 694 0 q 640 22 662 0 q 617 77 617 45 q 640 132 617 109 q 694 154 662 154 q 749 132 726 154 q 771 77 771 109 q 749 22 771 45 q 694 0 726 0 m 77 154 q 22 176 45 154 q 0 231 0 199 q 22 286 0 263 q 77 309 45 309 q 132 286 109 309 q 154 231 154 263 q 132 176 154 199 q 77 154 109 154 m 694 154 q 640 176 662 154 q 617 231 617 199 q 640 286 617 263 q 694 309 662 309 q 749 286 726 309 q 771 231 771 263 q 749 176 771 199 q 694 154 726 154 m 77 309 q 22 331 45 309 q 0 385 0 353 q 22 440 0 418 q 77 463 45 463 q 132 440 109 463 q 154 385 154 417 q 132 331 154 353 q 77 309 109 309 m 540 309 q 486 331 508 309 q 463 385 463 353 q 486 440 463 418 q 540 463 508 463 q 594 440 572 463 q 617 385 617 417 q 594 331 617 353 q 540 309 572 309 m 694 309 q 640 331 662 309 q 617 385 617 353 q 640 440 617 418 q 694 463 662 463 q 749 440 726 463 q 771 385 771 417 q 749 331 771 353 q 694 309 726 309 m 77 463 q 22 486 45 463 q 0 540 0 508 q 22 594 0 572 q 77 617 45 617 q 132 594 109 617 q 154 540 154 572 q 132 486 154 508 q 77 463 109 463 m 385 463 q 331 486 353 463 q 309 540 309 508 q 331 594 309 572 q 385 617 353 617 q 440 594 418 617 q 463 540 463 572 q 440 486 463 508 q 385 463 417 463 m 694 463 q 640 486 662 463 q 617 540 617 508 q 640 594 617 572 q 694 617 662 617 q 749 594 726 617 q 771 540 771 572 q 749 486 771 508 q 694 463 726 463 m 77 617 q 22 640 45 617 q 0 694 0 662 q 22 749 0 726 q 77 771 45 771 q 132 749 109 771 q 154 694 154 726 q 132 640 154 662 q 77 617 109 617 m 231 617 q 176 640 199 617 q 154 694 154 662 q 176 749 154 726 q 231 771 199 771 q 286 749 263 771 q 309 694 309 726 q 286 640 309 662 q 231 617 263 617 m 694 617 q 640 640 662 617 q 617 694 617 662 q 640 749 617 726 q 694 771 662 771 q 749 749 726 771 q 771 694 771 726 q 749 640 771 662 q 694 617 726 617 m 77 771 q 22 794 45 771 q 0 848 0 817 q 22 903 0 880 q 77 926 45 926 q 132 903 109 926 q 154 848 154 880 q 132 794 154 817 q 77 771 109 771 m 694 771 q 640 794 662 771 q 617 848 617 817 q 640 903 617 880 q 694 926 662 926 q 749 903 726 926 q 771 848 771 880 q 749 794 771 817 q 694 771 726 771 m 77 926 q 22 948 45 926 q 0 1003 0 971 q 22 1057 0 1035 q 77 1080 45 1080 q 132 1057 109 1080 q 154 1003 154 1035 q 132 948 154 970 q 77 926 109 926 m 694 926 q 640 948 662 926 q 617 1003 617 971 q 640 1057 617 1035 q 694 1080 662 1080 q 749 1057 726 1080 q 771 1003 771 1035 q 749 948 771 970 q 694 926 726 926 z "},"O":{"ha":926,"x_min":0,"x_max":771,"o":"m 231 0 q 176 22 199 0 q 154 77 154 45 q 176 132 154 109 q 231 154 199 154 q 286 132 263 154 q 309 77 309 109 q 286 22 309 45 q 231 0 263 0 m 385 0 q 331 22 353 0 q 309 77 309 45 q 331 132 309 109 q 385 154 353 154 q 440 132 418 154 q 463 77 463 109 q 440 22 463 45 q 385 0 417 0 m 540 0 q 486 22 508 0 q 463 77 463 45 q 486 132 463 109 q 540 154 508 154 q 594 132 572 154 q 617 77 617 109 q 594 22 617 45 q 540 0 572 0 m 77 154 q 22 176 45 154 q 0 231 0 199 q 22 286 0 263 q 77 309 45 309 q 132 286 109 309 q 154 231 154 263 q 132 176 154 199 q 77 154 109 154 m 694 154 q 640 176 662 154 q 617 231 617 199 q 640 286 617 263 q 694 309 662 309 q 749 286 726 309 q 771 231 771 263 q 749 176 771 199 q 694 154 726 154 m 77 309 q 22 331 45 309 q 0 385 0 353 q 22 440 0 418 q 77 463 45 463 q 132 440 109 463 q 154 385 154 417 q 132 331 154 353 q 77 309 109 309 m 694 309 q 640 331 662 309 q 617 385 617 353 q 640 440 617 418 q 694 463 662 463 q 749 440 726 463 q 771 385 771 417 q 749 331 771 353 q 694 309 726 309 m 77 463 q 22 486 45 463 q 0 540 0 508 q 22 594 0 572 q 77 617 45 617 q 132 594 109 617 q 154 540 154 572 q 132 486 154 508 q 77 463 109 463 m 694 463 q 640 486 662 463 q 617 540 617 508 q 640 594 617 572 q 694 617 662 617 q 749 594 726 617 q 771 540 771 572 q 749 486 771 508 q 694 463 726 463 m 77 617 q 22 640 45 617 q 0 694 0 662 q 22 749 0 726 q 77 771 45 771 q 132 749 109 771 q 154 694 154 726 q 132 640 154 662 q 77 617 109 617 m 694 617 q 640 640 662 617 q 617 694 617 662 q 640 749 617 726 q 694 771 662 771 q 749 749 726 771 q 771 694 771 726 q 749 640 771 662 q 694 617 726 617 m 77 771 q 22 794 45 771 q 0 848 0 817 q 22 903 0 880 q 77 926 45 926 q 132 903 109 926 q 154 848 154 880 q 132 794 154 817 q 77 771 109 771 m 694 771 q 640 794 662 771 q 617 848 617 817 q 640 903 617 880 q 694 926 662 926 q 749 903 726 926 q 771 848 771 880 q 749 794 771 817 q 694 771 726 771 m 231 926 q 176 948 199 926 q 154 1003 154 971 q 176 1057 154 1035 q 231 1080 199 1080 q 286 1057 263 1080 q 309 1003 309 1035 q 286 948 309 970 q 231 926 263 926 m 385 926 q 331 948 353 926 q 309 1003 309 971 q 331 1057 309 1035 q 385 1080 353 1080 q 440 1057 418 1080 q 463 1003 463 1035 q 440 948 463 970 q 385 926 417 926 m 540 926 q 486 948 508 926 q 463 1003 463 971 q 486 1057 463 1035 q 540 1080 508 1080 q 594 1057 572 1080 q 617 1003 617 1035 q 594 948 617 970 q 540 926 572 926 z "},"P":{"ha":926,"x_min":0,"x_max":771,"o":"m 77 0 q 22 22 45 0 q 0 77 0 45 q 22 132 0 109 q 77 154 45 154 q 132 132 109 154 q 154 77 154 109 q 132 22 154 45 q 77 0 109 0 m 77 154 q 22 176 45 154 q 0 231 0 199 q 22 286 0 263 q 77 309 45 309 q 132 286 109 309 q 154 231 154 263 q 132 176 154 199 q 77 154 109 154 m 77 309 q 22 331 45 309 q 0 385 0 353 q 22 440 0 418 q 77 463 45 463 q 132 440 109 463 q 154 385 154 417 q 132 331 154 353 q 77 309 109 309 m 77 463 q 22 486 45 463 q 0 540 0 508 q 22 594 0 572 q 77 617 45 617 q 132 594 109 617 q 154 540 154 572 q 132 486 154 508 q 77 463 109 463 m 231 463 q 176 486 199 463 q 154 540 154 508 q 176 594 154 572 q 231 617 199 617 q 286 594 263 617 q 309 540 309 572 q 286 486 309 508 q 231 463 263 463 m 385 463 q 331 486 353 463 q 309 540 309 508 q 331 594 309 572 q 385 617 353 617 q 440 594 418 617 q 463 540 463 572 q 440 486 463 508 q 385 463 417 463 m 540 463 q 486 486 508 463 q 463 540 463 508 q 486 594 463 572 q 540 617 508 617 q 594 594 572 617 q 617 540 617 572 q 594 486 617 508 q 540 463 572 463 m 77 617 q 22 640 45 617 q 0 694 0 662 q 22 749 0 726 q 77 771 45 771 q 132 749 109 771 q 154 694 154 726 q 132 640 154 662 q 77 617 109 617 m 694 617 q 640 640 662 617 q 617 694 617 662 q 640 749 617 726 q 694 771 662 771 q 749 749 726 771 q 771 694 771 726 q 749 640 771 662 q 694 617 726 617 m 77 771 q 22 794 45 771 q 0 848 0 817 q 22 903 0 880 q 77 926 45 926 q 132 903 109 926 q 154 848 154 880 q 132 794 154 817 q 77 771 109 771 m 694 771 q 640 794 662 771 q 617 848 617 817 q 640 903 617 880 q 694 926 662 926 q 749 903 726 926 q 771 848 771 880 q 749 794 771 817 q 694 771 726 771 m 77 926 q 22 948 45 926 q 0 1003 0 971 q 22 1057 0 1035 q 77 1080 45 1080 q 132 1057 109 1080 q 154 1003 154 1035 q 132 948 154 970 q 77 926 109 926 m 231 926 q 176 948 199 926 q 154 1003 154 971 q 176 1057 154 1035 q 231 1080 199 1080 q 286 1057 263 1080 q 309 1003 309 1035 q 286 948 309 970 q 231 926 263 926 m 385 926 q 331 948 353 926 q 309 1003 309 971 q 331 1057 309 1035 q 385 1080 353 1080 q 440 1057 418 1080 q 463 1003 463 1035 q 440 948 463 970 q 385 926 417 926 m 540 926 q 486 948 508 926 q 463 1003 463 971 q 486 1057 463 1035 q 540 1080 508 1080 q 594 1057 572 1080 q 617 1003 617 1035 q 594 948 617 970 q 540 926 572 926 z "},"Q":{"ha":926,"x_min":0,"x_max":771,"o":"m 231 0 q 176 22 199 0 q 154 77 154 45 q 176 132 154 109 q 231 154 199 154 q 286 132 263 154 q 309 77 309 109 q 286 22 309 45 q 231 0 263 0 m 385 0 q 331 22 353 0 q 309 77 309 45 q 331 132 309 109 q 385 154 353 154 q 440 132 418 154 q 463 77 463 109 q 440 22 463 45 q 385 0 417 0 m 694 0 q 640 22 662 0 q 617 77 617 45 q 640 132 617 109 q 694 154 662 154 q 749 132 726 154 q 771 77 771 109 q 749 22 771 45 q 694 0 726 0 m 77 154 q 22 176 45 154 q 0 231 0 199 q 22 286 0 263 q 77 309 45 309 q 132 286 109 309 q 154 231 154 263 q 132 176 154 199 q 77 154 109 154 m 540 154 q 486 176 508 154 q 463 231 463 199 q 486 286 463 263 q 540 309 508 309 q 594 286 572 309 q 617 231 617 263 q 594 176 617 199 q 540 154 572 154 m 385 231 q 331 254 353 231 q 309 309 309 277 q 331 363 309 340 q 385 385 353 385 q 440 363 418 385 q 463 309 463 340 q 440 254 463 276 q 385 231 417 231 m 77 309 q 22 331 45 309 q 0 385 0 353 q 22 440 0 418 q 77 463 45 463 q 132 440 109 463 q 154 385 154 417 q 132 331 154 353 q 77 309 109 309 m 694 309 q 640 331 662 309 q 617 385 617 353 q 640 440 617 418 q 694 463 662 463 q 749 440 726 463 q 771 385 771 417 q 749 331 771 353 q 694 309 726 309 m 77 463 q 22 486 45 463 q 0 540 0 508 q 22 594 0 572 q 77 617 45 617 q 132 594 109 617 q 154 540 154 572 q 132 486 154 508 q 77 463 109 463 m 694 463 q 640 486 662 463 q 617 540 617 508 q 640 594 617 572 q 694 617 662 617 q 749 594 726 617 q 771 540 771 572 q 749 486 771 508 q 694 463 726 463 m 77 617 q 22 640 45 617 q 0 694 0 662 q 22 749 0 726 q 77 771 45 771 q 132 749 109 771 q 154 694 154 726 q 132 640 154 662 q 77 617 109 617 m 694 617 q 640 640 662 617 q 617 694 617 662 q 640 749 617 726 q 694 771 662 771 q 749 749 726 771 q 771 694 771 726 q 749 640 771 662 q 694 617 726 617 m 77 771 q 22 794 45 771 q 0 848 0 817 q 22 903 0 880 q 77 926 45 926 q 132 903 109 926 q 154 848 154 880 q 132 794 154 817 q 77 771 109 771 m 694 771 q 640 794 662 771 q 617 848 617 817 q 640 903 617 880 q 694 926 662 926 q 749 903 726 926 q 771 848 771 880 q 749 794 771 817 q 694 771 726 771 m 231 926 q 176 948 199 926 q 154 1003 154 971 q 176 1057 154 1035 q 231 1080 199 1080 q 286 1057 263 1080 q 309 1003 309 1035 q 286 948 309 970 q 231 926 263 926 m 385 926 q 331 948 353 926 q 309 1003 309 971 q 331 1057 309 1035 q 385 1080 353 1080 q 440 1057 418 1080 q 463 1003 463 1035 q 440 948 463 970 q 385 926 417 926 m 540 926 q 486 948 508 926 q 463 1003 463 971 q 486 1057 463 1035 q 540 1080 508 1080 q 594 1057 572 1080 q 617 1003 617 1035 q 594 948 617 970 q 540 926 572 926 z "},"R":{"ha":926,"x_min":0,"x_max":771,"o":"m 77 0 q 22 22 45 0 q 0 77 0 45 q 22 132 0 109 q 77 154 45 154 q 132 132 109 154 q 154 77 154 109 q 132 22 154 45 q 77 0 109 0 m 694 0 q 640 22 662 0 q 617 77 617 45 q 640 132 617 109 q 694 154 662 154 q 749 132 726 154 q 771 77 771 109 q 749 22 771 45 q 694 0 726 0 m 77 154 q 22 176 45 154 q 0 231 0 199 q 22 286 0 263 q 77 309 45 309 q 132 286 109 309 q 154 231 154 263 q 132 176 154 199 q 77 154 109 154 m 540 154 q 486 176 508 154 q 463 231 463 199 q 486 286 463 263 q 540 309 508 309 q 594 286 572 309 q 617 231 617 263 q 594 176 617 199 q 540 154 572 154 m 77 309 q 22 331 45 309 q 0 385 0 353 q 22 440 0 418 q 77 463 45 463 q 132 440 109 463 q 154 385 154 417 q 132 331 154 353 q 77 309 109 309 m 385 309 q 331 331 353 309 q 309 385 309 353 q 331 440 309 418 q 385 463 353 463 q 440 440 418 463 q 463 385 463 417 q 440 331 463 353 q 385 309 417 309 m 77 463 q 22 486 45 463 q 0 540 0 508 q 22 594 0 572 q 77 617 45 617 q 132 594 109 617 q 154 540 154 572 q 132 486 154 508 q 77 463 109 463 m 231 463 q 176 486 199 463 q 154 540 154 508 q 176 594 154 572 q 231 617 199 617 q 286 594 263 617 q 309 540 309 572 q 286 486 309 508 q 231 463 263 463 m 385 463 q 331 486 353 463 q 309 540 309 508 q 331 594 309 572 q 385 617 353 617 q 440 594 418 617 q 463 540 463 572 q 440 486 463 508 q 385 463 417 463 m 540 463 q 486 486 508 463 q 463 540 463 508 q 486 594 463 572 q 540 617 508 617 q 594 594 572 617 q 617 540 617 572 q 594 486 617 508 q 540 463 572 463 m 77 617 q 22 640 45 617 q 0 694 0 662 q 22 749 0 726 q 77 771 45 771 q 132 749 109 771 q 154 694 154 726 q 132 640 154 662 q 77 617 109 617 m 694 617 q 640 640 662 617 q 617 694 617 662 q 640 749 617 726 q 694 771 662 771 q 749 749 726 771 q 771 694 771 726 q 749 640 771 662 q 694 617 726 617 m 77 771 q 22 794 45 771 q 0 848 0 817 q 22 903 0 880 q 77 926 45 926 q 132 903 109 926 q 154 848 154 880 q 132 794 154 817 q 77 771 109 771 m 694 771 q 640 794 662 771 q 617 848 617 817 q 640 903 617 880 q 694 926 662 926 q 749 903 726 926 q 771 848 771 880 q 749 794 771 817 q 694 771 726 771 m 77 926 q 22 948 45 926 q 0 1003 0 971 q 22 1057 0 1035 q 77 1080 45 1080 q 132 1057 109 1080 q 154 1003 154 1035 q 132 948 154 970 q 77 926 109 926 m 231 926 q 176 948 199 926 q 154 1003 154 971 q 176 1057 154 1035 q 231 1080 199 1080 q 286 1057 263 1080 q 309 1003 309 1035 q 286 948 309 970 q 231 926 263 926 m 385 926 q 331 948 353 926 q 309 1003 309 971 q 331 1057 309 1035 q 385 1080 353 1080 q 440 1057 418 1080 q 463 1003 463 1035 q 440 948 463 970 q 385 926 417 926 m 540 926 q 486 948 508 926 q 463 1003 463 971 q 486 1057 463 1035 q 540 1080 508 1080 q 594 1057 572 1080 q 617 1003 617 1035 q 594 948 617 970 q 540 926 572 926 z "},"S":{"ha":926,"x_min":0,"x_max":771,"o":"m 231 0 q 176 22 199 0 q 154 77 154 45 q 176 132 154 109 q 231 154 199 154 q 286 132 263 154 q 309 77 309 109 q 286 22 309 45 q 231 0 263 0 m 385 0 q 331 22 353 0 q 309 77 309 45 q 331 132 309 109 q 385 154 353 154 q 440 132 418 154 q 463 77 463 109 q 440 22 463 45 q 385 0 417 0 m 540 0 q 486 22 508 0 q 463 77 463 45 q 486 132 463 109 q 540 154 508 154 q 594 132 572 154 q 617 77 617 109 q 594 22 617 45 q 540 0 572 0 m 77 154 q 22 176 45 154 q 0 231 0 199 q 22 286 0 263 q 77 309 45 309 q 132 286 109 309 q 154 231 154 263 q 132 176 154 199 q 77 154 109 154 m 694 154 q 640 176 662 154 q 617 231 617 199 q 640 286 617 263 q 694 309 662 309 q 749 286 726 309 q 771 231 771 263 q 749 176 771 199 q 694 154 726 154 m 694 309 q 640 331 662 309 q 617 385 617 353 q 640 440 617 418 q 694 463 662 463 q 749 440 726 463 q 771 385 771 417 q 749 331 771 353 q 694 309 726 309 m 231 463 q 176 486 199 463 q 154 540 154 508 q 176 594 154 572 q 231 617 199 617 q 286 594 263 617 q 309 540 309 572 q 286 486 309 508 q 231 463 263 463 m 385 463 q 331 486 353 463 q 309 540 309 508 q 331 594 309 572 q 385 617 353 617 q 440 594 418 617 q 463 540 463 572 q 440 486 463 508 q 385 463 417 463 m 540 463 q 486 486 508 463 q 463 540 463 508 q 486 594 463 572 q 540 617 508 617 q 594 594 572 617 q 617 540 617 572 q 594 486 617 508 q 540 463 572 463 m 77 617 q 22 640 45 617 q 0 694 0 662 q 22 749 0 726 q 77 771 45 771 q 132 749 109 771 q 154 694 154 726 q 132 640 154 662 q 77 617 109 617 m 77 771 q 22 794 45 771 q 0 848 0 817 q 22 903 0 880 q 77 926 45 926 q 132 903 109 926 q 154 848 154 880 q 132 794 154 817 q 77 771 109 771 m 694 771 q 640 794 662 771 q 617 848 617 817 q 640 903 617 880 q 694 926 662 926 q 749 903 726 926 q 771 848 771 880 q 749 794 771 817 q 694 771 726 771 m 231 926 q 176 948 199 926 q 154 1003 154 971 q 176 1057 154 1035 q 231 1080 199 1080 q 286 1057 263 1080 q 309 1003 309 1035 q 286 948 309 970 q 231 926 263 926 m 385 926 q 331 948 353 926 q 309 1003 309 971 q 331 1057 309 1035 q 385 1080 353 1080 q 440 1057 418 1080 q 463 1003 463 1035 q 440 948 463 970 q 385 926 417 926 m 540 926 q 486 948 508 926 q 463 1003 463 971 q 486 1057 463 1035 q 540 1080 508 1080 q 594 1057 572 1080 q 617 1003 617 1035 q 594 948 617 970 q 540 926 572 926 z "},"T":{"ha":926,"x_min":0,"x_max":771,"o":"m 385 0 q 331 22 353 0 q 309 77 309 45 q 331 132 309 109 q 385 154 353 154 q 440 132 418 154 q 463 77 463 109 q 440 22 463 45 q 385 0 417 0 m 385 154 q 331 176 353 154 q 309 231 309 199 q 331 286 309 263 q 385 309 353 309 q 440 286 418 309 q 463 231 463 263 q 440 176 463 199 q 385 154 417 154 m 385 309 q 331 331 353 309 q 309 385 309 353 q 331 440 309 418 q 385 463 353 463 q 440 440 418 463 q 463 385 463 417 q 440 331 463 353 q 385 309 417 309 m 385 463 q 331 486 353 463 q 309 540 309 508 q 331 594 309 572 q 385 617 353 617 q 440 594 418 617 q 463 540 463 572 q 440 486 463 508 q 385 463 417 463 m 385 617 q 331 640 353 617 q 309 694 309 662 q 331 749 309 726 q 385 771 353 771 q 440 749 418 771 q 463 694 463 726 q 440 640 463 662 q 385 617 417 617 m 385 771 q 331 794 353 771 q 309 848 309 817 q 331 903 309 880 q 385 926 353 926 q 440 903 418 926 q 463 848 463 880 q 440 794 463 817 q 385 771 417 771 m 77 926 q 22 948 45 926 q 0 1003 0 971 q 22 1057 0 1035 q 77 1080 45 1080 q 132 1057 109 1080 q 154 1003 154 1035 q 132 948 154 970 q 77 926 109 926 m 231 926 q 176 948 199 926 q 154 1003 154 971 q 176 1057 154 1035 q 231 1080 199 1080 q 286 1057 263 1080 q 309 1003 309 1035 q 286 948 309 970 q 231 926 263 926 m 385 926 q 331 948 353 926 q 309 1003 309 971 q 331 1057 309 1035 q 385 1080 353 1080 q 440 1057 418 1080 q 463 1003 463 1035 q 440 948 463 970 q 385 926 417 926 m 540 926 q 486 948 508 926 q 463 1003 463 971 q 486 1057 463 1035 q 540 1080 508 1080 q 594 1057 572 1080 q 617 1003 617 1035 q 594 948 617 970 q 540 926 572 926 m 694 926 q 640 948 662 926 q 617 1003 617 971 q 640 1057 617 1035 q 694 1080 662 1080 q 749 1057 726 1080 q 771 1003 771 1035 q 749 948 771 970 q 694 926 726 926 z "},"U":{"ha":926,"x_min":0,"x_max":771,"o":"m 231 0 q 176 22 199 0 q 154 77 154 45 q 176 132 154 109 q 231 154 199 154 q 286 132 263 154 q 309 77 309 109 q 286 22 309 45 q 231 0 263 0 m 385 0 q 331 22 353 0 q 309 77 309 45 q 331 132 309 109 q 385 154 353 154 q 440 132 418 154 q 463 77 463 109 q 440 22 463 45 q 385 0 417 0 m 540 0 q 486 22 508 0 q 463 77 463 45 q 486 132 463 109 q 540 154 508 154 q 594 132 572 154 q 617 77 617 109 q 594 22 617 45 q 540 0 572 0 m 77 154 q 22 176 45 154 q 0 231 0 199 q 22 286 0 263 q 77 309 45 309 q 132 286 109 309 q 154 231 154 263 q 132 176 154 199 q 77 154 109 154 m 694 154 q 640 176 662 154 q 617 231 617 199 q 640 286 617 263 q 694 309 662 309 q 749 286 726 309 q 771 231 771 263 q 749 176 771 199 q 694 154 726 154 m 77 309 q 22 331 45 309 q 0 385 0 353 q 22 440 0 418 q 77 463 45 463 q 132 440 109 463 q 154 385 154 417 q 132 331 154 353 q 77 309 109 309 m 694 309 q 640 331 662 309 q 617 385 617 353 q 640 440 617 418 q 694 463 662 463 q 749 440 726 463 q 771 385 771 417 q 749 331 771 353 q 694 309 726 309 m 77 463 q 22 486 45 463 q 0 540 0 508 q 22 594 0 572 q 77 617 45 617 q 132 594 109 617 q 154 540 154 572 q 132 486 154 508 q 77 463 109 463 m 694 463 q 640 486 662 463 q 617 540 617 508 q 640 594 617 572 q 694 617 662 617 q 749 594 726 617 q 771 540 771 572 q 749 486 771 508 q 694 463 726 463 m 77 617 q 22 640 45 617 q 0 694 0 662 q 22 749 0 726 q 77 771 45 771 q 132 749 109 771 q 154 694 154 726 q 132 640 154 662 q 77 617 109 617 m 694 617 q 640 640 662 617 q 617 694 617 662 q 640 749 617 726 q 694 771 662 771 q 749 749 726 771 q 771 694 771 726 q 749 640 771 662 q 694 617 726 617 m 77 771 q 22 794 45 771 q 0 848 0 817 q 22 903 0 880 q 77 926 45 926 q 132 903 109 926 q 154 848 154 880 q 132 794 154 817 q 77 771 109 771 m 694 771 q 640 794 662 771 q 617 848 617 817 q 640 903 617 880 q 694 926 662 926 q 749 903 726 926 q 771 848 771 880 q 749 794 771 817 q 694 771 726 771 m 77 926 q 22 948 45 926 q 0 1003 0 971 q 22 1057 0 1035 q 77 1080 45 1080 q 132 1057 109 1080 q 154 1003 154 1035 q 132 948 154 970 q 77 926 109 926 m 694 926 q 640 948 662 926 q 617 1003 617 971 q 640 1057 617 1035 q 694 1080 662 1080 q 749 1057 726 1080 q 771 1003 771 1035 q 749 948 771 970 q 694 926 726 926 z "},"V":{"ha":926,"x_min":0,"x_max":771,"o":"m 385 0 q 331 22 353 0 q 309 77 309 45 q 331 132 309 109 q 385 154 353 154 q 440 132 418 154 q 463 77 463 109 q 440 22 463 45 q 385 0 417 0 m 231 154 q 176 176 199 154 q 154 231 154 199 q 176 286 154 263 q 231 309 199 309 q 286 286 263 309 q 309 231 309 263 q 286 176 309 199 q 231 154 263 154 m 540 154 q 486 176 508 154 q 463 231 463 199 q 486 286 463 263 q 540 309 508 309 q 594 286 572 309 q 617 231 617 263 q 594 176 617 199 q 540 154 572 154 m 77 309 q 22 331 45 309 q 0 385 0 353 q 22 440 0 418 q 77 463 45 463 q 132 440 109 463 q 154 385 154 417 q 132 331 154 353 q 77 309 109 309 m 694 309 q 640 331 662 309 q 617 385 617 353 q 640 440 617 418 q 694 463 662 463 q 749 440 726 463 q 771 385 771 417 q 749 331 771 353 q 694 309 726 309 m 77 463 q 22 486 45 463 q 0 540 0 508 q 22 594 0 572 q 77 617 45 617 q 132 594 109 617 q 154 540 154 572 q 132 486 154 508 q 77 463 109 463 m 694 463 q 640 486 662 463 q 617 540 617 508 q 640 594 617 572 q 694 617 662 617 q 749 594 726 617 q 771 540 771 572 q 749 486 771 508 q 694 463 726 463 m 77 617 q 22 640 45 617 q 0 694 0 662 q 22 749 0 726 q 77 771 45 771 q 132 749 109 771 q 154 694 154 726 q 132 640 154 662 q 77 617 109 617 m 694 617 q 640 640 662 617 q 617 694 617 662 q 640 749 617 726 q 694 771 662 771 q 749 749 726 771 q 771 694 771 726 q 749 640 771 662 q 694 617 726 617 m 77 771 q 22 794 45 771 q 0 848 0 817 q 22 903 0 880 q 77 926 45 926 q 132 903 109 926 q 154 848 154 880 q 132 794 154 817 q 77 771 109 771 m 694 771 q 640 794 662 771 q 617 848 617 817 q 640 903 617 880 q 694 926 662 926 q 749 903 726 926 q 771 848 771 880 q 749 794 771 817 q 694 771 726 771 m 77 926 q 22 948 45 926 q 0 1003 0 971 q 22 1057 0 1035 q 77 1080 45 1080 q 132 1057 109 1080 q 154 1003 154 1035 q 132 948 154 970 q 77 926 109 926 m 694 926 q 640 948 662 926 q 617 1003 617 971 q 640 1057 617 1035 q 694 1080 662 1080 q 749 1057 726 1080 q 771 1003 771 1035 q 749 948 771 970 q 694 926 726 926 z "},"W":{"ha":926,"x_min":0,"x_max":771,"o":"m 231 0 q 176 22 199 0 q 154 77 154 45 q 176 132 154 109 q 231 154 199 154 q 286 132 263 154 q 309 77 309 109 q 286 22 309 45 q 231 0 263 0 m 540 0 q 486 22 508 0 q 463 77 463 45 q 486 132 463 109 q 540 154 508 154 q 594 132 572 154 q 617 77 617 109 q 594 22 617 45 q 540 0 572 0 m 77 154 q 22 176 45 154 q 0 231 0 199 q 22 286 0 263 q 77 309 45 309 q 132 286 109 309 q 154 231 154 263 q 132 176 154 199 q 77 154 109 154 m 385 154 q 331 176 353 154 q 309 231 309 199 q 331 286 309 263 q 385 309 353 309 q 440 286 418 309 q 463 231 463 263 q 440 176 463 199 q 385 154 417 154 m 694 154 q 640 176 662 154 q 617 231 617 199 q 640 286 617 263 q 694 309 662 309 q 749 286 726 309 q 771 231 771 263 q 749 176 771 199 q 694 154 726 154 m 77 309 q 22 331 45 309 q 0 385 0 353 q 22 440 0 418 q 77 463 45 463 q 132 440 109 463 q 154 385 154 417 q 132 331 154 353 q 77 309 109 309 m 385 309 q 331 331 353 309 q 309 385 309 353 q 331 440 309 418 q 385 463 353 463 q 440 440 418 463 q 463 385 463 417 q 440 331 463 353 q 385 309 417 309 m 694 309 q 640 331 662 309 q 617 385 617 353 q 640 440 617 418 q 694 463 662 463 q 749 440 726 463 q 771 385 771 417 q 749 331 771 353 q 694 309 726 309 m 77 463 q 22 486 45 463 q 0 540 0 508 q 22 594 0 572 q 77 617 45 617 q 132 594 109 617 q 154 540 154 572 q 132 486 154 508 q 77 463 109 463 m 385 463 q 331 486 353 463 q 309 540 309 508 q 331 594 309 572 q 385 617 353 617 q 440 594 418 617 q 463 540 463 572 q 440 486 463 508 q 385 463 417 463 m 694 463 q 640 486 662 463 q 617 540 617 508 q 640 594 617 572 q 694 617 662 617 q 749 594 726 617 q 771 540 771 572 q 749 486 771 508 q 694 463 726 463 m 77 617 q 22 640 45 617 q 0 694 0 662 q 22 749 0 726 q 77 771 45 771 q 132 749 109 771 q 154 694 154 726 q 132 640 154 662 q 77 617 109 617 m 694 617 q 640 640 662 617 q 617 694 617 662 q 640 749 617 726 q 694 771 662 771 q 749 749 726 771 q 771 694 771 726 q 749 640 771 662 q 694 617 726 617 m 77 771 q 22 794 45 771 q 0 848 0 817 q 22 903 0 880 q 77 926 45 926 q 132 903 109 926 q 154 848 154 880 q 132 794 154 817 q 77 771 109 771 m 694 771 q 640 794 662 771 q 617 848 617 817 q 640 903 617 880 q 694 926 662 926 q 749 903 726 926 q 771 848 771 880 q 749 794 771 817 q 694 771 726 771 m 77 926 q 22 948 45 926 q 0 1003 0 971 q 22 1057 0 1035 q 77 1080 45 1080 q 132 1057 109 1080 q 154 1003 154 1035 q 132 948 154 970 q 77 926 109 926 m 694 926 q 640 948 662 926 q 617 1003 617 971 q 640 1057 617 1035 q 694 1080 662 1080 q 749 1057 726 1080 q 771 1003 771 1035 q 749 948 771 970 q 694 926 726 926 z "},"X":{"ha":926,"x_min":0,"x_max":771,"o":"m 77 0 q 22 22 45 0 q 0 77 0 45 q 22 132 0 109 q 77 154 45 154 q 132 132 109 154 q 154 77 154 109 q 132 22 154 45 q 77 0 109 0 m 694 0 q 640 22 662 0 q 617 77 617 45 q 640 132 617 109 q 694 154 662 154 q 749 132 726 154 q 771 77 771 109 q 749 22 771 45 q 694 0 726 0 m 77 154 q 22 176 45 154 q 0 231 0 199 q 22 286 0 263 q 77 309 45 309 q 132 286 109 309 q 154 231 154 263 q 132 176 154 199 q 77 154 109 154 m 694 154 q 640 176 662 154 q 617 231 617 199 q 640 286 617 263 q 694 309 662 309 q 749 286 726 309 q 771 231 771 263 q 749 176 771 199 q 694 154 726 154 m 231 309 q 176 331 199 309 q 154 385 154 353 q 176 440 154 418 q 231 463 199 463 q 286 440 263 463 q 309 385 309 417 q 286 331 309 353 q 231 309 263 309 m 540 309 q 486 331 508 309 q 463 385 463 353 q 486 440 463 418 q 540 463 508 463 q 594 440 572 463 q 617 385 617 417 q 594 331 617 353 q 540 309 572 309 m 385 463 q 331 486 353 463 q 309 540 309 508 q 331 594 309 572 q 385 617 353 617 q 440 594 418 617 q 463 540 463 572 q 440 486 463 508 q 385 463 417 463 m 231 617 q 176 640 199 617 q 154 694 154 662 q 176 749 154 726 q 231 771 199 771 q 286 749 263 771 q 309 694 309 726 q 286 640 309 662 q 231 617 263 617 m 540 617 q 486 640 508 617 q 463 694 463 662 q 486 749 463 726 q 540 771 508 771 q 594 749 572 771 q 617 694 617 726 q 594 640 617 662 q 540 617 572 617 m 77 771 q 22 794 45 771 q 0 848 0 817 q 22 903 0 880 q 77 926 45 926 q 132 903 109 926 q 154 848 154 880 q 132 794 154 817 q 77 771 109 771 m 694 771 q 640 794 662 771 q 617 848 617 817 q 640 903 617 880 q 694 926 662 926 q 749 903 726 926 q 771 848 771 880 q 749 794 771 817 q 694 771 726 771 m 77 926 q 22 948 45 926 q 0 1003 0 971 q 22 1057 0 1035 q 77 1080 45 1080 q 132 1057 109 1080 q 154 1003 154 1035 q 132 948 154 970 q 77 926 109 926 m 694 926 q 640 948 662 926 q 617 1003 617 971 q 640 1057 617 1035 q 694 1080 662 1080 q 749 1057 726 1080 q 771 1003 771 1035 q 749 948 771 970 q 694 926 726 926 z "},"Y":{"ha":926,"x_min":0,"x_max":771,"o":"m 385 0 q 331 22 353 0 q 309 77 309 45 q 331 132 309 109 q 385 154 353 154 q 440 132 418 154 q 463 77 463 109 q 440 22 463 45 q 385 0 417 0 m 385 154 q 331 176 353 154 q 309 231 309 199 q 331 286 309 263 q 385 309 353 309 q 440 286 418 309 q 463 231 463 263 q 440 176 463 199 q 385 154 417 154 m 385 309 q 331 331 353 309 q 309 385 309 353 q 331 440 309 418 q 385 463 353 463 q 440 440 418 463 q 463 385 463 417 q 440 331 463 353 q 385 309 417 309 m 385 463 q 331 486 353 463 q 309 540 309 508 q 331 594 309 572 q 385 617 353 617 q 440 594 418 617 q 463 540 463 572 q 440 486 463 508 q 385 463 417 463 m 231 617 q 176 640 199 617 q 154 694 154 662 q 176 749 154 726 q 231 771 199 771 q 286 749 263 771 q 309 694 309 726 q 286 640 309 662 q 231 617 263 617 m 540 617 q 486 640 508 617 q 463 694 463 662 q 486 749 463 726 q 540 771 508 771 q 594 749 572 771 q 617 694 617 726 q 594 640 617 662 q 540 617 572 617 m 77 771 q 22 794 45 771 q 0 848 0 817 q 22 903 0 880 q 77 926 45 926 q 132 903 109 926 q 154 848 154 880 q 132 794 154 817 q 77 771 109 771 m 694 771 q 640 794 662 771 q 617 848 617 817 q 640 903 617 880 q 694 926 662 926 q 749 903 726 926 q 771 848 771 880 q 749 794 771 817 q 694 771 726 771 m 77 926 q 22 948 45 926 q 0 1003 0 971 q 22 1057 0 1035 q 77 1080 45 1080 q 132 1057 109 1080 q 154 1003 154 1035 q 132 948 154 970 q 77 926 109 926 m 694 926 q 640 948 662 926 q 617 1003 617 971 q 640 1057 617 1035 q 694 1080 662 1080 q 749 1057 726 1080 q 771 1003 771 1035 q 749 948 771 970 q 694 926 726 926 z "},"Z":{"ha":926,"x_min":0,"x_max":771,"o":"m 77 0 q 22 22 45 0 q 0 77 0 45 q 22 132 0 109 q 77 154 45 154 q 132 132 109 154 q 154 77 154 109 q 132 22 154 45 q 77 0 109 0 m 231 0 q 176 22 199 0 q 154 77 154 45 q 176 132 154 109 q 231 154 199 154 q 286 132 263 154 q 309 77 309 109 q 286 22 309 45 q 231 0 263 0 m 385 0 q 331 22 353 0 q 309 77 309 45 q 331 132 309 109 q 385 154 353 154 q 440 132 418 154 q 463 77 463 109 q 440 22 463 45 q 385 0 417 0 m 540 0 q 486 22 508 0 q 463 77 463 45 q 486 132 463 109 q 540 154 508 154 q 594 132 572 154 q 617 77 617 109 q 594 22 617 45 q 540 0 572 0 m 694 0 q 640 22 662 0 q 617 77 617 45 q 640 132 617 109 q 694 154 662 154 q 749 132 726 154 q 771 77 771 109 q 749 22 771 45 q 694 0 726 0 m 77 154 q 22 176 45 154 q 0 231 0 199 q 22 286 0 263 q 77 309 45 309 q 132 286 109 309 q 154 231 154 263 q 132 176 154 199 q 77 154 109 154 m 231 309 q 176 331 199 309 q 154 385 154 353 q 176 440 154 418 q 231 463 199 463 q 286 440 263 463 q 309 385 309 417 q 286 331 309 353 q 231 309 263 309 m 385 463 q 331 486 353 463 q 309 540 309 508 q 331 594 309 572 q 385 617 353 617 q 440 594 418 617 q 463 540 463 572 q 440 486 463 508 q 385 463 417 463 m 540 617 q 486 640 508 617 q 463 694 463 662 q 486 749 463 726 q 540 771 508 771 q 594 749 572 771 q 617 694 617 726 q 594 640 617 662 q 540 617 572 617 m 694 771 q 640 794 662 771 q 617 848 617 817 q 640 903 617 880 q 694 926 662 926 q 749 903 726 926 q 771 848 771 880 q 749 794 771 817 q 694 771 726 771 m 77 926 q 22 948 45 926 q 0 1003 0 971 q 22 1057 0 1035 q 77 1080 45 1080 q 132 1057 109 1080 q 154 1003 154 1035 q 132 948 154 970 q 77 926 109 926 m 231 926 q 176 948 199 926 q 154 1003 154 971 q 176 1057 154 1035 q 231 1080 199 1080 q 286 1057 263 1080 q 309 1003 309 1035 q 286 948 309 970 q 231 926 263 926 m 385 926 q 331 948 353 926 q 309 1003 309 971 q 331 1057 309 1035 q 385 1080 353 1080 q 440 1057 418 1080 q 463 1003 463 1035 q 440 948 463 970 q 385 926 417 926 m 540 926 q 486 948 508 926 q 463 1003 463 971 q 486 1057 463 1035 q 540 1080 508 1080 q 594 1057 572 1080 q 617 1003 617 1035 q 594 948 617 970 q 540 926 572 926 m 694 926 q 640 948 662 926 q 617 1003 617 971 q 640 1057 617 1035 q 694 1080 662 1080 q 749 1057 726 1080 q 771 1003 771 1035 q 749 948 771 970 q 694 926 726 926 z "},"[":{"ha":617,"x_min":0,"x_max":463,"o":"m 77 0 q 22 22 45 0 q 0 77 0 45 q 22 132 0 109 q 77 154 45 154 q 132 132 109 154 q 154 77 154 109 q 132 22 154 45 q 77 0 109 0 m 231 0 q 176 22 199 0 q 154 77 154 45 q 176 132 154 109 q 231 154 199 154 q 286 132 263 154 q 309 77 309 109 q 286 22 309 45 q 231 0 263 0 m 385 0 q 331 22 353 0 q 309 77 309 45 q 331 132 309 109 q 385 154 353 154 q 440 132 418 154 q 463 77 463 109 q 440 22 463 45 q 385 0 417 0 m 77 154 q 22 176 45 154 q 0 231 0 199 q 22 286 0 263 q 77 309 45 309 q 132 286 109 309 q 154 231 154 263 q 132 176 154 199 q 77 154 109 154 m 77 309 q 22 331 45 309 q 0 385 0 353 q 22 440 0 418 q 77 463 45 463 q 132 440 109 463 q 154 385 154 417 q 132 331 154 353 q 77 309 109 309 m 77 463 q 22 486 45 463 q 0 540 0 508 q 22 594 0 572 q 77 617 45 617 q 132 594 109 617 q 154 540 154 572 q 132 486 154 508 q 77 463 109 463 m 77 617 q 22 640 45 617 q 0 694 0 662 q 22 749 0 726 q 77 771 45 771 q 132 749 109 771 q 154 694 154 726 q 132 640 154 662 q 77 617 109 617 m 77 771 q 22 794 45 771 q 0 848 0 817 q 22 903 0 880 q 77 926 45 926 q 132 903 109 926 q 154 848 154 880 q 132 794 154 817 q 77 771 109 771 m 77 926 q 22 948 45 926 q 0 1003 0 971 q 22 1057 0 1035 q 77 1080 45 1080 q 132 1057 109 1080 q 154 1003 154 1035 q 132 948 154 970 q 77 926 109 926 m 231 926 q 176 948 199 926 q 154 1003 154 971 q 176 1057 154 1035 q 231 1080 199 1080 q 286 1057 263 1080 q 309 1003 309 1035 q 286 948 309 970 q 231 926 263 926 m 385 926 q 331 948 353 926 q 309 1003 309 971 q 331 1057 309 1035 q 385 1080 353 1080 q 440 1057 418 1080 q 463 1003 463 1035 q 440 948 463 970 q 385 926 417 926 z "},"\\":{"ha":926,"x_min":0,"x_max":771,"o":"m 694 154 q 640 176 662 154 q 617 231 617 199 q 640 286 617 263 q 694 309 662 309 q 749 286 726 309 q 771 231 771 263 q 749 176 771 199 q 694 154 726 154 m 540 309 q 486 331 508 309 q 463 385 463 353 q 486 440 463 418 q 540 463 508 463 q 594 440 572 463 q 617 385 617 417 q 594 331 617 353 q 540 309 572 309 m 385 463 q 331 486 353 463 q 309 540 309 508 q 331 594 309 572 q 385 617 353 617 q 440 594 418 617 q 463 540 463 572 q 440 486 463 508 q 385 463 417 463 m 231 617 q 176 640 199 617 q 154 694 154 662 q 176 749 154 726 q 231 771 199 771 q 286 749 263 771 q 309 694 309 726 q 286 640 309 662 q 231 617 263 617 m 77 771 q 22 794 45 771 q 0 848 0 817 q 22 903 0 880 q 77 926 45 926 q 132 903 109 926 q 154 848 154 880 q 132 794 154 817 q 77 771 109 771 z "},"]":{"ha":617,"x_min":0,"x_max":463,"o":"m 77 0 q 22 22 45 0 q 0 77 0 45 q 22 132 0 109 q 77 154 45 154 q 132 132 109 154 q 154 77 154 109 q 132 22 154 45 q 77 0 109 0 m 231 0 q 176 22 199 0 q 154 77 154 45 q 176 132 154 109 q 231 154 199 154 q 286 132 263 154 q 309 77 309 109 q 286 22 309 45 q 231 0 263 0 m 385 0 q 331 22 353 0 q 309 77 309 45 q 331 132 309 109 q 385 154 353 154 q 440 132 418 154 q 463 77 463 109 q 440 22 463 45 q 385 0 417 0 m 385 154 q 331 176 353 154 q 309 231 309 199 q 331 286 309 263 q 385 309 353 309 q 440 286 418 309 q 463 231 463 263 q 440 176 463 199 q 385 154 417 154 m 385 309 q 331 331 353 309 q 309 385 309 353 q 331 440 309 418 q 385 463 353 463 q 440 440 418 463 q 463 385 463 417 q 440 331 463 353 q 385 309 417 309 m 385 463 q 331 486 353 463 q 309 540 309 508 q 331 594 309 572 q 385 617 353 617 q 440 594 418 617 q 463 540 463 572 q 440 486 463 508 q 385 463 417 463 m 385 617 q 331 640 353 617 q 309 694 309 662 q 331 749 309 726 q 385 771 353 771 q 440 749 418 771 q 463 694 463 726 q 440 640 463 662 q 385 617 417 617 m 385 771 q 331 794 353 771 q 309 848 309 817 q 331 903 309 880 q 385 926 353 926 q 440 903 418 926 q 463 848 463 880 q 440 794 463 817 q 385 771 417 771 m 77 926 q 22 948 45 926 q 0 1003 0 971 q 22 1057 0 1035 q 77 1080 45 1080 q 132 1057 109 1080 q 154 1003 154 1035 q 132 948 154 970 q 77 926 109 926 m 231 926 q 176 948 199 926 q 154 1003 154 971 q 176 1057 154 1035 q 231 1080 199 1080 q 286 1057 263 1080 q 309 1003 309 1035 q 286 948 309 970 q 231 926 263 926 m 385 926 q 331 948 353 926 q 309 1003 309 971 q 331 1057 309 1035 q 385 1080 353 1080 q 440 1057 418 1080 q 463 1003 463 1035 q 440 948 463 970 q 385 926 417 926 z "},"^":{"ha":926,"x_min":0,"x_max":771,"o":"m 77 617 q 22 640 45 617 q 0 694 0 662 q 22 749 0 726 q 77 771 45 771 q 132 749 109 771 q 154 694 154 726 q 132 640 154 662 q 77 617 109 617 m 694 617 q 640 640 662 617 q 617 694 617 662 q 640 749 617 726 q 694 771 662 771 q 749 749 726 771 q 771 694 771 726 q 749 640 771 662 q 694 617 726 617 m 231 771 q 176 794 199 771 q 154 848 154 817 q 176 903 154 880 q 231 926 199 926 q 286 903 263 926 q 309 848 309 880 q 286 794 309 817 q 231 771 263 771 m 540 771 q 486 794 508 771 q 463 848 463 817 q 486 903 463 880 q 540 926 508 926 q 594 903 572 926 q 617 848 617 880 q 594 794 617 817 q 540 771 572 771 m 385 926 q 331 948 353 926 q 309 1003 309 971 q 331 1057 309 1035 q 385 1080 353 1080 q 440 1057 418 1080 q 463 1003 463 1035 q 440 948 463 970 q 385 926 417 926 z "},"_":{"ha":926,"x_min":0,"x_max":771,"o":"m 77 0 q 22 22 45 0 q 0 77 0 45 q 22 132 0 109 q 77 154 45 154 q 132 132 109 154 q 154 77 154 109 q 132 22 154 45 q 77 0 109 0 m 231 0 q 176 22 199 0 q 154 77 154 45 q 176 132 154 109 q 231 154 199 154 q 286 132 263 154 q 309 77 309 109 q 286 22 309 45 q 231 0 263 0 m 385 0 q 331 22 353 0 q 309 77 309 45 q 331 132 309 109 q 385 154 353 154 q 440 132 418 154 q 463 77 463 109 q 440 22 463 45 q 385 0 417 0 m 540 0 q 486 22 508 0 q 463 77 463 45 q 486 132 463 109 q 540 154 508 154 q 594 132 572 154 q 617 77 617 109 q 594 22 617 45 q 540 0 572 0 m 694 0 q 640 22 662 0 q 617 77 617 45 q 640 132 617 109 q 694 154 662 154 q 749 132 726 154 q 771 77 771 109 q 749 22 771 45 q 694 0 726 0 z "},"`":{"ha":385,"x_min":0,"x_max":231,"o":"m 154 926 q 100 948 122 926 q 77 1003 77 971 q 100 1057 77 1035 q 154 1080 122 1080 q 208 1057 186 1080 q 231 1003 231 1035 q 208 948 231 970 q 154 926 186 926 m 77 1080 q 22 1103 45 1080 q 0 1157 0 1125 q 22 1212 0 1189 q 77 1234 45 1234 q 132 1212 109 1234 q 154 1157 154 1189 q 132 1103 154 1125 q 77 1080 109 1080 z "},"a":{"ha":771,"x_min":0,"x_max":617,"o":"m 231 0 q 176 22 199 0 q 154 77 154 45 q 176 132 154 109 q 231 154 199 154 q 286 132 263 154 q 309 77 309 109 q 286 22 309 45 q 231 0 263 0 m 385 0 q 331 22 353 0 q 309 77 309 45 q 331 132 309 109 q 385 154 353 154 q 440 132 418 154 q 463 77 463 109 q 440 22 463 45 q 385 0 417 0 m 540 0 q 486 22 508 0 q 463 77 463 45 q 486 132 463 109 q 540 154 508 154 q 594 132 572 154 q 617 77 617 109 q 594 22 617 45 q 540 0 572 0 m 77 154 q 22 176 45 154 q 0 231 0 199 q 22 286 0 263 q 77 309 45 309 q 132 286 109 309 q 154 231 154 263 q 132 176 154 199 q 77 154 109 154 m 540 154 q 486 176 508 154 q 463 231 463 199 q 486 286 463 263 q 540 309 508 309 q 594 286 572 309 q 617 231 617 263 q 594 176 617 199 q 540 154 572 154 m 231 309 q 176 331 199 309 q 154 385 154 353 q 176 440 154 418 q 231 463 199 463 q 286 440 263 463 q 309 385 309 417 q 286 331 309 353 q 231 309 263 309 m 385 309 q 331 331 353 309 q 309 385 309 353 q 331 440 309 418 q 385 463 353 463 q 440 440 418 463 q 463 385 463 417 q 440 331 463 353 q 385 309 417 309 m 540 309 q 486 331 508 309 q 463 385 463 353 q 486 440 463 418 q 540 463 508 463 q 594 440 572 463 q 617 385 617 417 q 594 331 617 353 q 540 309 572 309 m 540 463 q 486 486 508 463 q 463 540 463 508 q 486 594 463 572 q 540 617 508 617 q 594 594 572 617 q 617 540 617 572 q 594 486 617 508 q 540 463 572 463 m 77 617 q 22 640 45 617 q 0 694 0 662 q 22 749 0 726 q 77 771 45 771 q 132 749 109 771 q 154 694 154 726 q 132 640 154 662 q 77 617 109 617 m 231 617 q 176 640 199 617 q 154 694 154 662 q 176 749 154 726 q 231 771 199 771 q 286 749 263 771 q 309 694 309 726 q 286 640 309 662 q 231 617 263 617 m 385 617 q 331 640 353 617 q 309 694 309 662 q 331 749 309 726 q 385 771 353 771 q 440 749 418 771 q 463 694 463 726 q 440 640 463 662 q 385 617 417 617 z "},"b":{"ha":771,"x_min":0,"x_max":617,"o":"m 77 0 q 22 22 45 0 q 0 77 0 45 q 22 132 0 109 q 77 154 45 154 q 132 132 109 154 q 154 77 154 109 q 132 22 154 45 q 77 0 109 0 m 231 0 q 176 22 199 0 q 154 77 154 45 q 176 132 154 109 q 231 154 199 154 q 286 132 263 154 q 309 77 309 109 q 286 22 309 45 q 231 0 263 0 m 385 0 q 331 22 353 0 q 309 77 309 45 q 331 132 309 109 q 385 154 353 154 q 440 132 418 154 q 463 77 463 109 q 440 22 463 45 q 385 0 417 0 m 77 154 q 22 176 45 154 q 0 231 0 199 q 22 286 0 263 q 77 309 45 309 q 132 286 109 309 q 154 231 154 263 q 132 176 154 199 q 77 154 109 154 m 540 154 q 486 176 508 154 q 463 231 463 199 q 486 286 463 263 q 540 309 508 309 q 594 286 572 309 q 617 231 617 263 q 594 176 617 199 q 540 154 572 154 m 77 309 q 22 331 45 309 q 0 385 0 353 q 22 440 0 418 q 77 463 45 463 q 132 440 109 463 q 154 385 154 417 q 132 331 154 353 q 77 309 109 309 m 540 309 q 486 331 508 309 q 463 385 463 353 q 486 440 463 418 q 540 463 508 463 q 594 440 572 463 q 617 385 617 417 q 594 331 617 353 q 540 309 572 309 m 77 463 q 22 486 45 463 q 0 540 0 508 q 22 594 0 572 q 77 617 45 617 q 132 594 109 617 q 154 540 154 572 q 132 486 154 508 q 77 463 109 463 m 540 463 q 486 486 508 463 q 463 540 463 508 q 486 594 463 572 q 540 617 508 617 q 594 594 572 617 q 617 540 617 572 q 594 486 617 508 q 540 463 572 463 m 77 617 q 22 640 45 617 q 0 694 0 662 q 22 749 0 726 q 77 771 45 771 q 132 749 109 771 q 154 694 154 726 q 132 640 154 662 q 77 617 109 617 m 231 617 q 176 640 199 617 q 154 694 154 662 q 176 749 154 726 q 231 771 199 771 q 286 749 263 771 q 309 694 309 726 q 286 640 309 662 q 231 617 263 617 m 385 617 q 331 640 353 617 q 309 694 309 662 q 331 749 309 726 q 385 771 353 771 q 440 749 418 771 q 463 694 463 726 q 440 640 463 662 q 385 617 417 617 m 77 771 q 22 794 45 771 q 0 848 0 817 q 22 903 0 880 q 77 926 45 926 q 132 903 109 926 q 154 848 154 880 q 132 794 154 817 q 77 771 109 771 m 77 926 q 22 948 45 926 q 0 1003 0 971 q 22 1057 0 1035 q 77 1080 45 1080 q 132 1057 109 1080 q 154 1003 154 1035 q 132 948 154 970 q 77 926 109 926 z "},"c":{"ha":771,"x_min":0,"x_max":617,"o":"m 231 0 q 176 22 199 0 q 154 77 154 45 q 176 132 154 109 q 231 154 199 154 q 286 132 263 154 q 309 77 309 109 q 286 22 309 45 q 231 0 263 0 m 385 0 q 331 22 353 0 q 309 77 309 45 q 331 132 309 109 q 385 154 353 154 q 440 132 418 154 q 463 77 463 109 q 440 22 463 45 q 385 0 417 0 m 540 0 q 486 22 508 0 q 463 77 463 45 q 486 132 463 109 q 540 154 508 154 q 594 132 572 154 q 617 77 617 109 q 594 22 617 45 q 540 0 572 0 m 77 154 q 22 176 45 154 q 0 231 0 199 q 22 286 0 263 q 77 309 45 309 q 132 286 109 309 q 154 231 154 263 q 132 176 154 199 q 77 154 109 154 m 77 309 q 22 331 45 309 q 0 385 0 353 q 22 440 0 418 q 77 463 45 463 q 132 440 109 463 q 154 385 154 417 q 132 331 154 353 q 77 309 109 309 m 77 463 q 22 486 45 463 q 0 540 0 508 q 22 594 0 572 q 77 617 45 617 q 132 594 109 617 q 154 540 154 572 q 132 486 154 508 q 77 463 109 463 m 231 617 q 176 640 199 617 q 154 694 154 662 q 176 749 154 726 q 231 771 199 771 q 286 749 263 771 q 309 694 309 726 q 286 640 309 662 q 231 617 263 617 m 385 617 q 331 640 353 617 q 309 694 309 662 q 331 749 309 726 q 385 771 353 771 q 440 749 418 771 q 463 694 463 726 q 440 640 463 662 q 385 617 417 617 m 540 617 q 486 640 508 617 q 463 694 463 662 q 486 749 463 726 q 540 771 508 771 q 594 749 572 771 q 617 694 617 726 q 594 640 617 662 q 540 617 572 617 z "},"d":{"ha":771,"x_min":0,"x_max":617,"o":"m 231 0 q 176 22 199 0 q 154 77 154 45 q 176 132 154 109 q 231 154 199 154 q 286 132 263 154 q 309 77 309 109 q 286 22 309 45 q 231 0 263 0 m 385 0 q 331 22 353 0 q 309 77 309 45 q 331 132 309 109 q 385 154 353 154 q 440 132 418 154 q 463 77 463 109 q 440 22 463 45 q 385 0 417 0 m 77 154 q 22 176 45 154 q 0 231 0 199 q 22 286 0 263 q 77 309 45 309 q 132 286 109 309 q 154 231 154 263 q 132 176 154 199 q 77 154 109 154 m 540 154 q 486 176 508 154 q 463 231 463 199 q 486 286 463 263 q 540 309 508 309 q 594 286 572 309 q 617 231 617 263 q 594 176 617 199 q 540 154 572 154 m 77 309 q 22 331 45 309 q 0 385 0 353 q 22 440 0 418 q 77 463 45 463 q 132 440 109 463 q 154 385 154 417 q 132 331 154 353 q 77 309 109 309 m 540 309 q 486 331 508 309 q 463 385 463 353 q 486 440 463 418 q 540 463 508 463 q 594 440 572 463 q 617 385 617 417 q 594 331 617 353 q 540 309 572 309 m 77 463 q 22 486 45 463 q 0 540 0 508 q 22 594 0 572 q 77 617 45 617 q 132 594 109 617 q 154 540 154 572 q 132 486 154 508 q 77 463 109 463 m 540 463 q 486 486 508 463 q 463 540 463 508 q 486 594 463 572 q 540 617 508 617 q 594 594 572 617 q 617 540 617 572 q 594 486 617 508 q 540 463 572 463 m 231 617 q 176 640 199 617 q 154 694 154 662 q 176 749 154 726 q 231 771 199 771 q 286 749 263 771 q 309 694 309 726 q 286 640 309 662 q 231 617 263 617 m 385 617 q 331 640 353 617 q 309 694 309 662 q 331 749 309 726 q 385 771 353 771 q 440 749 418 771 q 463 694 463 726 q 440 640 463 662 q 385 617 417 617 m 540 617 q 486 640 508 617 q 463 694 463 662 q 486 749 463 726 q 540 771 508 771 q 594 749 572 771 q 617 694 617 726 q 594 640 617 662 q 540 617 572 617 m 540 771 q 486 794 508 771 q 463 848 463 817 q 486 903 463 880 q 540 926 508 926 q 594 903 572 926 q 617 848 617 880 q 594 794 617 817 q 540 771 572 771 m 540 926 q 486 948 508 926 q 463 1003 463 971 q 486 1057 463 1035 q 540 1080 508 1080 q 594 1057 572 1080 q 617 1003 617 1035 q 594 948 617 970 q 540 926 572 926 z "},"e":{"ha":771,"x_min":0,"x_max":617,"o":"m 231 0 q 176 22 199 0 q 154 77 154 45 q 176 132 154 109 q 231 154 199 154 q 286 132 263 154 q 309 77 309 109 q 286 22 309 45 q 231 0 263 0 m 385 0 q 331 22 353 0 q 309 77 309 45 q 331 132 309 109 q 385 154 353 154 q 440 132 418 154 q 463 77 463 109 q 440 22 463 45 q 385 0 417 0 m 540 0 q 486 22 508 0 q 463 77 463 45 q 486 132 463 109 q 540 154 508 154 q 594 132 572 154 q 617 77 617 109 q 594 22 617 45 q 540 0 572 0 m 77 154 q 22 176 45 154 q 0 231 0 199 q 22 286 0 263 q 77 309 45 309 q 132 286 109 309 q 154 231 154 263 q 132 176 154 199 q 77 154 109 154 m 77 309 q 22 331 45 309 q 0 385 0 353 q 22 440 0 418 q 77 463 45 463 q 132 440 109 463 q 154 385 154 417 q 132 331 154 353 q 77 309 109 309 m 231 309 q 176 331 199 309 q 154 385 154 353 q 176 440 154 418 q 231 463 199 463 q 286 440 263 463 q 309 385 309 417 q 286 331 309 353 q 231 309 263 309 m 385 309 q 331 331 353 309 q 309 385 309 353 q 331 440 309 418 q 385 463 353 463 q 440 440 418 463 q 463 385 463 417 q 440 331 463 353 q 385 309 417 309 m 540 309 q 486 331 508 309 q 463 385 463 353 q 486 440 463 418 q 540 463 508 463 q 594 440 572 463 q 617 385 617 417 q 594 331 617 353 q 540 309 572 309 m 77 463 q 22 486 45 463 q 0 540 0 508 q 22 594 0 572 q 77 617 45 617 q 132 594 109 617 q 154 540 154 572 q 132 486 154 508 q 77 463 109 463 m 540 463 q 486 486 508 463 q 463 540 463 508 q 486 594 463 572 q 540 617 508 617 q 594 594 572 617 q 617 540 617 572 q 594 486 617 508 q 540 463 572 463 m 231 617 q 176 640 199 617 q 154 694 154 662 q 176 749 154 726 q 231 771 199 771 q 286 749 263 771 q 309 694 309 726 q 286 640 309 662 q 231 617 263 617 m 385 617 q 331 640 353 617 q 309 694 309 662 q 331 749 309 726 q 385 771 353 771 q 440 749 418 771 q 463 694 463 726 q 440 640 463 662 q 385 617 417 617 z "},"f":{"ha":771,"x_min":0,"x_max":617,"o":"m 231 0 q 176 22 199 0 q 154 77 154 45 q 176 132 154 109 q 231 154 199 154 q 286 132 263 154 q 309 77 309 109 q 286 22 309 45 q 231 0 263 0 m 231 154 q 176 176 199 154 q 154 231 154 199 q 176 286 154 263 q 231 309 199 309 q 286 286 263 309 q 309 231 309 263 q 286 176 309 199 q 231 154 263 154 m 231 309 q 176 331 199 309 q 154 385 154 353 q 176 440 154 418 q 231 463 199 463 q 286 440 263 463 q 309 385 309 417 q 286 331 309 353 q 231 309 263 309 m 231 463 q 176 486 199 463 q 154 540 154 508 q 176 594 154 572 q 231 617 199 617 q 286 594 263 617 q 309 540 309 572 q 286 486 309 508 q 231 463 263 463 m 77 617 q 22 640 45 617 q 0 694 0 662 q 22 749 0 726 q 77 771 45 771 q 132 749 109 771 q 154 694 154 726 q 132 640 154 662 q 77 617 109 617 m 231 617 q 176 640 199 617 q 154 694 154 662 q 176 749 154 726 q 231 771 199 771 q 286 749 263 771 q 309 694 309 726 q 286 640 309 662 q 231 617 263 617 m 385 617 q 331 640 353 617 q 309 694 309 662 q 331 749 309 726 q 385 771 353 771 q 440 749 418 771 q 463 694 463 726 q 440 640 463 662 q 385 617 417 617 m 540 617 q 486 640 508 617 q 463 694 463 662 q 486 749 463 726 q 540 771 508 771 q 594 749 572 771 q 617 694 617 726 q 594 640 617 662 q 540 617 572 617 m 231 771 q 176 794 199 771 q 154 848 154 817 q 176 903 154 880 q 231 926 199 926 q 286 903 263 926 q 309 848 309 880 q 286 794 309 817 q 231 771 263 771 m 385 926 q 331 948 353 926 q 309 1003 309 971 q 331 1057 309 1035 q 385 1080 353 1080 q 440 1057 418 1080 q 463 1003 463 1035 q 440 948 463 970 q 385 926 417 926 m 540 926 q 486 948 508 926 q 463 1003 463 971 q 486 1057 463 1035 q 540 1080 508 1080 q 594 1057 572 1080 q 617 1003 617 1035 q 594 948 617 970 q 540 926 572 926 z "},"g":{"ha":771,"x_min":0,"x_max":617,"o":"m 77 -309 q 22 -286 45 -309 q 0 -231 0 -263 q 22 -176 0 -199 q 77 -154 45 -154 q 132 -176 109 -154 q 154 -231 154 -199 q 132 -286 154 -263 q 77 -309 109 -309 m 231 -309 q 176 -286 199 -309 q 154 -231 154 -263 q 176 -176 154 -199 q 231 -154 199 -154 q 286 -176 263 -154 q 309 -231 309 -199 q 286 -286 309 -263 q 231 -309 263 -309 m 385 -309 q 331 -286 353 -309 q 309 -231 309 -263 q 331 -176 309 -199 q 385 -154 353 -154 q 440 -176 418 -154 q 463 -231 463 -199 q 440 -286 463 -263 q 385 -309 417 -309 m 540 -154 q 486 -132 508 -154 q 463 -77 463 -109 q 486 -22 463 -45 q 540 0 508 0 q 594 -22 572 0 q 617 -77 617 -45 q 594 -132 617 -109 q 540 -154 572 -154 m 231 0 q 176 22 199 0 q 154 77 154 45 q 176 132 154 109 q 231 154 199 154 q 286 132 263 154 q 309 77 309 109 q 286 22 309 45 q 231 0 263 0 m 385 0 q 331 22 353 0 q 309 77 309 45 q 331 132 309 109 q 385 154 353 154 q 440 132 418 154 q 463 77 463 109 q 440 22 463 45 q 385 0 417 0 m 540 0 q 486 22 508 0 q 463 77 463 45 q 486 132 463 109 q 540 154 508 154 q 594 132 572 154 q 617 77 617 109 q 594 22 617 45 q 540 0 572 0 m 77 154 q 22 176 45 154 q 0 231 0 199 q 22 286 0 263 q 77 309 45 309 q 132 286 109 309 q 154 231 154 263 q 132 176 154 199 q 77 154 109 154 m 540 154 q 486 176 508 154 q 463 231 463 199 q 486 286 463 263 q 540 309 508 309 q 594 286 572 309 q 617 231 617 263 q 594 176 617 199 q 540 154 572 154 m 77 309 q 22 331 45 309 q 0 385 0 353 q 22 440 0 418 q 77 463 45 463 q 132 440 109 463 q 154 385 154 417 q 132 331 154 353 q 77 309 109 309 m 540 309 q 486 331 508 309 q 463 385 463 353 q 486 440 463 418 q 540 463 508 463 q 594 440 572 463 q 617 385 617 417 q 594 331 617 353 q 540 309 572 309 m 77 463 q 22 486 45 463 q 0 540 0 508 q 22 594 0 572 q 77 617 45 617 q 132 594 109 617 q 154 540 154 572 q 132 486 154 508 q 77 463 109 463 m 540 463 q 486 486 508 463 q 463 540 463 508 q 486 594 463 572 q 540 617 508 617 q 594 594 572 617 q 617 540 617 572 q 594 486 617 508 q 540 463 572 463 m 231 617 q 176 640 199 617 q 154 694 154 662 q 176 749 154 726 q 231 771 199 771 q 286 749 263 771 q 309 694 309 726 q 286 640 309 662 q 231 617 263 617 m 385 617 q 331 640 353 617 q 309 694 309 662 q 331 749 309 726 q 385 771 353 771 q 440 749 418 771 q 463 694 463 726 q 440 640 463 662 q 385 617 417 617 m 540 617 q 486 640 508 617 q 463 694 463 662 q 486 749 463 726 q 540 771 508 771 q 594 749 572 771 q 617 694 617 726 q 594 640 617 662 q 540 617 572 617 z "},"h":{"ha":771,"x_min":0,"x_max":617,"o":"m 77 0 q 22 22 45 0 q 0 77 0 45 q 22 132 0 109 q 77 154 45 154 q 132 132 109 154 q 154 77 154 109 q 132 22 154 45 q 77 0 109 0 m 540 0 q 486 22 508 0 q 463 77 463 45 q 486 132 463 109 q 540 154 508 154 q 594 132 572 154 q 617 77 617 109 q 594 22 617 45 q 540 0 572 0 m 77 154 q 22 176 45 154 q 0 231 0 199 q 22 286 0 263 q 77 309 45 309 q 132 286 109 309 q 154 231 154 263 q 132 176 154 199 q 77 154 109 154 m 540 154 q 486 176 508 154 q 463 231 463 199 q 486 286 463 263 q 540 309 508 309 q 594 286 572 309 q 617 231 617 263 q 594 176 617 199 q 540 154 572 154 m 77 309 q 22 331 45 309 q 0 385 0 353 q 22 440 0 418 q 77 463 45 463 q 132 440 109 463 q 154 385 154 417 q 132 331 154 353 q 77 309 109 309 m 540 309 q 486 331 508 309 q 463 385 463 353 q 486 440 463 418 q 540 463 508 463 q 594 440 572 463 q 617 385 617 417 q 594 331 617 353 q 540 309 572 309 m 77 463 q 22 486 45 463 q 0 540 0 508 q 22 594 0 572 q 77 617 45 617 q 132 594 109 617 q 154 540 154 572 q 132 486 154 508 q 77 463 109 463 m 231 463 q 176 486 199 463 q 154 540 154 508 q 176 594 154 572 q 231 617 199 617 q 286 594 263 617 q 309 540 309 572 q 286 486 309 508 q 231 463 263 463 m 540 463 q 486 486 508 463 q 463 540 463 508 q 486 594 463 572 q 540 617 508 617 q 594 594 572 617 q 617 540 617 572 q 594 486 617 508 q 540 463 572 463 m 77 617 q 22 640 45 617 q 0 694 0 662 q 22 749 0 726 q 77 771 45 771 q 132 749 109 771 q 154 694 154 726 q 132 640 154 662 q 77 617 109 617 m 385 617 q 331 640 353 617 q 309 694 309 662 q 331 749 309 726 q 385 771 353 771 q 440 749 418 771 q 463 694 463 726 q 440 640 463 662 q 385 617 417 617 m 77 771 q 22 794 45 771 q 0 848 0 817 q 22 903 0 880 q 77 926 45 926 q 132 903 109 926 q 154 848 154 880 q 132 794 154 817 q 77 771 109 771 m 77 926 q 22 948 45 926 q 0 1003 0 971 q 22 1057 0 1035 q 77 1080 45 1080 q 132 1057 109 1080 q 154 1003 154 1035 q 132 948 154 970 q 77 926 109 926 z "},"i":{"ha":617,"x_min":0,"x_max":463,"o":"m 231 0 q 176 22 199 0 q 154 77 154 45 q 176 132 154 109 q 231 154 199 154 q 286 132 263 154 q 309 77 309 109 q 286 22 309 45 q 231 0 263 0 m 385 0 q 331 22 353 0 q 309 77 309 45 q 331 132 309 109 q 385 154 353 154 q 440 132 418 154 q 463 77 463 109 q 440 22 463 45 q 385 0 417 0 m 231 154 q 176 176 199 154 q 154 231 154 199 q 176 286 154 263 q 231 309 199 309 q 286 286 263 309 q 309 231 309 263 q 286 176 309 199 q 231 154 263 154 m 231 309 q 176 331 199 309 q 154 385 154 353 q 176 440 154 418 q 231 463 199 463 q 286 440 263 463 q 309 385 309 417 q 286 331 309 353 q 231 309 263 309 m 231 463 q 176 486 199 463 q 154 540 154 508 q 176 594 154 572 q 231 617 199 617 q 286 594 263 617 q 309 540 309 572 q 286 486 309 508 q 231 463 263 463 m 77 617 q 22 640 45 617 q 0 694 0 662 q 22 749 0 726 q 77 771 45 771 q 132 749 109 771 q 154 694 154 726 q 132 640 154 662 q 77 617 109 617 m 231 617 q 176 640 199 617 q 154 694 154 662 q 176 749 154 726 q 231 771 199 771 q 286 749 263 771 q 309 694 309 726 q 286 640 309 662 q 231 617 263 617 m 231 926 q 176 948 199 926 q 154 1003 154 971 q 176 1057 154 1035 q 231 1080 199 1080 q 286 1057 263 1080 q 309 1003 309 1035 q 286 948 309 970 q 231 926 263 926 z "},"j":{"ha":463,"x_min":0,"x_max":309,"o":"m 77 -309 q 22 -286 45 -309 q 0 -231 0 -263 q 22 -176 0 -199 q 77 -154 45 -154 q 132 -176 109 -154 q 154 -231 154 -199 q 132 -286 154 -263 q 77 -309 109 -309 m 231 -154 q 176 -132 199 -154 q 154 -77 154 -109 q 176 -22 154 -45 q 231 0 199 0 q 286 -22 263 0 q 309 -77 309 -45 q 286 -132 309 -109 q 231 -154 263 -154 m 231 0 q 176 22 199 0 q 154 77 154 45 q 176 132 154 109 q 231 154 199 154 q 286 132 263 154 q 309 77 309 109 q 286 22 309 45 q 231 0 263 0 m 231 154 q 176 176 199 154 q 154 231 154 199 q 176 286 154 263 q 231 309 199 309 q 286 286 263 309 q 309 231 309 263 q 286 176 309 199 q 231 154 263 154 m 231 309 q 176 331 199 309 q 154 385 154 353 q 176 440 154 418 q 231 463 199 463 q 286 440 263 463 q 309 385 309 417 q 286 331 309 353 q 231 309 263 309 m 231 463 q 176 486 199 463 q 154 540 154 508 q 176 594 154 572 q 231 617 199 617 q 286 594 263 617 q 309 540 309 572 q 286 486 309 508 q 231 463 263 463 m 77 617 q 22 640 45 617 q 0 694 0 662 q 22 749 0 726 q 77 771 45 771 q 132 749 109 771 q 154 694 154 726 q 132 640 154 662 q 77 617 109 617 m 231 617 q 176 640 199 617 q 154 694 154 662 q 176 749 154 726 q 231 771 199 771 q 286 749 263 771 q 309 694 309 726 q 286 640 309 662 q 231 617 263 617 m 231 926 q 176 948 199 926 q 154 1003 154 971 q 176 1057 154 1035 q 231 1080 199 1080 q 286 1057 263 1080 q 309 1003 309 1035 q 286 948 309 970 q 231 926 263 926 z "},"k":{"ha":771,"x_min":0,"x_max":617,"o":"m 77 0 q 22 22 45 0 q 0 77 0 45 q 22 132 0 109 q 77 154 45 154 q 132 132 109 154 q 154 77 154 109 q 132 22 154 45 q 77 0 109 0 m 540 0 q 486 22 508 0 q 463 77 463 45 q 486 132 463 109 q 540 154 508 154 q 594 132 572 154 q 617 77 617 109 q 594 22 617 45 q 540 0 572 0 m 77 154 q 22 176 45 154 q 0 231 0 199 q 22 286 0 263 q 77 309 45 309 q 132 286 109 309 q 154 231 154 263 q 132 176 154 199 q 77 154 109 154 m 385 154 q 331 176 353 154 q 309 231 309 199 q 331 286 309 263 q 385 309 353 309 q 440 286 418 309 q 463 231 463 263 q 440 176 463 199 q 385 154 417 154 m 77 309 q 22 331 45 309 q 0 385 0 353 q 22 440 0 418 q 77 463 45 463 q 132 440 109 463 q 154 385 154 417 q 132 331 154 353 q 77 309 109 309 m 231 309 q 176 331 199 309 q 154 385 154 353 q 176 440 154 418 q 231 463 199 463 q 286 440 263 463 q 309 385 309 417 q 286 331 309 353 q 231 309 263 309 m 77 463 q 22 486 45 463 q 0 540 0 508 q 22 594 0 572 q 77 617 45 617 q 132 594 109 617 q 154 540 154 572 q 132 486 154 508 q 77 463 109 463 m 385 463 q 331 486 353 463 q 309 540 309 508 q 331 594 309 572 q 385 617 353 617 q 440 594 418 617 q 463 540 463 572 q 440 486 463 508 q 385 463 417 463 m 77 617 q 22 640 45 617 q 0 694 0 662 q 22 749 0 726 q 77 771 45 771 q 132 749 109 771 q 154 694 154 726 q 132 640 154 662 q 77 617 109 617 m 540 617 q 486 640 508 617 q 463 694 463 662 q 486 749 463 726 q 540 771 508 771 q 594 749 572 771 q 617 694 617 726 q 594 640 617 662 q 540 617 572 617 m 77 771 q 22 794 45 771 q 0 848 0 817 q 22 903 0 880 q 77 926 45 926 q 132 903 109 926 q 154 848 154 880 q 132 794 154 817 q 77 771 109 771 m 77 926 q 22 948 45 926 q 0 1003 0 971 q 22 1057 0 1035 q 77 1080 45 1080 q 132 1057 109 1080 q 154 1003 154 1035 q 132 948 154 970 q 77 926 109 926 z "},"l":{"ha":309,"x_min":0,"x_max":154,"o":"m 77 0 q 22 22 45 0 q 0 77 0 45 q 22 132 0 109 q 77 154 45 154 q 132 132 109 154 q 154 77 154 109 q 132 22 154 45 q 77 0 109 0 m 77 154 q 22 176 45 154 q 0 231 0 199 q 22 286 0 263 q 77 309 45 309 q 132 286 109 309 q 154 231 154 263 q 132 176 154 199 q 77 154 109 154 m 77 309 q 22 331 45 309 q 0 385 0 353 q 22 440 0 418 q 77 463 45 463 q 132 440 109 463 q 154 385 154 417 q 132 331 154 353 q 77 309 109 309 m 77 463 q 22 486 45 463 q 0 540 0 508 q 22 594 0 572 q 77 617 45 617 q 132 594 109 617 q 154 540 154 572 q 132 486 154 508 q 77 463 109 463 m 77 617 q 22 640 45 617 q 0 694 0 662 q 22 749 0 726 q 77 771 45 771 q 132 749 109 771 q 154 694 154 726 q 132 640 154 662 q 77 617 109 617 m 77 771 q 22 794 45 771 q 0 848 0 817 q 22 903 0 880 q 77 926 45 926 q 132 903 109 926 q 154 848 154 880 q 132 794 154 817 q 77 771 109 771 m 77 926 q 22 948 45 926 q 0 1003 0 971 q 22 1057 0 1035 q 77 1080 45 1080 q 132 1057 109 1080 q 154 1003 154 1035 q 132 948 154 970 q 77 926 109 926 z "},"m":{"ha":1234,"x_min":0,"x_max":1080,"o":"m 77 0 q 22 22 45 0 q 0 77 0 45 q 22 132 0 109 q 77 154 45 154 q 132 132 109 154 q 154 77 154 109 q 132 22 154 45 q 77 0 109 0 m 540 0 q 486 22 508 0 q 463 77 463 45 q 486 132 463 109 q 540 154 508 154 q 594 132 572 154 q 617 77 617 109 q 594 22 617 45 q 540 0 572 0 m 1003 0 q 948 22 970 0 q 926 77 926 45 q 948 132 926 109 q 1003 154 971 154 q 1057 132 1035 154 q 1080 77 1080 109 q 1057 22 1080 45 q 1003 0 1035 0 m 77 154 q 22 176 45 154 q 0 231 0 199 q 22 286 0 263 q 77 309 45 309 q 132 286 109 309 q 154 231 154 263 q 132 176 154 199 q 77 154 109 154 m 540 154 q 486 176 508 154 q 463 231 463 199 q 486 286 463 263 q 540 309 508 309 q 594 286 572 309 q 617 231 617 263 q 594 176 617 199 q 540 154 572 154 m 1003 154 q 948 176 970 154 q 926 231 926 199 q 948 286 926 263 q 1003 309 971 309 q 1057 286 1035 309 q 1080 231 1080 263 q 1057 176 1080 199 q 1003 154 1035 154 m 77 309 q 22 331 45 309 q 0 385 0 353 q 22 440 0 418 q 77 463 45 463 q 132 440 109 463 q 154 385 154 417 q 132 331 154 353 q 77 309 109 309 m 540 309 q 486 331 508 309 q 463 385 463 353 q 486 440 463 418 q 540 463 508 463 q 594 440 572 463 q 617 385 617 417 q 594 331 617 353 q 540 309 572 309 m 1003 309 q 948 331 970 309 q 926 385 926 353 q 948 440 926 418 q 1003 463 971 463 q 1057 440 1035 463 q 1080 385 1080 417 q 1057 331 1080 353 q 1003 309 1035 309 m 77 463 q 22 486 45 463 q 0 540 0 508 q 22 594 0 572 q 77 617 45 617 q 132 594 109 617 q 154 540 154 572 q 132 486 154 508 q 77 463 109 463 m 231 463 q 176 486 199 463 q 154 540 154 508 q 176 594 154 572 q 231 617 199 617 q 286 594 263 617 q 309 540 309 572 q 286 486 309 508 q 231 463 263 463 m 540 463 q 486 486 508 463 q 463 540 463 508 q 486 594 463 572 q 540 617 508 617 q 594 594 572 617 q 617 540 617 572 q 594 486 617 508 q 540 463 572 463 m 694 463 q 640 486 662 463 q 617 540 617 508 q 640 594 617 572 q 694 617 662 617 q 749 594 726 617 q 771 540 771 572 q 749 486 771 508 q 694 463 726 463 m 1003 463 q 948 486 970 463 q 926 540 926 508 q 948 594 926 572 q 1003 617 971 617 q 1057 594 1035 617 q 1080 540 1080 572 q 1057 486 1080 508 q 1003 463 1035 463 m 77 617 q 22 640 45 617 q 0 694 0 662 q 22 749 0 726 q 77 771 45 771 q 132 749 109 771 q 154 694 154 726 q 132 640 154 662 q 77 617 109 617 m 385 617 q 331 640 353 617 q 309 694 309 662 q 331 749 309 726 q 385 771 353 771 q 440 749 418 771 q 463 694 463 726 q 440 640 463 662 q 385 617 417 617 m 848 617 q 794 640 817 617 q 771 694 771 662 q 794 749 771 726 q 848 771 817 771 q 903 749 880 771 q 926 694 926 726 q 903 640 926 662 q 848 617 880 617 z "},"n":{"ha":771,"x_min":0,"x_max":617,"o":"m 77 0 q 22 22 45 0 q 0 77 0 45 q 22 132 0 109 q 77 154 45 154 q 132 132 109 154 q 154 77 154 109 q 132 22 154 45 q 77 0 109 0 m 540 0 q 486 22 508 0 q 463 77 463 45 q 486 132 463 109 q 540 154 508 154 q 594 132 572 154 q 617 77 617 109 q 594 22 617 45 q 540 0 572 0 m 77 154 q 22 176 45 154 q 0 231 0 199 q 22 286 0 263 q 77 309 45 309 q 132 286 109 309 q 154 231 154 263 q 132 176 154 199 q 77 154 109 154 m 540 154 q 486 176 508 154 q 463 231 463 199 q 486 286 463 263 q 540 309 508 309 q 594 286 572 309 q 617 231 617 263 q 594 176 617 199 q 540 154 572 154 m 77 309 q 22 331 45 309 q 0 385 0 353 q 22 440 0 418 q 77 463 45 463 q 132 440 109 463 q 154 385 154 417 q 132 331 154 353 q 77 309 109 309 m 540 309 q 486 331 508 309 q 463 385 463 353 q 486 440 463 418 q 540 463 508 463 q 594 440 572 463 q 617 385 617 417 q 594 331 617 353 q 540 309 572 309 m 77 463 q 22 486 45 463 q 0 540 0 508 q 22 594 0 572 q 77 617 45 617 q 132 594 109 617 q 154 540 154 572 q 132 486 154 508 q 77 463 109 463 m 231 463 q 176 486 199 463 q 154 540 154 508 q 176 594 154 572 q 231 617 199 617 q 286 594 263 617 q 309 540 309 572 q 286 486 309 508 q 231 463 263 463 m 540 463 q 486 486 508 463 q 463 540 463 508 q 486 594 463 572 q 540 617 508 617 q 594 594 572 617 q 617 540 617 572 q 594 486 617 508 q 540 463 572 463 m 77 617 q 22 640 45 617 q 0 694 0 662 q 22 749 0 726 q 77 771 45 771 q 132 749 109 771 q 154 694 154 726 q 132 640 154 662 q 77 617 109 617 m 385 617 q 331 640 353 617 q 309 694 309 662 q 331 749 309 726 q 385 771 353 771 q 440 749 418 771 q 463 694 463 726 q 440 640 463 662 q 385 617 417 617 z "},"o":{"ha":771,"x_min":0,"x_max":617,"o":"m 231 0 q 176 22 199 0 q 154 77 154 45 q 176 132 154 109 q 231 154 199 154 q 286 132 263 154 q 309 77 309 109 q 286 22 309 45 q 231 0 263 0 m 385 0 q 331 22 353 0 q 309 77 309 45 q 331 132 309 109 q 385 154 353 154 q 440 132 418 154 q 463 77 463 109 q 440 22 463 45 q 385 0 417 0 m 77 154 q 22 176 45 154 q 0 231 0 199 q 22 286 0 263 q 77 309 45 309 q 132 286 109 309 q 154 231 154 263 q 132 176 154 199 q 77 154 109 154 m 540 154 q 486 176 508 154 q 463 231 463 199 q 486 286 463 263 q 540 309 508 309 q 594 286 572 309 q 617 231 617 263 q 594 176 617 199 q 540 154 572 154 m 77 309 q 22 331 45 309 q 0 385 0 353 q 22 440 0 418 q 77 463 45 463 q 132 440 109 463 q 154 385 154 417 q 132 331 154 353 q 77 309 109 309 m 540 309 q 486 331 508 309 q 463 385 463 353 q 486 440 463 418 q 540 463 508 463 q 594 440 572 463 q 617 385 617 417 q 594 331 617 353 q 540 309 572 309 m 77 463 q 22 486 45 463 q 0 540 0 508 q 22 594 0 572 q 77 617 45 617 q 132 594 109 617 q 154 540 154 572 q 132 486 154 508 q 77 463 109 463 m 540 463 q 486 486 508 463 q 463 540 463 508 q 486 594 463 572 q 540 617 508 617 q 594 594 572 617 q 617 540 617 572 q 594 486 617 508 q 540 463 572 463 m 231 617 q 176 640 199 617 q 154 694 154 662 q 176 749 154 726 q 231 771 199 771 q 286 749 263 771 q 309 694 309 726 q 286 640 309 662 q 231 617 263 617 m 385 617 q 331 640 353 617 q 309 694 309 662 q 331 749 309 726 q 385 771 353 771 q 440 749 418 771 q 463 694 463 726 q 440 640 463 662 q 385 617 417 617 z "},"p":{"ha":771,"x_min":0,"x_max":617,"o":"m 77 -309 q 22 -286 45 -309 q 0 -231 0 -263 q 22 -176 0 -199 q 77 -154 45 -154 q 132 -176 109 -154 q 154 -231 154 -199 q 132 -286 154 -263 q 77 -309 109 -309 m 77 -154 q 22 -132 45 -154 q 0 -77 0 -109 q 22 -22 0 -45 q 77 0 45 0 q 132 -22 109 0 q 154 -77 154 -45 q 132 -132 154 -109 q 77 -154 109 -154 m 77 0 q 22 22 45 0 q 0 77 0 45 q 22 132 0 109 q 77 154 45 154 q 132 132 109 154 q 154 77 154 109 q 132 22 154 45 q 77 0 109 0 m 231 0 q 176 22 199 0 q 154 77 154 45 q 176 132 154 109 q 231 154 199 154 q 286 132 263 154 q 309 77 309 109 q 286 22 309 45 q 231 0 263 0 m 385 0 q 331 22 353 0 q 309 77 309 45 q 331 132 309 109 q 385 154 353 154 q 440 132 418 154 q 463 77 463 109 q 440 22 463 45 q 385 0 417 0 m 77 154 q 22 176 45 154 q 0 231 0 199 q 22 286 0 263 q 77 309 45 309 q 132 286 109 309 q 154 231 154 263 q 132 176 154 199 q 77 154 109 154 m 540 154 q 486 176 508 154 q 463 231 463 199 q 486 286 463 263 q 540 309 508 309 q 594 286 572 309 q 617 231 617 263 q 594 176 617 199 q 540 154 572 154 m 77 309 q 22 331 45 309 q 0 385 0 353 q 22 440 0 418 q 77 463 45 463 q 132 440 109 463 q 154 385 154 417 q 132 331 154 353 q 77 309 109 309 m 540 309 q 486 331 508 309 q 463 385 463 353 q 486 440 463 418 q 540 463 508 463 q 594 440 572 463 q 617 385 617 417 q 594 331 617 353 q 540 309 572 309 m 77 463 q 22 486 45 463 q 0 540 0 508 q 22 594 0 572 q 77 617 45 617 q 132 594 109 617 q 154 540 154 572 q 132 486 154 508 q 77 463 109 463 m 540 463 q 486 486 508 463 q 463 540 463 508 q 486 594 463 572 q 540 617 508 617 q 594 594 572 617 q 617 540 617 572 q 594 486 617 508 q 540 463 572 463 m 77 617 q 22 640 45 617 q 0 694 0 662 q 22 749 0 726 q 77 771 45 771 q 132 749 109 771 q 154 694 154 726 q 132 640 154 662 q 77 617 109 617 m 231 617 q 176 640 199 617 q 154 694 154 662 q 176 749 154 726 q 231 771 199 771 q 286 749 263 771 q 309 694 309 726 q 286 640 309 662 q 231 617 263 617 m 385 617 q 331 640 353 617 q 309 694 309 662 q 331 749 309 726 q 385 771 353 771 q 440 749 418 771 q 463 694 463 726 q 440 640 463 662 q 385 617 417 617 z "},"q":{"ha":771,"x_min":0,"x_max":617,"o":"m 540 -309 q 486 -286 508 -309 q 463 -231 463 -263 q 486 -176 463 -199 q 540 -154 508 -154 q 594 -176 572 -154 q 617 -231 617 -199 q 594 -286 617 -263 q 540 -309 572 -309 m 540 -154 q 486 -132 508 -154 q 463 -77 463 -109 q 486 -22 463 -45 q 540 0 508 0 q 594 -22 572 0 q 617 -77 617 -45 q 594 -132 617 -109 q 540 -154 572 -154 m 231 0 q 176 22 199 0 q 154 77 154 45 q 176 132 154 109 q 231 154 199 154 q 286 132 263 154 q 309 77 309 109 q 286 22 309 45 q 231 0 263 0 m 385 0 q 331 22 353 0 q 309 77 309 45 q 331 132 309 109 q 385 154 353 154 q 440 132 418 154 q 463 77 463 109 q 440 22 463 45 q 385 0 417 0 m 540 0 q 486 22 508 0 q 463 77 463 45 q 486 132 463 109 q 540 154 508 154 q 594 132 572 154 q 617 77 617 109 q 594 22 617 45 q 540 0 572 0 m 77 154 q 22 176 45 154 q 0 231 0 199 q 22 286 0 263 q 77 309 45 309 q 132 286 109 309 q 154 231 154 263 q 132 176 154 199 q 77 154 109 154 m 540 154 q 486 176 508 154 q 463 231 463 199 q 486 286 463 263 q 540 309 508 309 q 594 286 572 309 q 617 231 617 263 q 594 176 617 199 q 540 154 572 154 m 77 309 q 22 331 45 309 q 0 385 0 353 q 22 440 0 418 q 77 463 45 463 q 132 440 109 463 q 154 385 154 417 q 132 331 154 353 q 77 309 109 309 m 540 309 q 486 331 508 309 q 463 385 463 353 q 486 440 463 418 q 540 463 508 463 q 594 440 572 463 q 617 385 617 417 q 594 331 617 353 q 540 309 572 309 m 77 463 q 22 486 45 463 q 0 540 0 508 q 22 594 0 572 q 77 617 45 617 q 132 594 109 617 q 154 540 154 572 q 132 486 154 508 q 77 463 109 463 m 540 463 q 486 486 508 463 q 463 540 463 508 q 486 594 463 572 q 540 617 508 617 q 594 594 572 617 q 617 540 617 572 q 594 486 617 508 q 540 463 572 463 m 231 617 q 176 640 199 617 q 154 694 154 662 q 176 749 154 726 q 231 771 199 771 q 286 749 263 771 q 309 694 309 726 q 286 640 309 662 q 231 617 263 617 m 385 617 q 331 640 353 617 q 309 694 309 662 q 331 749 309 726 q 385 771 353 771 q 440 749 418 771 q 463 694 463 726 q 440 640 463 662 q 385 617 417 617 z "},"r":{"ha":771,"x_min":0,"x_max":617,"o":"m 77 0 q 22 22 45 0 q 0 77 0 45 q 22 132 0 109 q 77 154 45 154 q 132 132 109 154 q 154 77 154 109 q 132 22 154 45 q 77 0 109 0 m 77 154 q 22 176 45 154 q 0 231 0 199 q 22 286 0 263 q 77 309 45 309 q 132 286 109 309 q 154 231 154 263 q 132 176 154 199 q 77 154 109 154 m 77 309 q 22 331 45 309 q 0 385 0 353 q 22 440 0 418 q 77 463 45 463 q 132 440 109 463 q 154 385 154 417 q 132 331 154 353 q 77 309 109 309 m 77 463 q 22 486 45 463 q 0 540 0 508 q 22 594 0 572 q 77 617 45 617 q 132 594 109 617 q 154 540 154 572 q 132 486 154 508 q 77 463 109 463 m 231 463 q 176 486 199 463 q 154 540 154 508 q 176 594 154 572 q 231 617 199 617 q 286 594 263 617 q 309 540 309 572 q 286 486 309 508 q 231 463 263 463 m 77 617 q 22 640 45 617 q 0 694 0 662 q 22 749 0 726 q 77 771 45 771 q 132 749 109 771 q 154 694 154 726 q 132 640 154 662 q 77 617 109 617 m 385 617 q 331 640 353 617 q 309 694 309 662 q 331 749 309 726 q 385 771 353 771 q 440 749 418 771 q 463 694 463 726 q 440 640 463 662 q 385 617 417 617 m 540 617 q 486 640 508 617 q 463 694 463 662 q 486 749 463 726 q 540 771 508 771 q 594 749 572 771 q 617 694 617 726 q 594 640 617 662 q 540 617 572 617 z "},"s":{"ha":771,"x_min":0,"x_max":617,"o":"m 77 0 q 22 22 45 0 q 0 77 0 45 q 22 132 0 109 q 77 154 45 154 q 132 132 109 154 q 154 77 154 109 q 132 22 154 45 q 77 0 109 0 m 231 0 q 176 22 199 0 q 154 77 154 45 q 176 132 154 109 q 231 154 199 154 q 286 132 263 154 q 309 77 309 109 q 286 22 309 45 q 231 0 263 0 m 385 0 q 331 22 353 0 q 309 77 309 45 q 331 132 309 109 q 385 154 353 154 q 440 132 418 154 q 463 77 463 109 q 440 22 463 45 q 385 0 417 0 m 540 154 q 486 176 508 154 q 463 231 463 199 q 486 286 463 263 q 540 309 508 309 q 594 286 572 309 q 617 231 617 263 q 594 176 617 199 q 540 154 572 154 m 231 309 q 176 331 199 309 q 154 385 154 353 q 176 440 154 418 q 231 463 199 463 q 286 440 263 463 q 309 385 309 417 q 286 331 309 353 q 231 309 263 309 m 385 309 q 331 331 353 309 q 309 385 309 353 q 331 440 309 418 q 385 463 353 463 q 440 440 418 463 q 463 385 463 417 q 440 331 463 353 q 385 309 417 309 m 77 463 q 22 486 45 463 q 0 540 0 508 q 22 594 0 572 q 77 617 45 617 q 132 594 109 617 q 154 540 154 572 q 132 486 154 508 q 77 463 109 463 m 231 617 q 176 640 199 617 q 154 694 154 662 q 176 749 154 726 q 231 771 199 771 q 286 749 263 771 q 309 694 309 726 q 286 640 309 662 q 231 617 263 617 m 385 617 q 331 640 353 617 q 309 694 309 662 q 331 749 309 726 q 385 771 353 771 q 440 749 418 771 q 463 694 463 726 q 440 640 463 662 q 385 617 417 617 m 540 617 q 486 640 508 617 q 463 694 463 662 q 486 749 463 726 q 540 771 508 771 q 594 749 572 771 q 617 694 617 726 q 594 640 617 662 q 540 617 572 617 z "},"t":{"ha":771,"x_min":0,"x_max":617,"o":"m 385 0 q 331 22 353 0 q 309 77 309 45 q 331 132 309 109 q 385 154 353 154 q 440 132 418 154 q 463 77 463 109 q 440 22 463 45 q 385 0 417 0 m 540 0 q 486 22 508 0 q 463 77 463 45 q 486 132 463 109 q 540 154 508 154 q 594 132 572 154 q 617 77 617 109 q 594 22 617 45 q 540 0 572 0 m 231 154 q 176 176 199 154 q 154 231 154 199 q 176 286 154 263 q 231 309 199 309 q 286 286 263 309 q 309 231 309 263 q 286 176 309 199 q 231 154 263 154 m 231 309 q 176 331 199 309 q 154 385 154 353 q 176 440 154 418 q 231 463 199 463 q 286 440 263 463 q 309 385 309 417 q 286 331 309 353 q 231 309 263 309 m 231 463 q 176 486 199 463 q 154 540 154 508 q 176 594 154 572 q 231 617 199 617 q 286 594 263 617 q 309 540 309 572 q 286 486 309 508 q 231 463 263 463 m 77 617 q 22 640 45 617 q 0 694 0 662 q 22 749 0 726 q 77 771 45 771 q 132 749 109 771 q 154 694 154 726 q 132 640 154 662 q 77 617 109 617 m 231 617 q 176 640 199 617 q 154 694 154 662 q 176 749 154 726 q 231 771 199 771 q 286 749 263 771 q 309 694 309 726 q 286 640 309 662 q 231 617 263 617 m 385 617 q 331 640 353 617 q 309 694 309 662 q 331 749 309 726 q 385 771 353 771 q 440 749 418 771 q 463 694 463 726 q 440 640 463 662 q 385 617 417 617 m 540 617 q 486 640 508 617 q 463 694 463 662 q 486 749 463 726 q 540 771 508 771 q 594 749 572 771 q 617 694 617 726 q 594 640 617 662 q 540 617 572 617 m 231 771 q 176 794 199 771 q 154 848 154 817 q 176 903 154 880 q 231 926 199 926 q 286 903 263 926 q 309 848 309 880 q 286 794 309 817 q 231 771 263 771 z "},"u":{"ha":771,"x_min":0,"x_max":617,"o":"m 231 0 q 176 22 199 0 q 154 77 154 45 q 176 132 154 109 q 231 154 199 154 q 286 132 263 154 q 309 77 309 109 q 286 22 309 45 q 231 0 263 0 m 385 0 q 331 22 353 0 q 309 77 309 45 q 331 132 309 109 q 385 154 353 154 q 440 132 418 154 q 463 77 463 109 q 440 22 463 45 q 385 0 417 0 m 540 0 q 486 22 508 0 q 463 77 463 45 q 486 132 463 109 q 540 154 508 154 q 594 132 572 154 q 617 77 617 109 q 594 22 617 45 q 540 0 572 0 m 77 154 q 22 176 45 154 q 0 231 0 199 q 22 286 0 263 q 77 309 45 309 q 132 286 109 309 q 154 231 154 263 q 132 176 154 199 q 77 154 109 154 m 540 154 q 486 176 508 154 q 463 231 463 199 q 486 286 463 263 q 540 309 508 309 q 594 286 572 309 q 617 231 617 263 q 594 176 617 199 q 540 154 572 154 m 77 309 q 22 331 45 309 q 0 385 0 353 q 22 440 0 418 q 77 463 45 463 q 132 440 109 463 q 154 385 154 417 q 132 331 154 353 q 77 309 109 309 m 540 309 q 486 331 508 309 q 463 385 463 353 q 486 440 463 418 q 540 463 508 463 q 594 440 572 463 q 617 385 617 417 q 594 331 617 353 q 540 309 572 309 m 77 463 q 22 486 45 463 q 0 540 0 508 q 22 594 0 572 q 77 617 45 617 q 132 594 109 617 q 154 540 154 572 q 132 486 154 508 q 77 463 109 463 m 540 463 q 486 486 508 463 q 463 540 463 508 q 486 594 463 572 q 540 617 508 617 q 594 594 572 617 q 617 540 617 572 q 594 486 617 508 q 540 463 572 463 m 77 617 q 22 640 45 617 q 0 694 0 662 q 22 749 0 726 q 77 771 45 771 q 132 749 109 771 q 154 694 154 726 q 132 640 154 662 q 77 617 109 617 m 540 617 q 486 640 508 617 q 463 694 463 662 q 486 749 463 726 q 540 771 508 771 q 594 749 572 771 q 617 694 617 726 q 594 640 617 662 q 540 617 572 617 z "},"v":{"ha":771,"x_min":0,"x_max":617,"o":"m 77 0 q 22 22 45 0 q 0 77 0 45 q 22 132 0 109 q 77 154 45 154 q 132 132 109 154 q 154 77 154 109 q 132 22 154 45 q 77 0 109 0 m 231 0 q 176 22 199 0 q 154 77 154 45 q 176 132 154 109 q 231 154 199 154 q 286 132 263 154 q 309 77 309 109 q 286 22 309 45 q 231 0 263 0 m 77 154 q 22 176 45 154 q 0 231 0 199 q 22 286 0 263 q 77 309 45 309 q 132 286 109 309 q 154 231 154 263 q 132 176 154 199 q 77 154 109 154 m 385 154 q 331 176 353 154 q 309 231 309 199 q 331 286 309 263 q 385 309 353 309 q 440 286 418 309 q 463 231 463 263 q 440 176 463 199 q 385 154 417 154 m 77 309 q 22 331 45 309 q 0 385 0 353 q 22 440 0 418 q 77 463 45 463 q 132 440 109 463 q 154 385 154 417 q 132 331 154 353 q 77 309 109 309 m 385 309 q 331 331 353 309 q 309 385 309 353 q 331 440 309 418 q 385 463 353 463 q 440 440 418 463 q 463 385 463 417 q 440 331 463 353 q 385 309 417 309 m 77 463 q 22 486 45 463 q 0 540 0 508 q 22 594 0 572 q 77 617 45 617 q 132 594 109 617 q 154 540 154 572 q 132 486 154 508 q 77 463 109 463 m 540 463 q 486 486 508 463 q 463 540 463 508 q 486 594 463 572 q 540 617 508 617 q 594 594 572 617 q 617 540 617 572 q 594 486 617 508 q 540 463 572 463 m 77 617 q 22 640 45 617 q 0 694 0 662 q 22 749 0 726 q 77 771 45 771 q 132 749 109 771 q 154 694 154 726 q 132 640 154 662 q 77 617 109 617 m 540 617 q 486 640 508 617 q 463 694 463 662 q 486 749 463 726 q 540 771 508 771 q 594 749 572 771 q 617 694 617 726 q 594 640 617 662 q 540 617 572 617 z "},"w":{"ha":926,"x_min":0,"x_max":771,"o":"m 77 0 q 22 22 45 0 q 0 77 0 45 q 22 132 0 109 q 77 154 45 154 q 132 132 109 154 q 154 77 154 109 q 132 22 154 45 q 77 0 109 0 m 231 0 q 176 22 199 0 q 154 77 154 45 q 176 132 154 109 q 231 154 199 154 q 286 132 263 154 q 309 77 309 109 q 286 22 309 45 q 231 0 263 0 m 540 0 q 486 22 508 0 q 463 77 463 45 q 486 132 463 109 q 540 154 508 154 q 594 132 572 154 q 617 77 617 109 q 594 22 617 45 q 540 0 572 0 m 77 154 q 22 176 45 154 q 0 231 0 199 q 22 286 0 263 q 77 309 45 309 q 132 286 109 309 q 154 231 154 263 q 132 176 154 199 q 77 154 109 154 m 385 154 q 331 176 353 154 q 309 231 309 199 q 331 286 309 263 q 385 309 353 309 q 440 286 418 309 q 463 231 463 263 q 440 176 463 199 q 385 154 417 154 m 694 154 q 640 176 662 154 q 617 231 617 199 q 640 286 617 263 q 694 309 662 309 q 749 286 726 309 q 771 231 771 263 q 749 176 771 199 q 694 154 726 154 m 77 309 q 22 331 45 309 q 0 385 0 353 q 22 440 0 418 q 77 463 45 463 q 132 440 109 463 q 154 385 154 417 q 132 331 154 353 q 77 309 109 309 m 385 309 q 331 331 353 309 q 309 385 309 353 q 331 440 309 418 q 385 463 353 463 q 440 440 418 463 q 463 385 463 417 q 440 331 463 353 q 385 309 417 309 m 694 309 q 640 331 662 309 q 617 385 617 353 q 640 440 617 418 q 694 463 662 463 q 749 440 726 463 q 771 385 771 417 q 749 331 771 353 q 694 309 726 309 m 77 463 q 22 486 45 463 q 0 540 0 508 q 22 594 0 572 q 77 617 45 617 q 132 594 109 617 q 154 540 154 572 q 132 486 154 508 q 77 463 109 463 m 385 463 q 331 486 353 463 q 309 540 309 508 q 331 594 309 572 q 385 617 353 617 q 440 594 418 617 q 463 540 463 572 q 440 486 463 508 q 385 463 417 463 m 694 463 q 640 486 662 463 q 617 540 617 508 q 640 594 617 572 q 694 617 662 617 q 749 594 726 617 q 771 540 771 572 q 749 486 771 508 q 694 463 726 463 m 77 617 q 22 640 45 617 q 0 694 0 662 q 22 749 0 726 q 77 771 45 771 q 132 749 109 771 q 154 694 154 726 q 132 640 154 662 q 77 617 109 617 m 385 617 q 331 640 353 617 q 309 694 309 662 q 331 749 309 726 q 385 771 353 771 q 440 749 418 771 q 463 694 463 726 q 440 640 463 662 q 385 617 417 617 m 694 617 q 640 640 662 617 q 617 694 617 662 q 640 749 617 726 q 694 771 662 771 q 749 749 726 771 q 771 694 771 726 q 749 640 771 662 q 694 617 726 617 z "},"x":{"ha":926,"x_min":0,"x_max":771,"o":"m 77 0 q 22 22 45 0 q 0 77 0 45 q 22 132 0 109 q 77 154 45 154 q 132 132 109 154 q 154 77 154 109 q 132 22 154 45 q 77 0 109 0 m 694 0 q 640 22 662 0 q 617 77 617 45 q 640 132 617 109 q 694 154 662 154 q 749 132 726 154 q 771 77 771 109 q 749 22 771 45 q 694 0 726 0 m 231 154 q 176 176 199 154 q 154 231 154 199 q 176 286 154 263 q 231 309 199 309 q 286 286 263 309 q 309 231 309 263 q 286 176 309 199 q 231 154 263 154 m 540 154 q 486 176 508 154 q 463 231 463 199 q 486 286 463 263 q 540 309 508 309 q 594 286 572 309 q 617 231 617 263 q 594 176 617 199 q 540 154 572 154 m 385 309 q 331 331 353 309 q 309 385 309 353 q 331 440 309 418 q 385 463 353 463 q 440 440 418 463 q 463 385 463 417 q 440 331 463 353 q 385 309 417 309 m 231 463 q 176 486 199 463 q 154 540 154 508 q 176 594 154 572 q 231 617 199 617 q 286 594 263 617 q 309 540 309 572 q 286 486 309 508 q 231 463 263 463 m 540 463 q 486 486 508 463 q 463 540 463 508 q 486 594 463 572 q 540 617 508 617 q 594 594 572 617 q 617 540 617 572 q 594 486 617 508 q 540 463 572 463 m 77 617 q 22 640 45 617 q 0 694 0 662 q 22 749 0 726 q 77 771 45 771 q 132 749 109 771 q 154 694 154 726 q 132 640 154 662 q 77 617 109 617 m 694 617 q 640 640 662 617 q 617 694 617 662 q 640 749 617 726 q 694 771 662 771 q 749 749 726 771 q 771 694 771 726 q 749 640 771 662 q 694 617 726 617 z "},"y":{"ha":771,"x_min":0,"x_max":617,"o":"m 231 -309 q 176 -286 199 -309 q 154 -231 154 -263 q 176 -176 154 -199 q 231 -154 199 -154 q 286 -176 263 -154 q 309 -231 309 -199 q 286 -286 309 -263 q 231 -309 263 -309 m 385 -309 q 331 -286 353 -309 q 309 -231 309 -263 q 331 -176 309 -199 q 385 -154 353 -154 q 440 -176 418 -154 q 463 -231 463 -199 q 440 -286 463 -263 q 385 -309 417 -309 m 540 -154 q 486 -132 508 -154 q 463 -77 463 -109 q 486 -22 463 -45 q 540 0 508 0 q 594 -22 572 0 q 617 -77 617 -45 q 594 -132 617 -109 q 540 -154 572 -154 m 231 0 q 176 22 199 0 q 154 77 154 45 q 176 132 154 109 q 231 154 199 154 q 286 132 263 154 q 309 77 309 109 q 286 22 309 45 q 231 0 263 0 m 385 0 q 331 22 353 0 q 309 77 309 45 q 331 132 309 109 q 385 154 353 154 q 440 132 418 154 q 463 77 463 109 q 440 22 463 45 q 385 0 417 0 m 540 0 q 486 22 508 0 q 463 77 463 45 q 486 132 463 109 q 540 154 508 154 q 594 132 572 154 q 617 77 617 109 q 594 22 617 45 q 540 0 572 0 m 77 154 q 22 176 45 154 q 0 231 0 199 q 22 286 0 263 q 77 309 45 309 q 132 286 109 309 q 154 231 154 263 q 132 176 154 199 q 77 154 109 154 m 540 154 q 486 176 508 154 q 463 231 463 199 q 486 286 463 263 q 540 309 508 309 q 594 286 572 309 q 617 231 617 263 q 594 176 617 199 q 540 154 572 154 m 77 309 q 22 331 45 309 q 0 385 0 353 q 22 440 0 418 q 77 463 45 463 q 132 440 109 463 q 154 385 154 417 q 132 331 154 353 q 77 309 109 309 m 540 309 q 486 331 508 309 q 463 385 463 353 q 486 440 463 418 q 540 463 508 463 q 594 440 572 463 q 617 385 617 417 q 594 331 617 353 q 540 309 572 309 m 77 463 q 22 486 45 463 q 0 540 0 508 q 22 594 0 572 q 77 617 45 617 q 132 594 109 617 q 154 540 154 572 q 132 486 154 508 q 77 463 109 463 m 540 463 q 486 486 508 463 q 463 540 463 508 q 486 594 463 572 q 540 617 508 617 q 594 594 572 617 q 617 540 617 572 q 594 486 617 508 q 540 463 572 463 m 77 617 q 22 640 45 617 q 0 694 0 662 q 22 749 0 726 q 77 771 45 771 q 132 749 109 771 q 154 694 154 726 q 132 640 154 662 q 77 617 109 617 m 540 617 q 486 640 508 617 q 463 694 463 662 q 486 749 463 726 q 540 771 508 771 q 594 749 572 771 q 617 694 617 726 q 594 640 617 662 q 540 617 572 617 z "},"z":{"ha":771,"x_min":0,"x_max":617,"o":"m 77 0 q 22 22 45 0 q 0 77 0 45 q 22 132 0 109 q 77 154 45 154 q 132 132 109 154 q 154 77 154 109 q 132 22 154 45 q 77 0 109 0 m 231 0 q 176 22 199 0 q 154 77 154 45 q 176 132 154 109 q 231 154 199 154 q 286 132 263 154 q 309 77 309 109 q 286 22 309 45 q 231 0 263 0 m 385 0 q 331 22 353 0 q 309 77 309 45 q 331 132 309 109 q 385 154 353 154 q 440 132 418 154 q 463 77 463 109 q 440 22 463 45 q 385 0 417 0 m 540 0 q 486 22 508 0 q 463 77 463 45 q 486 132 463 109 q 540 154 508 154 q 594 132 572 154 q 617 77 617 109 q 594 22 617 45 q 540 0 572 0 m 77 154 q 22 176 45 154 q 0 231 0 199 q 22 286 0 263 q 77 309 45 309 q 132 286 109 309 q 154 231 154 263 q 132 176 154 199 q 77 154 109 154 m 231 309 q 176 331 199 309 q 154 385 154 353 q 176 440 154 418 q 231 463 199 463 q 286 440 263 463 q 309 385 309 417 q 286 331 309 353 q 231 309 263 309 m 385 309 q 331 331 353 309 q 309 385 309 353 q 331 440 309 418 q 385 463 353 463 q 440 440 418 463 q 463 385 463 417 q 440 331 463 353 q 385 309 417 309 m 540 463 q 486 486 508 463 q 463 540 463 508 q 486 594 463 572 q 540 617 508 617 q 594 594 572 617 q 617 540 617 572 q 594 486 617 508 q 540 463 572 463 m 77 617 q 22 640 45 617 q 0 694 0 662 q 22 749 0 726 q 77 771 45 771 q 132 749 109 771 q 154 694 154 726 q 132 640 154 662 q 77 617 109 617 m 231 617 q 176 640 199 617 q 154 694 154 662 q 176 749 154 726 q 231 771 199 771 q 286 749 263 771 q 309 694 309 726 q 286 640 309 662 q 231 617 263 617 m 385 617 q 331 640 353 617 q 309 694 309 662 q 331 749 309 726 q 385 771 353 771 q 440 749 418 771 q 463 694 463 726 q 440 640 463 662 q 385 617 417 617 m 540 617 q 486 640 508 617 q 463 694 463 662 q 486 749 463 726 q 540 771 508 771 q 594 749 572 771 q 617 694 617 726 q 594 640 617 662 q 540 617 572 617 z "},"{":{"ha":771,"x_min":0,"x_max":617,"o":"m 385 0 q 331 22 353 0 q 309 77 309 45 q 331 132 309 109 q 385 154 353 154 q 440 132 418 154 q 463 77 463 109 q 440 22 463 45 q 385 0 417 0 m 540 0 q 486 22 508 0 q 463 77 463 45 q 486 132 463 109 q 540 154 508 154 q 594 132 572 154 q 617 77 617 109 q 594 22 617 45 q 540 0 572 0 m 231 154 q 176 176 199 154 q 154 231 154 199 q 176 286 154 263 q 231 309 199 309 q 286 286 263 309 q 309 231 309 263 q 286 176 309 199 q 231 154 263 154 m 231 309 q 176 331 199 309 q 154 385 154 353 q 176 440 154 418 q 231 463 199 463 q 286 440 263 463 q 309 385 309 417 q 286 331 309 353 q 231 309 263 309 m 77 463 q 22 486 45 463 q 0 540 0 508 q 22 594 0 572 q 77 617 45 617 q 132 594 109 617 q 154 540 154 572 q 132 486 154 508 q 77 463 109 463 m 231 617 q 176 640 199 617 q 154 694 154 662 q 176 749 154 726 q 231 771 199 771 q 286 749 263 771 q 309 694 309 726 q 286 640 309 662 q 231 617 263 617 m 231 771 q 176 794 199 771 q 154 848 154 817 q 176 903 154 880 q 231 926 199 926 q 286 903 263 926 q 309 848 309 880 q 286 794 309 817 q 231 771 263 771 m 385 926 q 331 948 353 926 q 309 1003 309 971 q 331 1057 309 1035 q 385 1080 353 1080 q 440 1057 418 1080 q 463 1003 463 1035 q 440 948 463 970 q 385 926 417 926 m 540 926 q 486 948 508 926 q 463 1003 463 971 q 486 1057 463 1035 q 540 1080 508 1080 q 594 1057 572 1080 q 617 1003 617 1035 q 594 948 617 970 q 540 926 572 926 z "},"|":{"ha":309,"x_min":0,"x_max":154,"o":"m 77 0 q 22 22 45 0 q 0 77 0 45 q 22 132 0 109 q 77 154 45 154 q 132 132 109 154 q 154 77 154 109 q 132 22 154 45 q 77 0 109 0 m 77 154 q 22 176 45 154 q 0 231 0 199 q 22 286 0 263 q 77 309 45 309 q 132 286 109 309 q 154 231 154 263 q 132 176 154 199 q 77 154 109 154 m 77 309 q 22 331 45 309 q 0 385 0 353 q 22 440 0 418 q 77 463 45 463 q 132 440 109 463 q 154 385 154 417 q 132 331 154 353 q 77 309 109 309 m 77 463 q 22 486 45 463 q 0 540 0 508 q 22 594 0 572 q 77 617 45 617 q 132 594 109 617 q 154 540 154 572 q 132 486 154 508 q 77 463 109 463 m 77 617 q 22 640 45 617 q 0 694 0 662 q 22 749 0 726 q 77 771 45 771 q 132 749 109 771 q 154 694 154 726 q 132 640 154 662 q 77 617 109 617 m 77 771 q 22 794 45 771 q 0 848 0 817 q 22 903 0 880 q 77 926 45 926 q 132 903 109 926 q 154 848 154 880 q 132 794 154 817 q 77 771 109 771 m 77 926 q 22 948 45 926 q 0 1003 0 971 q 22 1057 0 1035 q 77 1080 45 1080 q 132 1057 109 1080 q 154 1003 154 1035 q 132 948 154 970 q 77 926 109 926 z "},"}":{"ha":771,"x_min":0,"x_max":617,"o":"m 77 0 q 22 22 45 0 q 0 77 0 45 q 22 132 0 109 q 77 154 45 154 q 132 132 109 154 q 154 77 154 109 q 132 22 154 45 q 77 0 109 0 m 231 0 q 176 22 199 0 q 154 77 154 45 q 176 132 154 109 q 231 154 199 154 q 286 132 263 154 q 309 77 309 109 q 286 22 309 45 q 231 0 263 0 m 385 154 q 331 176 353 154 q 309 231 309 199 q 331 286 309 263 q 385 309 353 309 q 440 286 418 309 q 463 231 463 263 q 440 176 463 199 q 385 154 417 154 m 385 309 q 331 331 353 309 q 309 385 309 353 q 331 440 309 418 q 385 463 353 463 q 440 440 418 463 q 463 385 463 417 q 440 331 463 353 q 385 309 417 309 m 540 463 q 486 486 508 463 q 463 540 463 508 q 486 594 463 572 q 540 617 508 617 q 594 594 572 617 q 617 540 617 572 q 594 486 617 508 q 540 463 572 463 m 385 617 q 331 640 353 617 q 309 694 309 662 q 331 749 309 726 q 385 771 353 771 q 440 749 418 771 q 463 694 463 726 q 440 640 463 662 q 385 617 417 617 m 385 771 q 331 794 353 771 q 309 848 309 817 q 331 903 309 880 q 385 926 353 926 q 440 903 418 926 q 463 848 463 880 q 440 794 463 817 q 385 771 417 771 m 77 926 q 22 948 45 926 q 0 1003 0 971 q 22 1057 0 1035 q 77 1080 45 1080 q 132 1057 109 1080 q 154 1003 154 1035 q 132 948 154 970 q 77 926 109 926 m 231 926 q 176 948 199 926 q 154 1003 154 971 q 176 1057 154 1035 q 231 1080 199 1080 q 286 1057 263 1080 q 309 1003 309 1035 q 286 948 309 970 q 231 926 263 926 z "},"~":{"ha":926,"x_min":0,"x_max":771,"o":"m 540 309 q 486 331 508 309 q 463 385 463 353 q 486 440 463 418 q 540 463 508 463 q 594 440 572 463 q 617 385 617 417 q 594 331 617 353 q 540 309 572 309 m 77 463 q 22 486 45 463 q 0 540 0 508 q 22 594 0 572 q 77 617 45 617 q 132 594 109 617 q 154 540 154 572 q 132 486 154 508 q 77 463 109 463 m 385 463 q 331 486 353 463 q 309 540 309 508 q 331 594 309 572 q 385 617 353 617 q 440 594 418 617 q 463 540 463 572 q 440 486 463 508 q 385 463 417 463 m 694 463 q 640 486 662 463 q 617 540 617 508 q 640 594 617 572 q 694 617 662 617 q 749 594 726 617 q 771 540 771 572 q 749 486 771 508 q 694 463 726 463 m 231 617 q 176 640 199 617 q 154 694 154 662 q 176 749 154 726 q 231 771 199 771 q 286 749 263 771 q 309 694 309 726 q 286 640 309 662 q 231 617 263 617 z "},"":{"ha":154,"x_min":0,"x_max":0,"o":""},"":{"ha":617,"x_min":0,"x_max":463,"o":"m 231 771 q 176 794 199 771 q 154 848 154 817 q 176 903 154 880 q 231 926 199 926 q 286 903 263 926 q 309 848 309 880 q 286 794 309 817 q 231 771 263 771 m 77 926 q 22 948 45 926 q 0 1003 0 971 q 22 1057 0 1035 q 77 1080 45 1080 q 132 1057 109 1080 q 154 1003 154 1035 q 132 948 154 970 q 77 926 109 926 m 385 926 q 331 948 353 926 q 309 1003 309 971 q 331 1057 309 1035 q 385 1080 353 1080 q 440 1057 418 1080 q 463 1003 463 1035 q 440 948 463 970 q 385 926 417 926 m 231 1080 q 176 1103 199 1080 q 154 1157 154 1125 q 176 1212 154 1189 q 231 1234 199 1234 q 286 1212 263 1234 q 309 1157 309 1189 q 286 1103 309 1125 q 231 1080 263 1080 z "},"":{"ha":771,"x_min":0,"x_max":617,"o":"m 77 154 q 22 176 45 154 q 0 231 0 199 q 22 286 0 263 q 77 309 45 309 q 132 286 109 309 q 154 231 154 263 q 132 176 154 199 q 77 154 109 154 m 231 154 q 176 176 199 154 q 154 231 154 199 q 176 286 154 263 q 231 309 199 309 q 286 286 263 309 q 309 231 309 263 q 286 176 309 199 q 231 154 263 154 m 385 154 q 331 176 353 154 q 309 231 309 199 q 331 286 309 263 q 385 309 353 309 q 440 286 418 309 q 463 231 463 263 q 440 176 463 199 q 385 154 417 154 m 540 154 q 486 176 508 154 q 463 231 463 199 q 486 286 463 263 q 540 309 508 309 q 594 286 572 309 q 617 231 617 263 q 594 176 617 199 q 540 154 572 154 m 309 385 q 254 408 276 385 q 231 463 231 431 q 254 517 231 494 q 309 540 277 540 q 363 517 340 540 q 385 463 385 494 q 363 408 385 431 q 309 385 340 385 m 309 540 q 254 562 276 540 q 231 617 231 585 l 385 617 q 363 562 385 585 q 309 540 340 540 m 77 617 q 22 640 45 617 q 0 694 0 662 q 22 749 0 726 q 77 771 45 771 q 132 749 109 771 q 154 694 154 726 q 132 640 154 662 q 77 617 109 617 m 231 617 q 176 640 199 617 q 154 694 154 662 q 176 749 154 726 q 231 771 199 771 q 286 749 263 771 q 309 694 309 726 q 286 640 309 662 q 231 617 263 617 m 385 617 q 331 640 353 617 q 309 694 309 662 q 331 749 309 726 q 385 771 353 771 q 440 749 418 771 q 463 694 463 726 q 440 640 463 662 q 385 617 417 617 m 540 617 q 486 640 508 617 q 463 694 463 662 q 486 749 463 726 q 540 771 508 771 q 594 749 572 771 q 617 694 617 726 q 594 640 617 662 q 540 617 572 617 m 231 771 q 254 826 231 803 q 309 848 277 848 q 363 826 340 848 q 385 771 385 803 l 231 771 m 309 848 q 254 871 276 848 q 231 926 231 894 q 254 980 231 958 q 309 1003 277 1003 q 363 980 340 1003 q 385 926 385 958 q 363 871 385 894 q 309 848 340 848 z "},"":{"ha":771,"x_min":0,"x_max":617,"o":"m 77 463 q 22 486 45 463 q 0 540 0 508 q 22 594 0 572 q 77 617 45 617 q 132 594 109 617 q 154 540 154 572 q 132 486 154 508 q 77 463 109 463 m 231 463 q 176 486 199 463 q 154 540 154 508 q 176 594 154 572 q 231 617 199 617 q 286 594 263 617 q 309 540 309 572 q 286 486 309 508 q 231 463 263 463 m 385 463 q 331 486 353 463 q 309 540 309 508 q 331 594 309 572 q 385 617 353 617 q 440 594 418 617 q 463 540 463 572 q 440 486 463 508 q 385 463 417 463 m 540 463 q 486 486 508 463 q 463 540 463 508 q 486 594 463 572 q 540 617 508 617 q 594 594 572 617 q 617 540 617 572 q 594 486 617 508 q 540 463 572 463 m 231 617 q 176 640 199 617 q 154 694 154 662 q 176 749 154 726 q 231 771 199 771 q 286 749 263 771 q 309 694 309 726 q 286 640 309 662 q 231 617 263 617 m 385 771 q 331 794 353 771 q 309 848 309 817 q 331 903 309 880 q 385 926 353 926 q 440 903 418 926 q 463 848 463 880 q 440 794 463 817 q 385 771 417 771 m 77 926 q 22 948 45 926 q 0 1003 0 971 q 22 1057 0 1035 q 77 1080 45 1080 q 132 1057 109 1080 q 154 1003 154 1035 q 132 948 154 970 q 77 926 109 926 m 540 926 q 486 948 508 926 q 463 1003 463 971 q 486 1057 463 1035 q 540 1080 508 1080 q 594 1057 572 1080 q 617 1003 617 1035 q 594 948 617 970 q 540 926 572 926 m 231 1080 q 176 1103 199 1080 q 154 1157 154 1125 q 176 1212 154 1189 q 231 1234 199 1234 q 286 1212 263 1234 q 309 1157 309 1189 q 286 1103 309 1125 q 231 1080 263 1080 m 385 1080 q 331 1103 353 1080 q 309 1157 309 1125 q 331 1212 309 1189 q 385 1234 353 1234 q 440 1212 418 1234 q 463 1157 463 1189 q 440 1103 463 1125 q 385 1080 417 1080 z "},"":{"ha":771,"x_min":0,"x_max":617,"o":"m 231 463 q 176 486 199 463 q 154 540 154 508 q 176 594 154 572 q 231 617 199 617 q 286 594 263 617 q 309 540 309 572 q 286 486 309 508 q 231 463 263 463 m 385 463 q 331 486 353 463 q 309 540 309 508 q 331 594 309 572 q 385 617 353 617 q 440 594 418 617 q 463 540 463 572 q 440 486 463 508 q 385 463 417 463 m 77 617 q 22 640 45 617 q 0 694 0 662 q 22 749 0 726 q 77 771 45 771 q 132 749 109 771 q 154 694 154 726 q 132 640 154 662 q 77 617 109 617 m 540 617 q 486 640 508 617 q 463 694 463 662 q 486 749 463 726 q 540 771 508 771 q 594 749 572 771 q 617 694 617 726 q 594 640 617 662 q 540 617 572 617 m 385 771 q 331 794 353 771 q 309 848 309 817 q 331 903 309 880 q 385 926 353 926 q 440 903 418 926 q 463 848 463 880 q 440 794 463 817 q 385 771 417 771 m 463 926 q 408 948 431 926 q 385 1003 385 971 q 408 1057 385 1035 q 463 1080 431 1080 q 517 1057 494 1080 q 540 1003 540 1035 q 517 948 540 970 q 463 926 494 926 m 77 1080 q 22 1103 45 1080 q 0 1157 0 1125 q 22 1212 0 1189 q 77 1234 45 1234 q 132 1212 109 1234 q 154 1157 154 1189 q 132 1103 154 1125 q 77 1080 109 1080 m 231 1080 q 176 1103 199 1080 q 154 1157 154 1125 q 176 1212 154 1189 q 231 1234 199 1234 q 286 1212 263 1234 q 309 1157 309 1189 q 286 1103 309 1125 q 231 1080 263 1080 m 385 1080 q 331 1103 353 1080 q 309 1157 309 1125 q 331 1212 309 1189 q 385 1234 353 1234 q 440 1212 418 1234 q 463 1157 463 1189 q 440 1103 463 1125 q 385 1080 417 1080 m 540 1080 q 486 1103 508 1080 q 463 1157 463 1125 q 486 1212 463 1189 q 540 1234 508 1234 q 594 1212 572 1234 q 617 1157 617 1189 q 594 1103 617 1125 q 540 1080 572 1080 z "},"":{"ha":309,"x_min":0,"x_max":154,"o":"m 77 463 q 22 486 45 463 q 0 540 0 508 q 22 594 0 572 q 77 617 45 617 q 132 594 109 617 q 154 540 154 572 q 132 486 154 508 q 77 463 109 463 z "},"":{"ha":617,"x_min":0,"x_max":463,"o":"m 77 463 q 22 486 45 463 q 0 540 0 508 q 22 594 0 572 q 77 617 45 617 q 132 594 109 617 q 154 540 154 572 q 132 486 154 508 q 77 463 109 463 m 231 463 q 176 486 199 463 q 154 540 154 508 q 176 594 154 572 q 231 617 199 617 q 286 594 263 617 q 309 540 309 572 q 286 486 309 508 q 231 463 263 463 m 385 463 q 331 486 353 463 q 309 540 309 508 q 331 594 309 572 q 385 617 353 617 q 440 594 418 617 q 463 540 463 572 q 440 486 463 508 q 385 463 417 463 m 231 617 q 176 640 199 617 q 154 694 154 662 q 176 749 154 726 q 231 771 199 771 q 286 749 263 771 q 309 694 309 726 q 286 640 309 662 q 231 617 263 617 m 231 771 q 176 794 199 771 q 154 848 154 817 q 176 903 154 880 q 231 926 199 926 q 286 903 263 926 q 309 848 309 880 q 286 794 309 817 q 231 771 263 771 m 231 926 q 176 948 199 926 q 154 1003 154 971 q 176 1057 154 1035 q 231 1080 199 1080 q 286 1057 263 1080 q 309 1003 309 1035 q 286 948 309 970 q 231 926 263 926 m 77 1003 q 22 1025 45 1003 q 0 1080 0 1048 q 22 1135 0 1112 q 77 1157 45 1157 q 132 1135 109 1157 q 154 1080 154 1112 q 132 1025 154 1048 q 77 1003 109 1003 m 231 1080 q 176 1103 199 1080 q 154 1157 154 1125 q 176 1212 154 1189 q 231 1234 199 1234 q 286 1212 263 1234 q 309 1157 309 1189 q 286 1103 309 1125 q 231 1080 263 1080 z "},"":{"ha":926,"x_min":0,"x_max":771,"o":"m 77 0 q 22 22 45 0 q 0 77 0 45 q 22 132 0 109 q 77 154 45 154 q 132 132 109 154 q 154 77 154 109 q 132 22 154 45 q 77 0 109 0 m 694 0 q 640 22 662 0 q 617 77 617 45 q 640 132 617 109 q 694 154 662 154 q 749 132 726 154 q 771 77 771 109 q 749 22 771 45 q 694 0 726 0 m 77 154 q 22 176 45 154 q 0 231 0 199 q 22 286 0 263 q 77 309 45 309 q 132 286 109 309 q 154 231 154 263 q 132 176 154 199 q 77 154 109 154 m 694 154 q 640 176 662 154 q 617 231 617 199 q 640 286 617 263 q 694 309 662 309 q 749 286 726 309 q 771 231 771 263 q 749 176 771 199 q 694 154 726 154 m 77 309 q 22 331 45 309 q 0 385 0 353 q 22 440 0 418 q 77 463 45 463 q 132 440 109 463 q 154 385 154 417 q 132 331 154 353 q 77 309 109 309 m 231 309 q 176 331 199 309 q 154 385 154 353 q 176 440 154 418 q 231 463 199 463 q 286 440 263 463 q 309 385 309 417 q 286 331 309 353 q 231 309 263 309 m 385 309 q 331 331 353 309 q 309 385 309 353 q 331 440 309 418 q 385 463 353 463 q 440 440 418 463 q 463 385 463 417 q 440 331 463 353 q 385 309 417 309 m 540 309 q 486 331 508 309 q 463 385 463 353 q 486 440 463 418 q 540 463 508 463 q 594 440 572 463 q 617 385 617 417 q 594 331 617 353 q 540 309 572 309 m 694 309 q 640 331 662 309 q 617 385 617 353 q 640 440 617 418 q 694 463 662 463 q 749 440 726 463 q 771 385 771 417 q 749 331 771 353 q 694 309 726 309 m 77 463 q 22 486 45 463 q 0 540 0 508 q 22 594 0 572 q 77 617 45 617 q 132 594 109 617 q 154 540 154 572 q 132 486 154 508 q 77 463 109 463 m 694 463 q 640 486 662 463 q 617 540 617 508 q 640 594 617 572 q 694 617 662 617 q 749 594 726 617 q 771 540 771 572 q 749 486 771 508 q 694 463 726 463 m 77 617 q 22 640 45 617 q 0 694 0 662 q 22 749 0 726 q 77 771 45 771 q 132 749 109 771 q 154 694 154 726 q 132 640 154 662 q 77 617 109 617 m 694 617 q 640 640 662 617 q 617 694 617 662 q 640 749 617 726 q 694 771 662 771 q 749 749 726 771 q 771 694 771 726 q 749 640 771 662 q 694 617 726 617 m 231 771 q 176 794 199 771 q 154 848 154 817 q 176 903 154 880 q 231 926 199 926 q 286 903 263 926 q 309 848 309 880 q 286 794 309 817 q 231 771 263 771 m 540 771 q 486 794 508 771 q 463 848 463 817 q 486 903 463 880 q 540 926 508 926 q 594 903 572 926 q 617 848 617 880 q 594 794 617 817 q 540 771 572 771 m 385 926 q 331 948 353 926 q 309 1003 309 971 q 331 1057 309 1035 q 385 1080 353 1080 q 440 1057 418 1080 q 463 1003 463 1035 q 440 948 463 970 q 385 926 417 926 m 385 1234 q 331 1257 353 1234 q 309 1312 309 1280 q 331 1366 309 1343 q 385 1389 353 1389 q 440 1366 418 1389 q 463 1312 463 1343 q 440 1257 463 1280 q 385 1234 417 1234 m 231 1389 q 176 1411 199 1389 q 154 1466 154 1434 q 176 1520 154 1497 q 231 1543 199 1543 q 286 1520 263 1543 q 309 1466 309 1497 q 286 1411 309 1434 q 231 1389 263 1389 z "},"":{"ha":926,"x_min":0,"x_max":771,"o":"m 77 0 q 22 22 45 0 q 0 77 0 45 q 22 132 0 109 q 77 154 45 154 q 132 132 109 154 q 154 77 154 109 q 132 22 154 45 q 77 0 109 0 m 694 0 q 640 22 662 0 q 617 77 617 45 q 640 132 617 109 q 694 154 662 154 q 749 132 726 154 q 771 77 771 109 q 749 22 771 45 q 694 0 726 0 m 77 154 q 22 176 45 154 q 0 231 0 199 q 22 286 0 263 q 77 309 45 309 q 132 286 109 309 q 154 231 154 263 q 132 176 154 199 q 77 154 109 154 m 694 154 q 640 176 662 154 q 617 231 617 199 q 640 286 617 263 q 694 309 662 309 q 749 286 726 309 q 771 231 771 263 q 749 176 771 199 q 694 154 726 154 m 77 309 q 22 331 45 309 q 0 385 0 353 q 22 440 0 418 q 77 463 45 463 q 132 440 109 463 q 154 385 154 417 q 132 331 154 353 q 77 309 109 309 m 231 309 q 176 331 199 309 q 154 385 154 353 q 176 440 154 418 q 231 463 199 463 q 286 440 263 463 q 309 385 309 417 q 286 331 309 353 q 231 309 263 309 m 385 309 q 331 331 353 309 q 309 385 309 353 q 331 440 309 418 q 385 463 353 463 q 440 440 418 463 q 463 385 463 417 q 440 331 463 353 q 385 309 417 309 m 540 309 q 486 331 508 309 q 463 385 463 353 q 486 440 463 418 q 540 463 508 463 q 594 440 572 463 q 617 385 617 417 q 594 331 617 353 q 540 309 572 309 m 694 309 q 640 331 662 309 q 617 385 617 353 q 640 440 617 418 q 694 463 662 463 q 749 440 726 463 q 771 385 771 417 q 749 331 771 353 q 694 309 726 309 m 77 463 q 22 486 45 463 q 0 540 0 508 q 22 594 0 572 q 77 617 45 617 q 132 594 109 617 q 154 540 154 572 q 132 486 154 508 q 77 463 109 463 m 694 463 q 640 486 662 463 q 617 540 617 508 q 640 594 617 572 q 694 617 662 617 q 749 594 726 617 q 771 540 771 572 q 749 486 771 508 q 694 463 726 463 m 77 617 q 22 640 45 617 q 0 694 0 662 q 22 749 0 726 q 77 771 45 771 q 132 749 109 771 q 154 694 154 726 q 132 640 154 662 q 77 617 109 617 m 694 617 q 640 640 662 617 q 617 694 617 662 q 640 749 617 726 q 694 771 662 771 q 749 749 726 771 q 771 694 771 726 q 749 640 771 662 q 694 617 726 617 m 231 771 q 176 794 199 771 q 154 848 154 817 q 176 903 154 880 q 231 926 199 926 q 286 903 263 926 q 309 848 309 880 q 286 794 309 817 q 231 771 263 771 m 540 771 q 486 794 508 771 q 463 848 463 817 q 486 903 463 880 q 540 926 508 926 q 594 903 572 926 q 617 848 617 880 q 594 794 617 817 q 540 771 572 771 m 385 926 q 331 948 353 926 q 309 1003 309 971 q 331 1057 309 1035 q 385 1080 353 1080 q 440 1057 418 1080 q 463 1003 463 1035 q 440 948 463 970 q 385 926 417 926 m 385 1234 q 331 1257 353 1234 q 309 1312 309 1280 q 331 1366 309 1343 q 385 1389 353 1389 q 440 1366 418 1389 q 463 1312 463 1343 q 440 1257 463 1280 q 385 1234 417 1234 m 540 1389 q 486 1411 508 1389 q 463 1466 463 1434 q 486 1520 463 1497 q 540 1543 508 1543 q 594 1520 572 1543 q 617 1466 617 1497 q 594 1411 617 1434 q 540 1389 572 1389 z "},"":{"ha":926,"x_min":0,"x_max":771,"o":"m 77 0 q 22 22 45 0 q 0 77 0 45 q 22 132 0 109 q 77 154 45 154 q 132 132 109 154 q 154 77 154 109 q 132 22 154 45 q 77 0 109 0 m 231 0 q 176 22 199 0 q 154 77 154 45 q 176 132 154 109 q 231 154 199 154 q 286 132 263 154 q 309 77 309 109 q 286 22 309 45 q 231 0 263 0 m 385 0 q 331 22 353 0 q 309 77 309 45 q 331 132 309 109 q 385 154 353 154 q 440 132 418 154 q 463 77 463 109 q 440 22 463 45 q 385 0 417 0 m 540 0 q 486 22 508 0 q 463 77 463 45 q 486 132 463 109 q 540 154 508 154 q 594 132 572 154 q 617 77 617 109 q 594 22 617 45 q 540 0 572 0 m 694 0 q 640 22 662 0 q 617 77 617 45 q 640 132 617 109 q 694 154 662 154 q 749 132 726 154 q 771 77 771 109 q 749 22 771 45 q 694 0 726 0 m 77 154 q 22 176 45 154 q 0 231 0 199 q 22 286 0 263 q 77 309 45 309 q 132 286 109 309 q 154 231 154 263 q 132 176 154 199 q 77 154 109 154 m 77 309 q 22 331 45 309 q 0 385 0 353 q 22 440 0 418 q 77 463 45 463 q 132 440 109 463 q 154 385 154 417 q 132 331 154 353 q 77 309 109 309 m 77 463 q 22 486 45 463 q 0 540 0 508 q 22 594 0 572 q 77 617 45 617 q 132 594 109 617 q 154 540 154 572 q 132 486 154 508 q 77 463 109 463 m 231 463 q 176 486 199 463 q 154 540 154 508 q 176 594 154 572 q 231 617 199 617 q 286 594 263 617 q 309 540 309 572 q 286 486 309 508 q 231 463 263 463 m 385 463 q 331 486 353 463 q 309 540 309 508 q 331 594 309 572 q 385 617 353 617 q 440 594 418 617 q 463 540 463 572 q 440 486 463 508 q 385 463 417 463 m 540 463 q 486 486 508 463 q 463 540 463 508 q 486 594 463 572 q 540 617 508 617 q 594 594 572 617 q 617 540 617 572 q 594 486 617 508 q 540 463 572 463 m 77 617 q 22 640 45 617 q 0 694 0 662 q 22 749 0 726 q 77 771 45 771 q 132 749 109 771 q 154 694 154 726 q 132 640 154 662 q 77 617 109 617 m 77 771 q 22 794 45 771 q 0 848 0 817 q 22 903 0 880 q 77 926 45 926 q 132 903 109 926 q 154 848 154 880 q 132 794 154 817 q 77 771 109 771 m 77 926 q 22 948 45 926 q 0 1003 0 971 q 22 1057 0 1035 q 77 1080 45 1080 q 132 1057 109 1080 q 154 1003 154 1035 q 132 948 154 970 q 77 926 109 926 m 231 926 q 176 948 199 926 q 154 1003 154 971 q 176 1057 154 1035 q 231 1080 199 1080 q 286 1057 263 1080 q 309 1003 309 1035 q 286 948 309 970 q 231 926 263 926 m 385 926 q 331 948 353 926 q 309 1003 309 971 q 331 1057 309 1035 q 385 1080 353 1080 q 440 1057 418 1080 q 463 1003 463 1035 q 440 948 463 970 q 385 926 417 926 m 540 926 q 486 948 508 926 q 463 1003 463 971 q 486 1057 463 1035 q 540 1080 508 1080 q 594 1057 572 1080 q 617 1003 617 1035 q 594 948 617 970 q 540 926 572 926 m 694 926 q 640 948 662 926 q 617 1003 617 971 q 640 1057 617 1035 q 694 1080 662 1080 q 749 1057 726 1080 q 771 1003 771 1035 q 749 948 771 970 q 694 926 726 926 m 385 1234 q 331 1257 353 1234 q 309 1312 309 1280 q 331 1366 309 1343 q 385 1389 353 1389 q 440 1366 418 1389 q 463 1312 463 1343 q 440 1257 463 1280 q 385 1234 417 1234 m 231 1389 q 176 1411 199 1389 q 154 1466 154 1434 q 176 1520 154 1497 q 231 1543 199 1543 q 286 1520 263 1543 q 309 1466 309 1497 q 286 1411 309 1434 q 231 1389 263 1389 z "},"":{"ha":926,"x_min":0,"x_max":771,"o":"m 77 0 q 22 22 45 0 q 0 77 0 45 q 22 132 0 109 q 77 154 45 154 q 132 132 109 154 q 154 77 154 109 q 132 22 154 45 q 77 0 109 0 m 231 0 q 176 22 199 0 q 154 77 154 45 q 176 132 154 109 q 231 154 199 154 q 286 132 263 154 q 309 77 309 109 q 286 22 309 45 q 231 0 263 0 m 385 0 q 331 22 353 0 q 309 77 309 45 q 331 132 309 109 q 385 154 353 154 q 440 132 418 154 q 463 77 463 109 q 440 22 463 45 q 385 0 417 0 m 540 0 q 486 22 508 0 q 463 77 463 45 q 486 132 463 109 q 540 154 508 154 q 594 132 572 154 q 617 77 617 109 q 594 22 617 45 q 540 0 572 0 m 694 0 q 640 22 662 0 q 617 77 617 45 q 640 132 617 109 q 694 154 662 154 q 749 132 726 154 q 771 77 771 109 q 749 22 771 45 q 694 0 726 0 m 77 154 q 22 176 45 154 q 0 231 0 199 q 22 286 0 263 q 77 309 45 309 q 132 286 109 309 q 154 231 154 263 q 132 176 154 199 q 77 154 109 154 m 77 309 q 22 331 45 309 q 0 385 0 353 q 22 440 0 418 q 77 463 45 463 q 132 440 109 463 q 154 385 154 417 q 132 331 154 353 q 77 309 109 309 m 77 463 q 22 486 45 463 q 0 540 0 508 q 22 594 0 572 q 77 617 45 617 q 132 594 109 617 q 154 540 154 572 q 132 486 154 508 q 77 463 109 463 m 231 463 q 176 486 199 463 q 154 540 154 508 q 176 594 154 572 q 231 617 199 617 q 286 594 263 617 q 309 540 309 572 q 286 486 309 508 q 231 463 263 463 m 385 463 q 331 486 353 463 q 309 540 309 508 q 331 594 309 572 q 385 617 353 617 q 440 594 418 617 q 463 540 463 572 q 440 486 463 508 q 385 463 417 463 m 540 463 q 486 486 508 463 q 463 540 463 508 q 486 594 463 572 q 540 617 508 617 q 594 594 572 617 q 617 540 617 572 q 594 486 617 508 q 540 463 572 463 m 77 617 q 22 640 45 617 q 0 694 0 662 q 22 749 0 726 q 77 771 45 771 q 132 749 109 771 q 154 694 154 726 q 132 640 154 662 q 77 617 109 617 m 77 771 q 22 794 45 771 q 0 848 0 817 q 22 903 0 880 q 77 926 45 926 q 132 903 109 926 q 154 848 154 880 q 132 794 154 817 q 77 771 109 771 m 77 926 q 22 948 45 926 q 0 1003 0 971 q 22 1057 0 1035 q 77 1080 45 1080 q 132 1057 109 1080 q 154 1003 154 1035 q 132 948 154 970 q 77 926 109 926 m 231 926 q 176 948 199 926 q 154 1003 154 971 q 176 1057 154 1035 q 231 1080 199 1080 q 286 1057 263 1080 q 309 1003 309 1035 q 286 948 309 970 q 231 926 263 926 m 385 926 q 331 948 353 926 q 309 1003 309 971 q 331 1057 309 1035 q 385 1080 353 1080 q 440 1057 418 1080 q 463 1003 463 1035 q 440 948 463 970 q 385 926 417 926 m 540 926 q 486 948 508 926 q 463 1003 463 971 q 486 1057 463 1035 q 540 1080 508 1080 q 594 1057 572 1080 q 617 1003 617 1035 q 594 948 617 970 q 540 926 572 926 m 694 926 q 640 948 662 926 q 617 1003 617 971 q 640 1057 617 1035 q 694 1080 662 1080 q 749 1057 726 1080 q 771 1003 771 1035 q 749 948 771 970 q 694 926 726 926 m 385 1234 q 331 1257 353 1234 q 309 1312 309 1280 q 331 1366 309 1343 q 385 1389 353 1389 q 440 1366 418 1389 q 463 1312 463 1343 q 440 1257 463 1280 q 385 1234 417 1234 m 540 1389 q 486 1411 508 1389 q 463 1466 463 1434 q 486 1520 463 1497 q 540 1543 508 1543 q 594 1520 572 1543 q 617 1466 617 1497 q 594 1411 617 1434 q 540 1389 572 1389 z "},"":{"ha":617,"x_min":0,"x_max":463,"o":"m 77 0 q 22 22 45 0 q 0 77 0 45 q 22 132 0 109 q 77 154 45 154 q 132 132 109 154 q 154 77 154 109 q 132 22 154 45 q 77 0 109 0 m 231 0 q 176 22 199 0 q 154 77 154 45 q 176 132 154 109 q 231 154 199 154 q 286 132 263 154 q 309 77 309 109 q 286 22 309 45 q 231 0 263 0 m 385 0 q 331 22 353 0 q 309 77 309 45 q 331 132 309 109 q 385 154 353 154 q 440 132 418 154 q 463 77 463 109 q 440 22 463 45 q 385 0 417 0 m 231 154 q 176 176 199 154 q 154 231 154 199 q 176 286 154 263 q 231 309 199 309 q 286 286 263 309 q 309 231 309 263 q 286 176 309 199 q 231 154 263 154 m 231 309 q 176 331 199 309 q 154 385 154 353 q 176 440 154 418 q 231 463 199 463 q 286 440 263 463 q 309 385 309 417 q 286 331 309 353 q 231 309 263 309 m 231 463 q 176 486 199 463 q 154 540 154 508 q 176 594 154 572 q 231 617 199 617 q 286 594 263 617 q 309 540 309 572 q 286 486 309 508 q 231 463 263 463 m 231 617 q 176 640 199 617 q 154 694 154 662 q 176 749 154 726 q 231 771 199 771 q 286 749 263 771 q 309 694 309 726 q 286 640 309 662 q 231 617 263 617 m 231 771 q 176 794 199 771 q 154 848 154 817 q 176 903 154 880 q 231 926 199 926 q 286 903 263 926 q 309 848 309 880 q 286 794 309 817 q 231 771 263 771 m 77 926 q 22 948 45 926 q 0 1003 0 971 q 22 1057 0 1035 q 77 1080 45 1080 q 132 1057 109 1080 q 154 1003 154 1035 q 132 948 154 970 q 77 926 109 926 m 231 926 q 176 948 199 926 q 154 1003 154 971 q 176 1057 154 1035 q 231 1080 199 1080 q 286 1057 263 1080 q 309 1003 309 1035 q 286 948 309 970 q 231 926 263 926 m 385 926 q 331 948 353 926 q 309 1003 309 971 q 331 1057 309 1035 q 385 1080 353 1080 q 440 1057 418 1080 q 463 1003 463 1035 q 440 948 463 970 q 385 926 417 926 m 231 1234 q 176 1257 199 1234 q 154 1312 154 1280 q 176 1366 154 1343 q 231 1389 199 1389 q 286 1366 263 1389 q 309 1312 309 1343 q 286 1257 309 1280 q 231 1234 263 1234 m 77 1389 q 22 1411 45 1389 q 0 1466 0 1434 q 22 1520 0 1497 q 77 1543 45 1543 q 132 1520 109 1543 q 154 1466 154 1497 q 132 1411 154 1434 q 77 1389 109 1389 z "},"":{"ha":617,"x_min":0,"x_max":463,"o":"m 77 0 q 22 22 45 0 q 0 77 0 45 q 22 132 0 109 q 77 154 45 154 q 132 132 109 154 q 154 77 154 109 q 132 22 154 45 q 77 0 109 0 m 231 0 q 176 22 199 0 q 154 77 154 45 q 176 132 154 109 q 231 154 199 154 q 286 132 263 154 q 309 77 309 109 q 286 22 309 45 q 231 0 263 0 m 385 0 q 331 22 353 0 q 309 77 309 45 q 331 132 309 109 q 385 154 353 154 q 440 132 418 154 q 463 77 463 109 q 440 22 463 45 q 385 0 417 0 m 231 154 q 176 176 199 154 q 154 231 154 199 q 176 286 154 263 q 231 309 199 309 q 286 286 263 309 q 309 231 309 263 q 286 176 309 199 q 231 154 263 154 m 231 309 q 176 331 199 309 q 154 385 154 353 q 176 440 154 418 q 231 463 199 463 q 286 440 263 463 q 309 385 309 417 q 286 331 309 353 q 231 309 263 309 m 231 463 q 176 486 199 463 q 154 540 154 508 q 176 594 154 572 q 231 617 199 617 q 286 594 263 617 q 309 540 309 572 q 286 486 309 508 q 231 463 263 463 m 231 617 q 176 640 199 617 q 154 694 154 662 q 176 749 154 726 q 231 771 199 771 q 286 749 263 771 q 309 694 309 726 q 286 640 309 662 q 231 617 263 617 m 231 771 q 176 794 199 771 q 154 848 154 817 q 176 903 154 880 q 231 926 199 926 q 286 903 263 926 q 309 848 309 880 q 286 794 309 817 q 231 771 263 771 m 77 926 q 22 948 45 926 q 0 1003 0 971 q 22 1057 0 1035 q 77 1080 45 1080 q 132 1057 109 1080 q 154 1003 154 1035 q 132 948 154 970 q 77 926 109 926 m 231 926 q 176 948 199 926 q 154 1003 154 971 q 176 1057 154 1035 q 231 1080 199 1080 q 286 1057 263 1080 q 309 1003 309 1035 q 286 948 309 970 q 231 926 263 926 m 385 926 q 331 948 353 926 q 309 1003 309 971 q 331 1057 309 1035 q 385 1080 353 1080 q 440 1057 418 1080 q 463 1003 463 1035 q 440 948 463 970 q 385 926 417 926 m 231 1234 q 176 1257 199 1234 q 154 1312 154 1280 q 176 1366 154 1343 q 231 1389 199 1389 q 286 1366 263 1389 q 309 1312 309 1343 q 286 1257 309 1280 q 231 1234 263 1234 m 385 1389 q 331 1411 353 1389 q 309 1466 309 1434 q 331 1520 309 1497 q 385 1543 353 1543 q 440 1520 418 1543 q 463 1466 463 1497 q 440 1411 463 1434 q 385 1389 417 1389 z "},"":{"ha":926,"x_min":0,"x_max":771,"o":"m 231 0 q 176 22 199 0 q 154 77 154 45 q 176 132 154 109 q 231 154 199 154 q 286 132 263 154 q 309 77 309 109 q 286 22 309 45 q 231 0 263 0 m 385 0 q 331 22 353 0 q 309 77 309 45 q 331 132 309 109 q 385 154 353 154 q 440 132 418 154 q 463 77 463 109 q 440 22 463 45 q 385 0 417 0 m 540 0 q 486 22 508 0 q 463 77 463 45 q 486 132 463 109 q 540 154 508 154 q 594 132 572 154 q 617 77 617 109 q 594 22 617 45 q 540 0 572 0 m 77 154 q 22 176 45 154 q 0 231 0 199 q 22 286 0 263 q 77 309 45 309 q 132 286 109 309 q 154 231 154 263 q 132 176 154 199 q 77 154 109 154 m 694 154 q 640 176 662 154 q 617 231 617 199 q 640 286 617 263 q 694 309 662 309 q 749 286 726 309 q 771 231 771 263 q 749 176 771 199 q 694 154 726 154 m 77 309 q 22 331 45 309 q 0 385 0 353 q 22 440 0 418 q 77 463 45 463 q 132 440 109 463 q 154 385 154 417 q 132 331 154 353 q 77 309 109 309 m 694 309 q 640 331 662 309 q 617 385 617 353 q 640 440 617 418 q 694 463 662 463 q 749 440 726 463 q 771 385 771 417 q 749 331 771 353 q 694 309 726 309 m 77 463 q 22 486 45 463 q 0 540 0 508 q 22 594 0 572 q 77 617 45 617 q 132 594 109 617 q 154 540 154 572 q 132 486 154 508 q 77 463 109 463 m 694 463 q 640 486 662 463 q 617 540 617 508 q 640 594 617 572 q 694 617 662 617 q 749 594 726 617 q 771 540 771 572 q 749 486 771 508 q 694 463 726 463 m 77 617 q 22 640 45 617 q 0 694 0 662 q 22 749 0 726 q 77 771 45 771 q 132 749 109 771 q 154 694 154 726 q 132 640 154 662 q 77 617 109 617 m 694 617 q 640 640 662 617 q 617 694 617 662 q 640 749 617 726 q 694 771 662 771 q 749 749 726 771 q 771 694 771 726 q 749 640 771 662 q 694 617 726 617 m 77 771 q 22 794 45 771 q 0 848 0 817 q 22 903 0 880 q 77 926 45 926 q 132 903 109 926 q 154 848 154 880 q 132 794 154 817 q 77 771 109 771 m 694 771 q 640 794 662 771 q 617 848 617 817 q 640 903 617 880 q 694 926 662 926 q 749 903 726 926 q 771 848 771 880 q 749 794 771 817 q 694 771 726 771 m 231 926 q 176 948 199 926 q 154 1003 154 971 q 176 1057 154 1035 q 231 1080 199 1080 q 286 1057 263 1080 q 309 1003 309 1035 q 286 948 309 970 q 231 926 263 926 m 385 926 q 331 948 353 926 q 309 1003 309 971 q 331 1057 309 1035 q 385 1080 353 1080 q 440 1057 418 1080 q 463 1003 463 1035 q 440 948 463 970 q 385 926 417 926 m 540 926 q 486 948 508 926 q 463 1003 463 971 q 486 1057 463 1035 q 540 1080 508 1080 q 594 1057 572 1080 q 617 1003 617 1035 q 594 948 617 970 q 540 926 572 926 m 385 1234 q 331 1257 353 1234 q 309 1312 309 1280 q 331 1366 309 1343 q 385 1389 353 1389 q 440 1366 418 1389 q 463 1312 463 1343 q 440 1257 463 1280 q 385 1234 417 1234 m 540 1389 q 486 1411 508 1389 q 463 1466 463 1434 q 486 1520 463 1497 q 540 1543 508 1543 q 594 1520 572 1543 q 617 1466 617 1497 q 594 1411 617 1434 q 540 1389 572 1389 z "},"":{"ha":926,"x_min":0,"x_max":771,"o":"m 231 0 q 176 22 199 0 q 154 77 154 45 q 176 132 154 109 q 231 154 199 154 q 286 132 263 154 q 309 77 309 109 q 286 22 309 45 q 231 0 263 0 m 385 0 q 331 22 353 0 q 309 77 309 45 q 331 132 309 109 q 385 154 353 154 q 440 132 418 154 q 463 77 463 109 q 440 22 463 45 q 385 0 417 0 m 540 0 q 486 22 508 0 q 463 77 463 45 q 486 132 463 109 q 540 154 508 154 q 594 132 572 154 q 617 77 617 109 q 594 22 617 45 q 540 0 572 0 m 77 154 q 22 176 45 154 q 0 231 0 199 q 22 286 0 263 q 77 309 45 309 q 132 286 109 309 q 154 231 154 263 q 132 176 154 199 q 77 154 109 154 m 694 154 q 640 176 662 154 q 617 231 617 199 q 640 286 617 263 q 694 309 662 309 q 749 286 726 309 q 771 231 771 263 q 749 176 771 199 q 694 154 726 154 m 77 309 q 22 331 45 309 q 0 385 0 353 q 22 440 0 418 q 77 463 45 463 q 132 440 109 463 q 154 385 154 417 q 132 331 154 353 q 77 309 109 309 m 694 309 q 640 331 662 309 q 617 385 617 353 q 640 440 617 418 q 694 463 662 463 q 749 440 726 463 q 771 385 771 417 q 749 331 771 353 q 694 309 726 309 m 77 463 q 22 486 45 463 q 0 540 0 508 q 22 594 0 572 q 77 617 45 617 q 132 594 109 617 q 154 540 154 572 q 132 486 154 508 q 77 463 109 463 m 694 463 q 640 486 662 463 q 617 540 617 508 q 640 594 617 572 q 694 617 662 617 q 749 594 726 617 q 771 540 771 572 q 749 486 771 508 q 694 463 726 463 m 77 617 q 22 640 45 617 q 0 694 0 662 q 22 749 0 726 q 77 771 45 771 q 132 749 109 771 q 154 694 154 726 q 132 640 154 662 q 77 617 109 617 m 694 617 q 640 640 662 617 q 617 694 617 662 q 640 749 617 726 q 694 771 662 771 q 749 749 726 771 q 771 694 771 726 q 749 640 771 662 q 694 617 726 617 m 77 771 q 22 794 45 771 q 0 848 0 817 q 22 903 0 880 q 77 926 45 926 q 132 903 109 926 q 154 848 154 880 q 132 794 154 817 q 77 771 109 771 m 694 771 q 640 794 662 771 q 617 848 617 817 q 640 903 617 880 q 694 926 662 926 q 749 903 726 926 q 771 848 771 880 q 749 794 771 817 q 694 771 726 771 m 231 926 q 176 948 199 926 q 154 1003 154 971 q 176 1057 154 1035 q 231 1080 199 1080 q 286 1057 263 1080 q 309 1003 309 1035 q 286 948 309 970 q 231 926 263 926 m 385 926 q 331 948 353 926 q 309 1003 309 971 q 331 1057 309 1035 q 385 1080 353 1080 q 440 1057 418 1080 q 463 1003 463 1035 q 440 948 463 970 q 385 926 417 926 m 540 926 q 486 948 508 926 q 463 1003 463 971 q 486 1057 463 1035 q 540 1080 508 1080 q 594 1057 572 1080 q 617 1003 617 1035 q 594 948 617 970 q 540 926 572 926 m 231 1234 q 176 1257 199 1234 q 154 1312 154 1280 q 176 1366 154 1343 q 231 1389 199 1389 q 286 1366 263 1389 q 309 1312 309 1343 q 286 1257 309 1280 q 231 1234 263 1234 m 540 1234 q 486 1257 508 1234 q 463 1312 463 1280 q 486 1366 463 1343 q 540 1389 508 1389 q 594 1366 572 1389 q 617 1312 617 1343 q 594 1257 617 1280 q 540 1234 572 1234 z "},"":{"ha":926,"x_min":0,"x_max":771,"o":"m 77 154 q 22 176 45 154 q 0 231 0 199 q 22 286 0 263 q 77 309 45 309 q 132 286 109 309 q 154 231 154 263 q 132 176 154 199 q 77 154 109 154 m 694 154 q 640 176 662 154 q 617 231 617 199 q 640 286 617 263 q 694 309 662 309 q 749 286 726 309 q 771 231 771 263 q 749 176 771 199 q 694 154 726 154 m 231 309 q 176 331 199 309 q 154 385 154 353 q 176 440 154 418 q 231 463 199 463 q 286 440 263 463 q 309 385 309 417 q 286 331 309 353 q 231 309 263 309 m 540 309 q 486 331 508 309 q 463 385 463 353 q 486 440 463 418 q 540 463 508 463 q 594 440 572 463 q 617 385 617 417 q 594 331 617 353 q 540 309 572 309 m 385 463 q 331 486 353 463 q 309 540 309 508 q 331 594 309 572 q 385 617 353 617 q 440 594 418 617 q 463 540 463 572 q 440 486 463 508 q 385 463 417 463 m 231 617 q 176 640 199 617 q 154 694 154 662 q 176 749 154 726 q 231 771 199 771 q 286 749 263 771 q 309 694 309 726 q 286 640 309 662 q 231 617 263 617 m 540 617 q 486 640 508 617 q 463 694 463 662 q 486 749 463 726 q 540 771 508 771 q 594 749 572 771 q 617 694 617 726 q 594 640 617 662 q 540 617 572 617 m 77 771 q 22 794 45 771 q 0 848 0 817 q 22 903 0 880 q 77 926 45 926 q 132 903 109 926 q 154 848 154 880 q 132 794 154 817 q 77 771 109 771 m 694 771 q 640 794 662 771 q 617 848 617 817 q 640 903 617 880 q 694 926 662 926 q 749 903 726 926 q 771 848 771 880 q 749 794 771 817 q 694 771 726 771 z "}}}
